<?xml version="1.0" encoding="UTF-8" standalone="no"?>
<!-- Created with Inkscape (http://www.inkscape.org/) -->

<svg
   version="1.1"
   id="svg1"
   width="260"
   height="260"
   viewBox="0 0 260 260"
   sodipodi:docname="linkedin.svg"
   inkscape:version="1.4.2 (1:1.4.2+202505120738+ebf0e940d0)"
   xmlns:inkscape="http://www.inkscape.org/namespaces/inkscape"
   xmlns:sodipodi="http://sodipodi.sourceforge.net/DTD/sodipodi-0.dtd"
   xmlns="http://www.w3.org/2000/svg"
   xmlns:svg="http://www.w3.org/2000/svg">
  <defs
     id="defs1" />
  <sodipodi:namedview
     id="namedview1"
     pagecolor="#505050"
     bordercolor="#eeeeee"
     borderopacity="1"
     inkscape:showpageshadow="0"
     inkscape:pageopacity="0"
     inkscape:pagecheckerboard="0"
     inkscape:deskcolor="#505050"
     inkscape:zoom="2.194845"
     inkscape:cx="87.249896"
     inkscape:cy="139.8732"
     inkscape:window-width="1920"
     inkscape:window-height="1008"
     inkscape:window-x="0"
     inkscape:window-y="0"
     inkscape:window-maximized="1"
     inkscape:current-layer="g1" />
  <g
     inkscape:groupmode="layer"
     inkscape:label="Image"
     id="g1">
    <path
       style="fill:#fefefe"
       d="M 14.324051,259.13954 C 9.2773127,257.80808 4.1986737,253.75299 2.043209,249.33376 -0.15073088,244.83566 0.00229332,253.79555 0.00229332,129.83377 0.00229332,5.8719828 -0.15073088,14.831878 2.043209,10.333772 3.4748887,7.3984818 7.3735997,3.5202098 10.335559,2.0848918 15.008587,-0.17958221 4.6951877,-7.220114e-5 129.81075,0.00536679 c 125.5894,0.0055 115.33974,-0.183457 119.89415,2.20982001 4.47426,2.351157 7.84303,6.402836 9.38313,11.2852512 l 0.73602,2.333334 V 129.83377 243.83376 l -0.7393,2.33334 c -1.57676,4.97642 -4.81461,8.88628 -9.3192,11.25338 -4.62693,2.43138 5.80292,2.23862 -120.10816,2.21975 -98.084248,-0.0147 -113.749012,-0.0827 -115.333339,-0.50069 z M 76.990718,159.33377 V 97.667103 h -19 -19 v 61.666667 61.66666 h 19 19 z m 62.666672,28.3464 c 0,-35.08311 0.0886,-37.60422 1.52131,-43.28092 1.20405,-4.77078 2.81291,-7.79898 5.65751,-10.64863 3.82556,-3.83234 7.71531,-5.32905 14.65451,-5.63882 13.16037,-0.58747 19.71483,6.03928 21.15533,21.38863 0.21029,2.24072 0.34422,16.85668 0.34439,37.58334 l 2.8e-4,33.91666 h 19.01353 19.01353 L 220.9008,179.9171 c -0.12646,-44.41087 -0.0712,-42.94364 -1.96168,-52.08333 -3.74542,-18.10751 -13.70474,-28.644287 -30.28173,-32.037537 -15.15602,-3.10239 -29.2177,-0.63797 -39.32117,6.891327 -3.15222,2.34908 -7.089,6.46721 -8.98483,9.3987 -0.79943,1.23613 -1.65761,2.24751 -1.90708,2.24751 -0.37047,0 -0.45359,-1.52714 -0.45359,-8.33333 v -8.333337 h -18.33333 -18.33334 v 61.666667 61.66666 h 19.16667 19.16667 z M 64.159398,79.318563 c 3.645662,-1.11094 6.373913,-2.80062 9.346948,-5.78882 3.086916,-3.10266 4.805395,-6.07121 5.827039,-10.0658 3.048583,-11.91984 -4.836605,-24.437876 -17.009334,-27.002955 -5.081181,-1.070724 -11.181505,0.0039 -15.830134,2.788505 -3.132706,1.876571 -6.56688,5.599769 -8.156112,8.842541 -1.772737,3.617209 -2.44895,6.399179 -2.44895,10.075069 0,10.38063 7.283569,19.32063 17.631425,21.64117 2.984129,0.6692 7.521374,0.46035 10.639118,-0.48971 z"
       id="path1"
       sodipodi:nodetypes="ssssscsscccsssscccccccccsssssscccssssssscccccccssssscssss" />
  </g>
</svg>
