<?xml version="1.0" encoding="UTF-8" standalone="no"?>
<svg
   version="1.1"
   width="640"
   height="640"
   style="overflow: hidden;"
   id="svg1"
   sodipodi:docname="momul.svg"
   inkscape:version="1.4.2 (1:1.4.2+202505120738+ebf0e940d0)"
   xmlns:inkscape="http://www.inkscape.org/namespaces/inkscape"
   xmlns:sodipodi="http://sodipodi.sourceforge.net/DTD/sodipodi-0.dtd"
   xmlns="http://www.w3.org/2000/svg"
   xmlns:svg="http://www.w3.org/2000/svg">
  <sodipodi:namedview
     id="namedview1"
     pagecolor="#505050"
     bordercolor="#eeeeee"
     borderopacity="1"
     inkscape:showpageshadow="0"
     inkscape:pageopacity="0"
     inkscape:pagecheckerboard="0"
     inkscape:deskcolor="#505050"
     inkscape:zoom="0.69163882"
     inkscape:cx="356.39989"
     inkscape:cy="351.33945"
     inkscape:window-width="1600"
     inkscape:window-height="828"
     inkscape:window-x="130"
     inkscape:window-y="1080"
     inkscape:window-maximized="1"
     inkscape:current-layer="svg1" />
  <defs
     id="defs1" />
  <rect
     style="fill:#ffffff;stroke:none;stroke-width:37.7953"
     id="rect1"
     width="639"
     height="640"
     x="0"
     y="0" />
  <g
     id="two-0"
     transform="matrix(1 0 0 1 0 0)"
     opacity="1">
    <g
       id="two-21"
       transform="matrix(1 0 0 1 0 0)"
       opacity="1">
      <path
         transform="matrix(1 0 0 1 0 0)"
         id="two-1"
         d="M 0 0 L 0 640 "
         fill="#fff"
         stroke="#000"
         stroke-width="1"
         stroke-opacity="1"
         fill-opacity="1"
         visibility="visible"
         stroke-linecap="butt"
         stroke-linejoin="miter"
         stroke-miterlimit="4" />
      <path
         transform="matrix(1 0 0 1 0 0)"
         id="two-2"
         d="M 71 0 L 71 640 "
         fill="#fff"
         stroke="#000"
         stroke-width="1"
         stroke-opacity="1"
         fill-opacity="1"
         visibility="visible"
         stroke-linecap="butt"
         stroke-linejoin="miter"
         stroke-miterlimit="4" />
      <path
         transform="matrix(1 0 0 1 0 0)"
         id="two-3"
         d="M 142 0 L 142 640 "
         fill="#fff"
         stroke="#000"
         stroke-width="1"
         stroke-opacity="1"
         fill-opacity="1"
         visibility="visible"
         stroke-linecap="butt"
         stroke-linejoin="miter"
         stroke-miterlimit="4" />
      <path
         transform="matrix(1 0 0 1 0 0)"
         id="two-4"
         d="M 213 0 L 213 640 "
         fill="#fff"
         stroke="#000"
         stroke-width="1"
         stroke-opacity="1"
         fill-opacity="1"
         visibility="visible"
         stroke-linecap="butt"
         stroke-linejoin="miter"
         stroke-miterlimit="4" />
      <path
         transform="matrix(1 0 0 1 0 0)"
         id="two-5"
         d="M 284 0 L 284 640 "
         fill="#fff"
         stroke="#000"
         stroke-width="1"
         stroke-opacity="1"
         fill-opacity="1"
         visibility="visible"
         stroke-linecap="butt"
         stroke-linejoin="miter"
         stroke-miterlimit="4" />
      <path
         transform="matrix(1 0 0 1 0 0)"
         id="two-6"
         d="M 355 0 L 355 640 "
         fill="#fff"
         stroke="#000"
         stroke-width="1"
         stroke-opacity="1"
         fill-opacity="1"
         visibility="visible"
         stroke-linecap="butt"
         stroke-linejoin="miter"
         stroke-miterlimit="4" />
      <path
         transform="matrix(1 0 0 1 0 0)"
         id="two-7"
         d="M 426 0 L 426 640 "
         fill="#fff"
         stroke="#000"
         stroke-width="1"
         stroke-opacity="1"
         fill-opacity="1"
         visibility="visible"
         stroke-linecap="butt"
         stroke-linejoin="miter"
         stroke-miterlimit="4" />
      <path
         transform="matrix(1 0 0 1 0 0)"
         id="two-8"
         d="M 497 0 L 497 640 "
         fill="#fff"
         stroke="#000"
         stroke-width="1"
         stroke-opacity="1"
         fill-opacity="1"
         visibility="visible"
         stroke-linecap="butt"
         stroke-linejoin="miter"
         stroke-miterlimit="4" />
      <path
         transform="matrix(1 0 0 1 0 0)"
         id="two-9"
         d="M 568 0 L 568 640 "
         fill="#fff"
         stroke="#000"
         stroke-width="1"
         stroke-opacity="1"
         fill-opacity="1"
         visibility="visible"
         stroke-linecap="butt"
         stroke-linejoin="miter"
         stroke-miterlimit="4" />
      <path
         transform="matrix(1 0 0 1 0 0)"
         id="two-10"
         d="M 639 0 L 639 640 "
         fill="#fff"
         stroke="#000"
         stroke-width="1"
         stroke-opacity="1"
         fill-opacity="1"
         visibility="visible"
         stroke-linecap="butt"
         stroke-linejoin="miter"
         stroke-miterlimit="4" />
      <path
         transform="matrix(1 0 0 1 0 0)"
         id="two-11"
         d="M 0 0 L 640 0 "
         fill="#fff"
         stroke="#000"
         stroke-width="1"
         stroke-opacity="1"
         fill-opacity="1"
         visibility="visible"
         stroke-linecap="butt"
         stroke-linejoin="miter"
         stroke-miterlimit="4" />
      <path
         transform="matrix(1 0 0 1 0 0)"
         id="two-12"
         d="M 0 71 L 640 71 "
         fill="#fff"
         stroke="#000"
         stroke-width="1"
         stroke-opacity="1"
         fill-opacity="1"
         visibility="visible"
         stroke-linecap="butt"
         stroke-linejoin="miter"
         stroke-miterlimit="4" />
      <path
         transform="matrix(1 0 0 1 0 0)"
         id="two-13"
         d="M 0 142 L 640 142 "
         fill="#fff"
         stroke="#000"
         stroke-width="1"
         stroke-opacity="1"
         fill-opacity="1"
         visibility="visible"
         stroke-linecap="butt"
         stroke-linejoin="miter"
         stroke-miterlimit="4" />
      <path
         transform="matrix(1 0 0 1 0 0)"
         id="two-14"
         d="M 0 213 L 640 213 "
         fill="#fff"
         stroke="#000"
         stroke-width="1"
         stroke-opacity="1"
         fill-opacity="1"
         visibility="visible"
         stroke-linecap="butt"
         stroke-linejoin="miter"
         stroke-miterlimit="4" />
      <path
         transform="matrix(1 0 0 1 0 0)"
         id="two-15"
         d="M 0 284 L 640 284 "
         fill="#fff"
         stroke="#000"
         stroke-width="1"
         stroke-opacity="1"
         fill-opacity="1"
         visibility="visible"
         stroke-linecap="butt"
         stroke-linejoin="miter"
         stroke-miterlimit="4" />
      <path
         transform="matrix(1 0 0 1 0 0)"
         id="two-16"
         d="M 0 355 L 640 355 "
         fill="#fff"
         stroke="#000"
         stroke-width="1"
         stroke-opacity="1"
         fill-opacity="1"
         visibility="visible"
         stroke-linecap="butt"
         stroke-linejoin="miter"
         stroke-miterlimit="4" />
      <path
         transform="matrix(1 0 0 1 0 0)"
         id="two-17"
         d="M 0 426 L 640 426 "
         fill="#fff"
         stroke="#000"
         stroke-width="1"
         stroke-opacity="1"
         fill-opacity="1"
         visibility="visible"
         stroke-linecap="butt"
         stroke-linejoin="miter"
         stroke-miterlimit="4" />
      <path
         transform="matrix(1 0 0 1 0 0)"
         id="two-18"
         d="M 0 497 L 640 497 "
         fill="#fff"
         stroke="#000"
         stroke-width="1"
         stroke-opacity="1"
         fill-opacity="1"
         visibility="visible"
         stroke-linecap="butt"
         stroke-linejoin="miter"
         stroke-miterlimit="4" />
      <path
         transform="matrix(1 0 0 1 0 0)"
         id="two-19"
         d="M 0 568 L 640 568 "
         fill="#fff"
         stroke="#000"
         stroke-width="1"
         stroke-opacity="1"
         fill-opacity="1"
         visibility="visible"
         stroke-linecap="butt"
         stroke-linejoin="miter"
         stroke-miterlimit="4" />
      <path
         transform="matrix(1 0 0 1 0 0)"
         id="two-20"
         d="M 0 639 L 640 639 "
         fill="#fff"
         stroke="#000"
         stroke-width="1"
         stroke-opacity="1"
         fill-opacity="1"
         visibility="visible"
         stroke-linecap="butt"
         stroke-linejoin="miter"
         stroke-miterlimit="4" />
    </g>
    <path
       transform="matrix(1 0 0 1 35.5 603.5)"
       id="two-22"
       d="M 27.669511 15.974999 L 0 31.95 L -27.669512 15.974999 L -27.669512 -15.975001 L -0.000001 -31.95 L 27.669511 -15.975001 L 27.669511 15.974999 Z "
       fill="rgba(0, 0, 0, 0.5)"
       stroke=""
       stroke-width="1"
       stroke-opacity="1"
       fill-opacity="1"
       visibility="visible"
       stroke-linecap="butt"
       stroke-linejoin="miter"
       stroke-miterlimit="4" />
    <path
       transform="matrix(1 0 0 1 603.5 35.5)"
       id="two-23"
       d="M 31.95 0 C 31.95 17.645497 17.645497 31.95 0 31.95 C -17.645498 31.95 -31.95 17.645497 -31.95 0 C -31.950001 -17.645498 -17.645498 -31.95 -0.000001 -31.95 C 17.645497 -31.950001 31.95 -17.645498 31.95 0 Z "
       fill="rgba(0, 0, 0, 0.5)"
       stroke=""
       stroke-width="1"
       stroke-opacity="1"
       fill-opacity="1"
       visibility="visible"
       stroke-linecap="butt"
       stroke-linejoin="miter"
       stroke-miterlimit="4" />
    <path
       transform="matrix(1 0 0 1 35.5 390.5)"
       id="two-24"
       d="M 23.057926 13.312499 L 0 26.625 L -23.057927 13.312499 L -23.057927 -13.312501 L -0.000001 -26.625 L 23.057926 -13.312501 L 23.057926 13.312499 Z "
       fill="rgb(0, 191, 168)"
       stroke="rgba(0, 191, 168, 0.33)"
       stroke-width="5"
       stroke-opacity="1"
       fill-opacity="1"
       visibility="visible"
       stroke-linecap="butt"
       stroke-linejoin="miter"
       stroke-miterlimit="4" />
    <path
       transform="matrix(1 0 0 1 106.5 461.5)"
       id="two-25"
       d="M 23.057926 13.312499 L 0 26.625 L -23.057927 13.312499 L -23.057927 -13.312501 L -0.000001 -26.625 L 23.057926 -13.312501 L 23.057926 13.312499 Z "
       fill="rgb(0, 191, 168)"
       stroke="rgba(0, 191, 168, 0.33)"
       stroke-width="5"
       stroke-opacity="1"
       fill-opacity="1"
       visibility="visible"
       stroke-linecap="butt"
       stroke-linejoin="miter"
       stroke-miterlimit="4" />
    <path
       transform="matrix(1 0 0 1 177.5 532.5)"
       id="two-26"
       d="M 23.057926 13.312499 L 0 26.625 L -23.057927 13.312499 L -23.057927 -13.312501 L -0.000001 -26.625 L 23.057926 -13.312501 L 23.057926 13.312499 Z "
       fill="rgb(0, 191, 168)"
       stroke="rgba(0, 191, 168, 0.33)"
       stroke-width="5"
       stroke-opacity="1"
       fill-opacity="1"
       visibility="visible"
       stroke-linecap="butt"
       stroke-linejoin="miter"
       stroke-miterlimit="4" />
    <path
       transform="matrix(1 0 0 1 248.5 603.5)"
       id="two-27"
       d="M 23.057926 13.312499 L 0 26.625 L -23.057927 13.312499 L -23.057927 -13.312501 L -0.000001 -26.625 L 23.057926 -13.312501 L 23.057926 13.312499 Z "
       fill="rgb(0, 191, 168)"
       stroke="rgba(0, 191, 168, 0.33)"
       stroke-width="5"
       stroke-opacity="1"
       fill-opacity="1"
       visibility="visible"
       stroke-linecap="butt"
       stroke-linejoin="miter"
       stroke-miterlimit="4" />
    <path
       transform="matrix(1 0 0 1 390.5 35.5)"
       id="two-28"
       d="M 26.625 0 C 26.625 14.704581 14.704581 26.625 0 26.625 C -14.704582 26.625 -26.625 14.704581 -26.625 0 C -26.625001 -14.704582 -14.704582 -26.625 -0.000001 -26.625 C 14.704581 -26.625001 26.625 -14.704582 26.625 0 Z "
       fill="rgb(191, 0, 168)"
       stroke="rgba(191, 0, 168, 0.33)"
       stroke-width="5"
       stroke-opacity="1"
       fill-opacity="1"
       visibility="visible"
       stroke-linecap="butt"
       stroke-linejoin="miter"
       stroke-miterlimit="4" />
    <path
       transform="matrix(1 0 0 1 461.5 106.5)"
       id="two-29"
       d="M 26.625 0 C 26.625 14.704581 14.704581 26.625 0 26.625 C -14.704582 26.625 -26.625 14.704581 -26.625 0 C -26.625001 -14.704582 -14.704582 -26.625 -0.000001 -26.625 C 14.704581 -26.625001 26.625 -14.704582 26.625 0 Z "
       fill="rgb(191, 0, 168)"
       stroke="rgba(191, 0, 168, 0.33)"
       stroke-width="5"
       stroke-opacity="1"
       fill-opacity="1"
       visibility="visible"
       stroke-linecap="butt"
       stroke-linejoin="miter"
       stroke-miterlimit="4" />
    <path
       transform="matrix(1 0 0 1 532.5 177.5)"
       id="two-30"
       d="M 26.625 0 C 26.625 14.704581 14.704581 26.625 0 26.625 C -14.704582 26.625 -26.625 14.704581 -26.625 0 C -26.625001 -14.704582 -14.704582 -26.625 -0.000001 -26.625 C 14.704581 -26.625001 26.625 -14.704582 26.625 0 Z "
       fill="rgb(191, 0, 168)"
       stroke="rgba(191, 0, 168, 0.33)"
       stroke-width="5"
       stroke-opacity="1"
       fill-opacity="1"
       visibility="visible"
       stroke-linecap="butt"
       stroke-linejoin="miter"
       stroke-miterlimit="4" />
    <path
       transform="matrix(1 0 0 1 603.5 248.5)"
       id="two-31"
       d="M 26.625 0 C 26.625 14.704581 14.704581 26.625 0 26.625 C -14.704582 26.625 -26.625 14.704581 -26.625 0 C -26.625001 -14.704582 -14.704582 -26.625 -0.000001 -26.625 C 14.704581 -26.625001 26.625 -14.704582 26.625 0 Z "
       fill="rgb(191, 0, 168)"
       stroke="rgba(191, 0, 168, 0.33)"
       stroke-width="5"
       stroke-opacity="1"
       fill-opacity="1"
       visibility="visible"
       stroke-linecap="butt"
       stroke-linejoin="miter"
       stroke-miterlimit="4" />
  </g>
</svg>
