<?xml version="1.0" encoding="UTF-8" standalone="no"?>
<!-- Created with Inkscape (http://www.inkscape.org/) -->

<svg
   width="100mm"
   height="100mm"
   viewBox="0 0 100 100"
   version="1.1"
   id="svg1"
   xml:space="preserve"
   inkscape:version="1.4.2 (1:1.4.2+202505120738+ebf0e940d0)"
   sodipodi:docname="yostos.svg"
   xmlns:inkscape="http://www.inkscape.org/namespaces/inkscape"
   xmlns:sodipodi="http://sodipodi.sourceforge.net/DTD/sodipodi-0.dtd"
   xmlns="http://www.w3.org/2000/svg"
   xmlns:svg="http://www.w3.org/2000/svg"><sodipodi:namedview
     id="namedview1"
     pagecolor="#505050"
     bordercolor="#eeeeee"
     borderopacity="1"
     inkscape:showpageshadow="0"
     inkscape:pageopacity="0"
     inkscape:pagecheckerboard="0"
     inkscape:deskcolor="#505050"
     inkscape:document-units="mm"
     inkscape:zoom="0.7886701"
     inkscape:cx="165.46843"
     inkscape:cy="289.09426"
     inkscape:window-width="1600"
     inkscape:window-height="828"
     inkscape:window-x="130"
     inkscape:window-y="1080"
     inkscape:window-maximized="1"
     inkscape:current-layer="layer1" /><defs
     id="defs1"><clipPath
       clipPathUnits="userSpaceOnUse"
       id="clipPath1"><rect
         style="overflow:hidden;fill:#ffffff;fill-opacity:1;stroke:none;stroke-width:4;stroke-opacity:1"
         id="rect1"
         width="100.53529"
         height="100.24912"
         x="-0.53529358"
         y="0"
         ry="31.25362" /></clipPath><clipPath
       clipPathUnits="userSpaceOnUse"
       id="clipPath2"><rect
         style="overflow:hidden;fill:#ffffff;fill-opacity:1;stroke:none;stroke-width:4;stroke-opacity:1"
         id="rect3"
         width="100.53529"
         height="100.24912"
         x="-0.53529358"
         y="0"
         ry="31.25362" /></clipPath></defs><g
     inkscape:label="Layer 1"
     inkscape:groupmode="layer"
     id="layer1"><path
       style="fill:#0d0fb3"
       d="M 5.674825,95.671706 C 2.6856946,93.188454 0.14317033,90.896445 0.02477105,90.578352 -0.09362823,90.260258 0.2732196,90.372186 0.83998844,90.827081 7.4195338,96.107889 11.924825,99.850626 11.924825,100.03573 c 0,0.65549 -1.303514,-0.254678 -6.25,-4.364024 z M 11.439038,84.078947 C 10.116376,66.659038 10.02854,66.007092 9.0437426,66.300383 7.490336,66.763016 -0.24262358,67.040358 0.78352073,66.596635 1.3813468,66.338125 3.1688781,66.10997 4.7558125,66.089624 8.4611819,66.042118 7.9908533,65.367847 3.4157889,64.168542 1.4191342,63.64514 0.05382316,63.130288 0.3817644,63.024427 c 0.32794124,-0.105862 2.6164974,0.408353 5.0856805,1.142699 2.4691831,0.734347 4.5381671,1.281368 4.5977431,1.215604 0.05958,-0.06576 3.447988,-6.592811 7.529805,-14.504548 5.327688,-10.326592 7.146363,-14.307169 6.446311,-14.109187 -0.536346,0.151684 -5.744197,1.359449 -11.573001,2.683921 -5.828804,1.324473 -11.0258149,2.538251 -11.5489127,2.697286 -0.52309783,0.159034 -0.95108696,0.09514 -0.95108696,-0.141985 0,-0.237126 5.63509396,-1.714698 12.52243066,-3.283494 7.725228,-1.75965 12.436127,-3.06986 12.297146,-3.420119 C 23.318735,31.60208 13.273348,9.7368421 13.041469,9.7368421 c -0.171189,0 -3.1209928,2.2307949 -6.5551195,4.9573219 -3.4341267,2.726527 -6.34631798,4.858106 -6.47153616,4.736842 -0.12521818,-0.121264 -0.12576725,-0.299436 -0.0012201,-0.395938 0.1245471,-0.0965 3.0084378,-2.38869 6.408646,-5.093751 L 12.604436,9.0230233 6.6939784,7.227717 C 3.4432266,6.2402985 0.56500367,5.2300807 0.29792725,4.9827885 0.03085084,4.7354963 2.1096551,5.227666 4.9174924,6.0764989 7.7253297,6.9253319 10.260657,7.6224747 10.551553,7.6257052 10.84245,7.6289358 9.3816177,5.9736842 7.3052598,3.9473684 5.2289019,1.9210526 3.7741906,0.26315789 4.072568,0.26315789 c 0.2983774,0 2.3645018,1.77631581 4.5913875,3.94736841 2.2268855,2.1710527 4.2078815,3.9473684 4.4022145,3.9473684 0.194332,0 1.621339,-1.7763157 3.171128,-3.9473684 1.549788,-2.1710526 2.939876,-3.94736841 3.089084,-3.94736841 0.37408,0 -0.12484,0.79300351 -2.919854,4.64093501 C 15.078124,6.7329229 14.076575,8.299715 14.180863,8.385853 14.325178,8.5050524 59.89492,4.2056232 60.746324,3.9924793 60.845432,3.9676683 60.400347,3.0592105 59.757246,1.9736842 L 58.587973,0 l 1.497622,1.7498114 1.497622,1.7498114 1.019367,-1.7498114 c 0.88775,-1.52388302 0.900327,-1.05487467 0.02717,1.0133465 -0.404645,0.9584751 0.442715,0.8364252 6.70021,-0.9650682 3.100553,-0.89262959 5.925197,-1.53005004 6.276987,-1.41648988 0.351789,0.11356017 -2.224298,0.99804548 -5.724638,1.96552298 -3.500341,0.9674774 -6.472802,1.9291352 -6.605469,2.1370173 -0.132668,0.2078821 8.078279,5.6496549 18.24655,12.0928279 10.16827,6.443173 18.371526,11.827428 18.229456,11.96501 C 99.610785,28.679561 91.1025,23.462993 80.845555,16.949603 70.58861,10.436214 62.052192,5.2606165 61.875737,5.4482755 61.360676,5.99604 56.856007,36.056163 57.23411,36.422326 c 0.188683,0.182725 9.774205,-0.797612 21.30116,-2.178527 11.526954,-1.380914 21.10572,-2.367794 21.286146,-2.193065 0.180424,0.174728 -0.01842,0.32817 -0.441881,0.340982 -2.389106,0.07228 -41.833956,5.094852 -42.109698,5.361887 -0.413097,0.400051 7.518749,36.767063 7.979958,36.587602 0.184712,-0.07187 7.979403,-8.656994 17.321534,-19.078047 9.342132,-10.421053 17.078232,-19.046053 17.191334,-19.166667 0.113102,-0.120614 0.200892,-0.0022 0.195088,0.263158 -0.0058,0.265351 -7.796606,9.127193 -17.312895,19.692983 l -17.302343,19.210526 2.41783,1.478827 c 1.329806,0.813355 6.158213,3.6939 10.729792,6.401212 l 8.311962,4.922386 2.588646,-8.506476 c 7.197341,-23.650983 10.522269,-34.224272 10.54853,-33.544383 0.01597,0.413361 -2.674944,9.650203 -5.979802,20.526316 -3.304857,10.876112 -6.128607,20.173264 -6.275,20.660336 -0.232399,0.773229 0.478247,0.690153 5.601223,-0.654797 3.227065,-0.847211 6.111957,-1.534575 6.41087,-1.527477 1.251246,0.02972 -1.442136,0.97374 -6.697253,2.347369 -5.125902,1.339854 -5.584488,1.562294 -5.31138,2.576315 0.164405,0.610415 0.902599,3.216663 1.640432,5.791661 0.737833,2.574998 1.137333,4.469733 0.887777,4.210526 -0.249556,-0.259209 -1.113585,-2.721289 -1.920065,-5.471289 -0.80648,-2.75 -1.53067,-5.063291 -1.609311,-5.140646 -0.07864,-0.07736 -3.417756,2.261168 -7.420255,5.196718 -4.002499,2.935551 -7.646383,5.464432 -8.097521,5.619734 -0.451138,0.15531 2.603663,-2.253721 6.788445,-5.353392 4.184783,-3.09967 7.608696,-5.859508 7.608696,-6.132972 0,-0.878384 -20.078059,-12.568023 -20.4457,-11.903683 -0.185352,0.334938 -1.036801,5.760294 -1.892109,12.056347 -0.855307,6.296052 -1.697157,11.44737 -1.870777,11.44737 -0.173621,0 0.445537,-5.42622 1.375906,-12.058263 l 1.691578,-12.058262 -4.375101,2.120767 C 57.64362,79.433824 46.678979,84.877172 35.684056,90.363731 24.689133,95.85029 15.477752,100.26295 15.214319,100.16965 14.950886,100.07634 25.697885,94.552632 39.096538,87.894737 52.495191,81.236842 63.367813,75.700886 63.257921,75.592611 63.148028,75.484337 51.30856,73.33934 36.947992,70.825951 l -26.110124,-4.569797 0.03076,2.135081 c 0.01692,1.174294 0.57464,8.82587 1.23938,17.003502 0.664741,8.177632 1.06265,14.868423 0.884243,14.868423 -0.178407,0 -0.877353,-7.282897 -1.553213,-16.184213 z M 61.599798,72.763158 C 60.399823,71.532895 51.769201,62.890248 42.420639,53.557277 L 25.423254,36.588238 18.399053,50.540395 c -3.86331,7.673686 -7.083881,14.231258 -7.156823,14.572383 -0.100767,0.471251 46.527457,9.287345 52.018577,9.835259 0.286421,0.02858 -0.461033,-0.954616 -1.661009,-2.184879 z M 60.154942,55.660443 56.218303,37.717464 52.685694,37.422786 C 50.74276,37.260714 44.017216,36.974081 37.740042,36.785825 l -11.413043,-0.342284 7.336956,7.324562 c 4.035326,4.028509 12.460046,12.45951 18.721599,18.735558 6.261553,6.276049 11.456954,11.340969 11.545335,11.255379 0.08838,-0.08559 -1.610795,-8.229959 -3.775947,-18.098597 z M 58.590128,21.416348 C 60.337071,10.193032 60.828249,5.8327895 60.393075,5.4113584 59.808526,4.8452682 14.925745,8.7605122 14.225461,9.4386818 13.960853,9.6949338 24.714475,34.269849 25.457068,35.105923 25.637366,35.308918 33.436995,28.736549 42.789576,20.50066 52.142157,12.264771 59.967937,5.535549 60.180199,5.546834 60.39246,5.558119 59.159645,6.80154 57.440609,8.3099919 55.721573,9.8184437 48.096371,16.5 40.495716,23.157895 32.895061,29.81579 26.658882,35.41231 26.63754,35.594606 c -0.03319,0.28354 25.428457,1.444718 28.479186,1.298792 0.983931,-0.04706 1.270282,-1.323008 3.473402,-15.47705 z m 35.24668,-9.86286 C 90.634842,5.3438064 88.135486,0.26315789 88.282683,0.26315789 c 0.358017,0 11.801297,22.16867111 11.562609,22.39982911 -0.102701,0.09946 -2.806519,-4.899818 -6.008484,-11.109499 z"
       id="path2"
       clip-path="url(#clipPath2)" /><path
       style="fill:#080811"
       d="m -0.03169666,95.758412 c 0,-3.461106 0.15738827,-4.414311 0.67934783,-4.114395 1.03922683,0.597136 10.19021683,8.133035 10.19021683,8.391713 0,0.12508 -2.4456517,0.22743 -5.4347821,0.22743 H -0.03169666 Z M 6.0824337,95.062935 -0.03169666,90.070871 V 78.588067 c 0,-10.572731 0.07537868,-11.485383 0.95108696,-11.515342 0.5230978,-0.0179 2.7323082,-0.205416 4.9093564,-0.41671 3.7096752,-0.360043 3.9728014,-0.316682 4.1896553,0.690433 0.39258,1.82322 2.564779,31.173149 2.365662,31.963918 -0.121897,0.484099 -2.326723,-1.002 -6.3016303,-4.247431 z m 7.2343873,4.542328 c -0.216136,-0.695924 -2.510248,-30.418081 -2.49051,-32.26666 0.01115,-1.044586 0.924872,-0.922601 26.121681,3.487348 14.360568,2.513389 26.199819,4.658386 26.309447,4.76666 0.21121,0.208604 -48.739365,24.670549 -49.36801,24.670549 -0.202556,0 -0.46023,-0.296055 -0.572608,-0.657897 z M 23.337868,96.535311 C 27.373194,94.492717 38.268919,89.055723 47.55059,84.453102 L 64.426355,76.084701 62.76031,88.042351 61.094266,100 l -22.546677,0.12456 -22.546677,0.12456 z m 38.586957,2.557059 c 0,-1.879347 2.752119,-21.140787 3.154567,-22.078087 0.316469,-0.737053 2.015609,0.09931 10.432389,5.135104 5.529892,3.308557 10.117468,6.197351 10.194614,6.419541 0.07715,0.222191 -3.044333,2.743751 -6.93662,5.603467 -3.892287,2.859717 -6.982675,5.290721 -6.867528,5.402232 0.115147,0.111511 3.456598,-2.178874 7.425445,-5.089744 3.968848,-2.910871 7.278077,-5.229201 7.353842,-5.151845 0.07576,0.07735 0.867792,2.568223 1.760062,5.535262 l 1.622308,5.39461 -14.06954,-0.0282 c -13.956728,-0.028 -14.069539,-0.0372 -14.069539,-1.14231 z m 28.53659,0.512893 c -0.721012,-2.03023 -3.020546,-10.543491 -2.883581,-10.675501 0.08921,-0.08599 2.485578,-0.780146 5.325252,-1.542579 2.839674,-0.762432 5.591032,-1.508992 6.11413,-1.659021 0.874073,-0.250692 0.951087,0.326746 0.951087,7.131108 v 7.40389 h -4.636622 c -3.222369,0 -4.707888,-0.20067 -4.870266,-0.657897 z M 75.937115,81.636989 65.221144,75.277851 66.756857,73.691557 C 67.6015,72.819096 74.963368,64.644737 83.116564,55.526316 91.269761,46.407895 98.379085,38.497419 98.915062,37.947482 99.852974,36.98514 99.891449,37.84666 99.939701,60.89088 l 0.05013,23.943286 -6.124901,1.586911 c -3.368693,0.8728 -6.187728,1.540055 -6.264522,1.482787 -0.0768,-0.05727 2.556633,-8.951685 5.852061,-19.765373 3.295428,-10.813688 5.921508,-19.86514 5.835734,-20.114338 -0.08577,-0.249198 -2.696357,7.909212 -5.801293,18.129801 -3.104936,10.220588 -5.912749,19.316227 -6.239585,20.21253 l -0.594247,1.629642 z M 36.924825,70.314539 C 19.430207,67.209696 11.152353,65.533097 11.24223,65.112778 c 0.07294,-0.341125 3.293513,-6.898697 7.156823,-14.572383 L 25.423254,36.588238 42.420639,53.557277 C 63.482511,74.584024 63.899216,75.011739 63.260807,74.948037 62.974386,74.919458 51.123194,72.834384 36.924825,70.314539 Z M 60.926354,56.273057 c -2.19318,-10.009354 -3.838613,-18.343109 -3.656517,-18.519454 0.267209,-0.258772 39.611456,-5.279329 42.019118,-5.361887 0.412897,-0.01416 0.679348,0.667317 0.679348,1.737499 0,1.555881 -2.000454,3.990568 -17.189728,20.921052 -9.454351,10.538143 -17.341579,19.219065 -17.527174,19.290938 -0.185595,0.07187 -2.131866,-8.058793 -4.325047,-18.068148 z m -8.5408,6.230604 C 46.124001,56.227613 37.699281,47.796612 33.663955,43.768103 l -7.336956,-7.324562 11.413043,0.342284 c 6.277174,0.188256 13.002718,0.474889 14.945652,0.636961 l 3.532609,0.294678 3.936639,17.942979 c 2.165152,9.868638 3.864328,18.013007 3.775947,18.098597 -0.08838,0.08559 -5.283782,-4.97933 -11.545335,-11.255379 z m -52.41725066,2.557724 c 0,-1.904792 -0.02459879,-1.89965 3.84157536,-0.803075 4.0914146,1.160461 4.5457348,1.792822 1.2942942,1.801508 -1.4796196,0.004 -3.2404892,0.149997 -3.9130435,0.324543 -1.07664393,0.279418 -1.22282606,0.121264 -1.22282606,-1.322976 z M 4.7237381,64.026544 -0.03169666,62.634285 V 52.521639 42.408994 L 2.0063468,41.879244 C 3.1272707,41.587882 8.3242816,40.381949 13.55526,39.199393 18.786238,38.016838 23.503216,36.924709 24.037433,36.772439 24.731127,36.574713 22.868454,40.64424 17.520289,51.010951 13.401643,58.994402 9.9074914,65.502126 9.7555074,65.47256 9.6035234,65.442994 7.3392272,64.792287 4.7237381,64.026544 Z M -0.03169666,30.586473 V 19.857156 L 6.3530212,14.796999 c 3.5115949,-2.783086 6.5225358,-5.0601569 6.6909798,-5.0601569 0.33339,0 12.039455,25.8637429 11.799293,26.0697249 -0.249957,0.214381 -23.5291999,5.509223 -24.22179096,5.509223 -0.48725273,0 -0.6531997,-2.725809 -0.6531997,-10.729317 z m 40.35326066,5.8489 C 32.77401,36.155248 26.616199,35.776903 26.63754,35.594606 26.658882,35.41231 32.895061,29.81579 40.495716,23.157895 48.096371,16.5 55.721573,9.8184437 57.440609,8.3099919 59.159645,6.80154 60.39246,5.558119 60.180199,5.546834 59.967937,5.535549 52.142157,12.264771 42.789576,20.50066 33.436995,28.736549 25.637366,35.308918 25.457068,35.105923 24.714475,34.269849 13.960853,9.6949338 14.225461,9.4386818 14.925745,8.7605122 59.808526,4.8452682 60.393075,5.4113584 c 0.435174,0.4214311 -0.056,4.7816736 -1.802947,16.0049896 -2.20312,14.154042 -2.489471,15.429986 -3.473402,15.47705 -0.589785,0.02821 -7.247608,-0.1779 -14.795162,-0.458025 z m 16.748187,-1.040636 c 0.0723,-2.363231 4.604363,-29.9095052 4.938891,-30.0190322 0.189063,-0.061901 8.797085,5.2164002 19.128936,11.7295582 17.081667,10.768215 18.787249,11.973359 18.807955,13.289474 0.01411,0.896836 -0.265202,1.447368 -0.734319,1.447368 -0.416399,0 -9.586841,1.06579 -20.37876,2.368421 -23.0918,2.787281 -21.809614,2.717511 -21.762703,1.184211 z M 81.68836,16.684923 C 71.783848,10.402952 63.63254,5.0263158 63.574342,4.7368421 c -0.0582,-0.2894737 2.909624,-1.40768 6.59516,-2.484903 5.821241,-1.70145523 7.432004,-1.96056918 12.269263,-1.97368419 l 5.568287,-0.015097 6.008335,11.62799711 c 5.293114,10.243824 5.988863,11.901044 5.844756,13.921765 l -0.163579,2.293767 z M 94.121467,11.052632 88.558684,0.26315789 h 5.70481 5.704809 V 11.052632 c 0,5.93421 -0.06391,10.789473 -0.142027,10.789473 -0.07811,0 -2.645279,-4.855263 -5.704809,-10.789473 z M -0.03169666,11.8972 V 5.1101888 L 5.8106946,6.9210923 C 9.0240098,7.9170892 11.873485,8.7923906 12.142862,8.8662065 12.606247,8.9931852 0.87674345,18.684211 0.25967038,18.684211 c -0.16025187,0 -0.29136704,-3.054155 -0.29136704,-6.787011 z M 14.098738,8.4009184 c 0,-0.141337 1.272917,-2.0301528 2.828704,-4.1973684 L 19.756146,0.26315789 H 39.15668 58.557215 l 1.124881,1.71052631 c 1.041278,1.5833981 1.055343,1.7365731 0.189239,2.0609895 C 59.356733,4.2274284 49.519933,5.2386222 38.011781,6.2817709 26.503629,7.3249197 16.415314,8.2862903 15.593303,8.4181499 14.771292,8.5500096 14.098738,8.5422554 14.098738,8.4009184 Z M 5.674825,6.3306994 0.24004247,4.6803348 0.07292408,2.4717463 C -0.09238511,0.28706763 -0.07457656,0.26315789 1.7179347,0.26315789 c 1.5217269,0 2.4171216,0.59041176 5.5873251,3.68421051 2.0763579,2.0263158 4.0197612,3.6842106 4.3186742,3.6842106 0.298913,0 -1.15536,-1.6578948 -3.2317177,-3.6842106 L 4.6170202,0.26315789 h 7.2190368 7.219037 L 16.284261,4.1447368 C 13.038169,8.6920917 13.284167,8.6414063 5.674825,6.3306994 Z M 60.339914,1.9040193 59.133418,0.26315789 H 61.0726 c 2.127453,0 2.241097,0.19484952 1.187238,2.03559831 l -0.713427,1.2461246 z m 2.128389,1.2786402 c 0,-0.1311162 0.283822,-0.8416426 0.630715,-1.5789474 0.613811,-1.30462653 0.770391,-1.33966391 5.842391,-1.30733501 l 5.211677,0.0332192 -5.163044,1.53868581 C 63.954493,3.368972 62.468303,3.6684956 62.468303,3.1826595 Z"
       id="path1"
       clip-path="url(#clipPath1)" /></g></svg>
