<?xml version="1.0" encoding="UTF-8" standalone="no"?>
<!-- Created with Inkscape (http://www.inkscape.org/) -->

<svg
   width="100mm"
   height="100mm"
   viewBox="0 0 100 100"
   version="1.1"
   id="svg1"
   xml:space="preserve"
   inkscape:version="1.4.2 (1:1.4.2+202505120738+ebf0e940d0)"
   sodipodi:docname="yostos.svg"
   xmlns:inkscape="http://www.inkscape.org/namespaces/inkscape"
   xmlns:sodipodi="http://sodipodi.sourceforge.net/DTD/sodipodi-0.dtd"
   xmlns="http://www.w3.org/2000/svg"
   xmlns:svg="http://www.w3.org/2000/svg"><sodipodi:namedview
     id="namedview1"
     pagecolor="#505050"
     bordercolor="#eeeeee"
     borderopacity="1"
     inkscape:showpageshadow="0"
     inkscape:pageopacity="0"
     inkscape:pagecheckerboard="0"
     inkscape:deskcolor="#505050"
     inkscape:document-units="mm"
     inkscape:zoom="1.5773402"
     inkscape:cx="181.00091"
     inkscape:cy="180.04994"
     inkscape:window-width="1600"
     inkscape:window-height="828"
     inkscape:window-x="130"
     inkscape:window-y="1080"
     inkscape:window-maximized="1"
     inkscape:current-layer="layer1" /><defs
     id="defs1" /><g
     inkscape:label="Layer 1"
     inkscape:groupmode="layer"
     id="layer1"><g
       id="g1"
       transform="translate(-0.03169666,0.26315789)"><path
         style="fill:#0d0fb3"
         d="M 5.7065217,95.408548 C 2.7173913,92.925296 0.17486699,90.633287 0.05646771,90.315194 -0.06193157,89.9971 0.30491626,90.109028 0.8716851,90.563923 c 6.5795454,5.280808 11.0848369,9.023545 11.0848369,9.208645 0,0.655492 -1.303514,-0.254674 -6.2500003,-4.36402 z M 11.470735,83.815789 C 10.148073,66.39588 10.060237,65.743934 9.0754393,66.037225 7.5220327,66.499858 -0.21092692,66.7772 0.81521739,66.333477 1.4130435,66.074967 3.2005748,65.846812 4.7875092,65.826466 8.4928786,65.77896 8.02255,65.104689 3.4474856,63.905384 1.4508309,63.381982 0.08551982,62.86713 0.41346106,62.761269 0.7414023,62.655407 3.0299585,63.169622 5.4991416,63.903968 c 2.4691831,0.734347 4.5381674,1.281368 4.5977434,1.215604 0.05958,-0.06576 3.447988,-6.592811 7.529805,-14.504548 C 22.954378,40.288432 24.773053,36.307855 24.073001,36.505837 23.536655,36.657521 18.328804,37.865286 12.5,39.189758 6.6711957,40.514231 1.4741848,41.728009 0.95108696,41.887044 0.42798913,42.046078 0,41.982185 0,41.745059 0,41.507933 5.635094,40.030361 12.522431,38.461565 20.247659,36.701915 24.958558,35.391705 24.819577,35.041446 23.350432,31.338922 13.305045,9.4736842 13.073166,9.4736842 c -0.171189,0 -3.1209931,2.2307948 -6.5551198,4.9573218 C 3.0839195,17.157533 0.17172818,19.289112 0.04651,19.167848 -0.07870818,19.046584 -0.07925725,18.868412 0.04528986,18.77191 0.16983696,18.675409 3.0537277,16.38322 6.4539359,13.678159 L 12.636133,8.7598654 6.7256751,6.9645591 C 3.4749233,5.9771406 0.59670033,4.9669228 0.32962391,4.7196306 0.0625475,4.4723384 2.1413518,4.9645081 4.9491891,5.813341 7.7570264,6.662174 10.292354,7.3593168 10.58325,7.3625473 10.874147,7.3657779 9.4133144,5.7105263 7.3369565,3.6842105 5.2605986,1.6578947 3.8058873,0 4.1042647,0 c 0.2983774,0 2.3645018,1.7763158 4.5913875,3.9473684 2.2268858,2.1710527 4.2078818,3.9473684 4.4022148,3.9473684 0.194332,0 1.621339,-1.7763157 3.171128,-3.9473684 C 17.818783,1.7763158 19.208871,0 19.358079,0 19.732159,0 19.233239,0.79300348 16.438225,4.640935 15.109821,6.469765 14.108272,8.0365571 14.21256,8.1226951 14.356875,8.2418945 59.926617,3.9424653 60.778021,3.7293214 60.877129,3.7045104 60.432044,2.7960526 59.788943,1.7105263 L 58.61967,-0.26315789 60.117292,1.4866535 61.614914,3.2364649 62.634281,1.4866535 C 63.522031,-0.03722951 63.534608,0.43177884 62.661455,2.5 62.25681,3.4584751 63.10417,3.3364252 69.361665,1.5349318 72.462218,0.64230222 75.286862,0.00488177 75.638652,0.11844193 75.990441,0.2320021 73.414354,1.1164874 69.914014,2.0839649 66.413673,3.0514423 63.441212,4.0131001 63.308545,4.2209822 63.175877,4.4288643 71.386824,9.8706367 81.555095,16.31381 91.723365,22.756983 99.926621,28.141238 99.784551,28.27882 99.642482,28.416403 91.134197,23.199835 80.877252,16.686445 70.620307,10.173056 62.083889,4.9974586 61.907434,5.1851176 61.392373,5.7328821 56.887704,35.793005 57.265807,36.159168 c 0.188683,0.182725 9.774205,-0.797612 21.30116,-2.178527 11.526954,-1.380914 21.10572,-2.367794 21.286146,-2.193065 0.180427,0.174728 -0.01842,0.32817 -0.441881,0.340982 -2.389106,0.07228 -41.833956,5.094852 -42.109698,5.361887 -0.413097,0.400051 7.518749,36.767063 7.979958,36.587602 C 65.466204,74.006174 73.260895,65.421053 82.603026,55 91.945158,44.578947 99.681258,35.953947 99.79436,35.833333 c 0.113102,-0.120614 0.200892,-0.0022 0.195088,0.263158 -0.0058,0.265351 -7.796606,9.127193 -17.312895,19.692983 L 65.37421,75 l 2.41783,1.478827 c 1.329806,0.813355 6.158213,3.6939 10.729792,6.401212 l 8.311962,4.922386 2.588646,-8.506476 c 7.197341,-23.650983 10.522269,-34.224272 10.54853,-33.544383 0.01597,0.413361 -2.674944,9.650203 -5.979802,20.526316 -3.304857,10.876112 -6.128607,20.173264 -6.275,20.660336 -0.232399,0.773229 0.478247,0.690153 5.601223,-0.654797 3.227065,-0.847211 6.111957,-1.534575 6.41087,-1.527477 1.251249,0.02972 -1.442136,0.97374 -6.697253,2.347369 -5.125902,1.339854 -5.584488,1.562294 -5.31138,2.576315 0.164405,0.610415 0.902599,3.216663 1.640432,5.791661 0.737833,2.574998 1.137333,4.469735 0.887777,4.210526 -0.249556,-0.259209 -1.113585,-2.721289 -1.920065,-5.471289 -0.80648,-2.75 -1.53067,-5.063291 -1.609311,-5.140646 -0.07864,-0.07736 -3.417756,2.261168 -7.420255,5.196718 -4.002499,2.935551 -7.646383,5.464432 -8.097521,5.619737 -0.451138,0.155305 2.603663,-2.253724 6.788445,-5.353395 4.184783,-3.09967 7.608696,-5.859508 7.608696,-6.132972 0,-0.878384 -20.078059,-12.568023 -20.4457,-11.903683 -0.185352,0.334938 -1.036801,5.760294 -1.892109,12.056347 C 62.40471,94.848684 61.56286,100 61.38924,100 c -0.173621,0 0.445537,-5.426218 1.375906,-12.058261 l 1.691578,-12.058262 -4.375101,2.120767 C 57.675317,79.170666 46.710676,84.614014 35.715753,90.100573 24.72083,95.587132 15.509449,99.999794 15.246016,99.906489 14.982583,99.813183 25.729582,94.289474 39.128235,87.631579 52.526888,80.973684 63.39951,75.437728 63.289618,75.329453 63.179725,75.221179 51.340257,73.076182 36.979689,70.562793 l -26.110124,-4.569797 0.03076,2.135081 c 0.01692,1.174294 0.57464,8.82587 1.23938,17.003502 C 12.804446,93.309211 13.202355,100 13.023948,100 12.845541,100 12.146595,92.717105 11.470735,83.815789 Z M 61.631495,72.5 C 60.43152,71.269737 51.800898,62.62709 42.452336,53.294119 L 25.454951,36.32508 18.43075,50.277237 C 14.56744,57.950923 11.346869,64.508495 11.273927,64.84962 11.17316,65.320871 57.801384,74.136965 63.292504,74.684879 63.578925,74.713459 62.831471,73.730263 61.631495,72.5 Z M 60.186639,55.397285 56.25,37.454306 52.717391,37.159628 C 50.774457,36.997556 44.048913,36.710923 37.771739,36.522667 l -11.413043,-0.342284 7.336956,7.324562 c 4.035326,4.028509 12.460046,12.45951 18.721599,18.735558 6.261553,6.276049 11.456954,11.340969 11.545335,11.255379 0.08838,-0.08559 -1.610795,-8.229959 -3.775947,-18.098597 z M 58.621825,21.15319 C 60.368768,9.9298743 60.859946,5.5696316 60.424772,5.1482005 59.840223,4.5821103 14.957442,8.4973543 14.257158,9.1755239 13.99255,9.4317759 24.746172,34.006691 25.488765,34.842765 25.669063,35.04576 33.468692,28.473391 42.821273,20.237502 52.173854,12.001613 59.999634,5.2723911 60.211896,5.2836761 c 0.212261,0.011285 -1.020554,1.254706 -2.73959,2.7631579 -1.719036,1.5084518 -9.344238,8.190008 -16.944893,14.847903 -7.600655,6.657895 -13.836834,12.254415 -13.858176,12.436711 -0.03319,0.28354 25.428457,1.444718 28.479186,1.298792 0.983931,-0.04706 1.270282,-1.323008 3.473402,-15.47705 z m 35.24668,-9.86286 C 90.666539,5.0806485 88.167183,0 88.31438,0 c 0.358017,0 11.8013,22.168671 11.562609,22.399829 -0.102701,0.09946 -2.806519,-4.899818 -6.008484,-11.109499 z"
         id="path2" /><path
         style="fill:#080811"
         d="M 0,95.495254 C 0,92.034148 0.15738827,91.080943 0.67934783,91.380859 1.7185747,91.977995 10.869565,99.513894 10.869565,99.772568 10.869565,99.897656 8.423913,100 5.4347826,100 H 0 Z M 6.1141304,94.799777 0,89.807713 V 78.324909 C 0,67.752178 0.07537868,66.839526 0.95108696,66.809567 1.4741848,66.79167 3.6833952,66.604151 5.8604434,66.392857 c 3.7096752,-0.360043 3.9728014,-0.316682 4.1896556,0.690433 0.39258,1.82322 2.564779,31.173149 2.365662,31.963918 -0.121897,0.484099 -2.326723,-1.002 -6.3016306,-4.247431 z m 7.2343876,4.542328 c -0.216136,-0.695924 -2.510248,-30.418081 -2.49051,-32.26666 0.01115,-1.044586 0.924872,-0.922601 26.121681,3.487348 14.360568,2.513389 26.199819,4.658386 26.309447,4.76666 C 63.500346,75.538057 14.549771,100 13.921126,100 c -0.202556,0 -0.46023,-0.296053 -0.572608,-0.657895 z m 10.021047,-3.069952 c 4.035326,-2.042594 14.931051,-7.479588 24.212722,-12.082209 l 16.875765,-8.368401 -1.666045,11.95765 -1.666044,11.957649 -22.546677,0.124559 -22.546677,0.124559 z m 38.586957,2.557059 c 0,-1.879347 2.752119,-21.140787 3.154567,-22.078087 0.316469,-0.737053 2.015609,0.09931 10.432389,5.135104 5.529892,3.308557 10.117468,6.197351 10.194614,6.419541 0.07715,0.222191 -3.044333,2.743751 -6.93662,5.603467 -3.892287,2.859717 -6.982675,5.290721 -6.867528,5.402232 0.115147,0.111511 3.456598,-2.178874 7.425445,-5.089744 3.968848,-2.910871 7.278077,-5.229201 7.353842,-5.151845 0.07576,0.07735 0.867792,2.568223 1.760062,5.535262 l 1.622308,5.394615 -14.06954,-0.02823 c -13.956728,-0.028 -14.069539,-0.03716 -14.069539,-1.142315 z m 28.53659,0.512893 C 89.7721,97.311875 87.472566,88.798614 87.609531,88.666604 c 0.08921,-0.08599 2.485578,-0.780146 5.325252,-1.542579 2.839674,-0.762432 5.591032,-1.508992 6.11413,-1.659021 C 99.922986,85.214312 100,85.79175 100,92.596112 V 100 h -4.636622 c -3.222369,0 -4.707888,-0.20067 -4.870266,-0.657895 z m -14.5243,-17.968274 -10.715971,-6.359138 1.535713,-1.586294 c 0.844643,-0.872461 8.206511,-9.04682 16.359707,-18.165241 8.153197,-9.118421 15.262521,-17.028897 15.798498,-17.578834 0.937912,-0.962342 0.976387,-0.100822 1.024639,22.943398 l 0.05013,23.943286 -6.124899,1.586911 c -3.368693,0.8728 -6.187728,1.540055 -6.264522,1.482787 -0.0768,-0.05727 2.556633,-8.951685 5.852061,-19.765373 3.295428,-10.813688 5.921508,-19.86514 5.835734,-20.114338 -0.08577,-0.249198 -2.696357,7.909212 -5.801293,18.129801 -3.104936,10.220588 -5.912749,19.316227 -6.239585,20.21253 l -0.594247,1.629642 z M 36.956522,70.051381 C 19.461904,66.946538 11.18405,65.269939 11.273927,64.84962 11.346869,64.508495 14.56744,57.950923 18.43075,50.277237 L 25.454951,36.32508 42.452336,53.294119 C 63.514208,74.320866 63.930913,74.748581 63.292504,74.684879 63.006083,74.6563 51.154891,72.571226 36.956522,70.051381 Z M 60.958051,56.009899 C 58.764871,46.000545 57.119438,37.66679 57.301534,37.490445 57.568743,37.231673 96.91299,32.211116 99.320652,32.128558 99.733549,32.1144 100,32.795875 100,33.866057 100,35.421938 97.999546,37.856625 82.810272,54.787109 73.355921,65.325252 65.468693,74.006174 65.283098,74.078047 65.097503,74.14992 63.151232,66.019254 60.958051,56.009899 Z m -8.5408,6.230604 C 46.155698,55.964455 37.730978,47.533454 33.695652,43.504945 l -7.336956,-7.324562 11.413043,0.342284 c 6.277174,0.188256 13.002718,0.474889 14.945652,0.636961 L 56.25,37.454306 60.186639,55.397285 c 2.165152,9.868638 3.864328,18.013007 3.775947,18.098597 -0.08838,0.08559 -5.283782,-4.97933 -11.545335,-11.255379 z M 0,64.798227 C 0,62.893435 -0.02459879,62.898577 3.8415754,63.995152 7.93299,65.155613 8.3873102,65.787974 5.1358696,65.79666 3.65625,65.800613 1.8953804,65.946657 1.2228261,66.121203 0.14618213,66.400621 0,66.242467 0,64.798227 Z M 4.7554348,63.763386 0,62.371127 V 52.258481 42.145836 l 2.0380435,-0.52975 C 3.1589674,41.324724 8.3559783,40.118791 13.586957,38.936235 18.817935,37.75368 23.534913,36.661551 24.06913,36.509281 24.762824,36.311555 22.900151,40.381082 17.551986,50.747793 13.43334,58.731244 9.9391881,65.238968 9.7872041,65.209402 9.6352201,65.179836 7.3709239,64.529129 4.7554348,63.763386 Z M 0,30.323315 V 19.593998 l 6.3847179,-5.060157 c 3.5115949,-2.783086 6.5225361,-5.0601568 6.6909801,-5.0601568 0.33339,0 12.039455,25.8637428 11.799293,26.0697248 C 24.625034,35.75779 1.3457908,41.052632 0.6531997,41.052632 0.16594697,41.052632 0,38.326823 0,30.323315 Z m 40.353261,5.8489 C 32.805707,35.89209 26.647896,35.513745 26.669237,35.331448 26.690579,35.149152 32.926758,29.552632 40.527413,22.894737 48.128068,16.236842 55.75327,9.5552858 57.472306,8.046834 59.191342,6.5383821 60.424157,5.2949611 60.211896,5.2836761 59.999634,5.2723911 52.173854,12.001613 42.821273,20.237502 33.468692,28.473391 25.669063,35.04576 25.488765,34.842765 24.746172,34.006691 13.99255,9.4317759 14.257158,9.1755239 14.957442,8.4973543 59.840223,4.5821103 60.424772,5.1482005 c 0.435174,0.4214311 -0.056,4.7816738 -1.802947,16.0049895 -2.20312,14.154042 -2.489471,15.429986 -3.473402,15.47705 -0.589785,0.02821 -7.247608,-0.1779 -14.795162,-0.458025 z m 16.748187,-1.040636 c 0.0723,-2.363231 4.604363,-29.9095051 4.938891,-30.0190321 0.189063,-0.061901 8.797085,5.2164001 19.128936,11.7295581 17.081667,10.768215 18.787249,11.973359 18.807955,13.289474 0.01411,0.896836 -0.265202,1.447368 -0.734319,1.447368 -0.416399,0 -9.586841,1.06579 -20.37876,2.368421 -23.0918,2.787281 -21.809614,2.717511 -21.762703,1.184211 z M 81.720057,16.421765 C 71.815545,10.139794 63.664237,4.7631579 63.606039,4.4736842 c -0.0582,-0.2894737 2.909624,-1.40768 6.59516,-2.484903 C 76.02244,0.28732598 77.633203,0.02821203 82.470462,0.01509702 L 88.038749,0 94.047084,11.627997 c 5.293114,10.243824 5.988866,11.901044 5.844756,13.921765 l -0.163579,2.293767 z M 94.153164,10.789474 88.590381,0 H 94.295191 100 v 10.789474 c 0,5.93421 -0.06391,10.789473 -0.142027,10.789473 -0.07811,0 -2.645279,-4.855263 -5.704809,-10.789473 z M 0,11.634042 V 4.8470309 L 5.8423913,6.6579344 C 9.0557065,7.6539313 11.905182,8.5292327 12.174559,8.6030486 12.637944,8.7300273 0.90844011,18.421053 0.29136704,18.421053 0.13111517,18.421053 0,15.366898 0,11.634042 Z M 14.130435,8.1377605 c 0,-0.141337 1.272917,-2.0301528 2.828704,-4.1973684 L 19.787843,0 h 19.400534 19.400535 l 1.124881,1.7105263 c 1.041278,1.5833981 1.055343,1.7365731 0.189239,2.0609895 C 59.38843,3.9642705 49.55163,4.9754643 38.043478,6.018613 26.535326,7.0617618 16.447011,8.0231324 15.625,8.154992 14.802989,8.2868517 14.130435,8.2790975 14.130435,8.1377605 Z M 5.7065217,6.0675415 0.27173913,4.4171769 0.10462074,2.2085884 C -0.06068845,0.02390974 -0.0428799,0 1.7496314,0 3.2713583,0 4.166753,0.59041176 7.3369565,3.6842105 c 2.0763579,2.0263158 4.0197615,3.6842106 4.3186745,3.6842106 0.298913,0 -1.15536,-1.6578948 -3.231718,-3.6842106 L 4.6487169,0 h 7.2190371 7.219037 L 16.315958,3.8815789 C 13.069866,8.4289338 13.315864,8.3782484 5.7065217,6.0675415 Z M 60.371611,1.6408614 59.165115,0 h 1.939182 c 2.127453,0 2.241097,0.19484952 1.187238,2.0355983 L 61.578108,3.2817229 Z M 62.5,2.9195016 c 0,-0.1311162 0.283822,-0.8416426 0.630715,-1.5789474 0.613811,-1.30462652 0.770391,-1.33966390481 5.842391,-1.307335 l 5.211677,0.0332192 -5.163044,1.5386858 C 63.98619,3.1058141 62.5,3.4053377 62.5,2.9195016 Z"
         id="path1" /></g></g></svg>
