<?xml version="1.0" encoding="UTF-8" standalone="no"?>
<!-- Created with Inkscape (http://www.inkscape.org/) -->

<svg
   version="1.1"
   id="svg1"
   width="164"
   height="164"
   viewBox="0 0 164 164"
   sodipodi:docname="youtube.svg"
   inkscape:version="1.4.2 (1:1.4.2+202505120738+ebf0e940d0)"
   xmlns:inkscape="http://www.inkscape.org/namespaces/inkscape"
   xmlns:sodipodi="http://sodipodi.sourceforge.net/DTD/sodipodi-0.dtd"
   xmlns="http://www.w3.org/2000/svg"
   xmlns:svg="http://www.w3.org/2000/svg">
  <defs
     id="defs1" />
  <sodipodi:namedview
     id="namedview1"
     pagecolor="#505050"
     bordercolor="#eeeeee"
     borderopacity="1"
     inkscape:showpageshadow="0"
     inkscape:pageopacity="0"
     inkscape:pagecheckerboard="0"
     inkscape:deskcolor="#505050"
     inkscape:zoom="2.46992"
     inkscape:cx="32.997021"
     inkscape:cy="99.193498"
     inkscape:window-width="1920"
     inkscape:window-height="1008"
     inkscape:window-x="0"
     inkscape:window-y="0"
     inkscape:window-maximized="1"
     inkscape:current-layer="g1" />
  <g
     inkscape:groupmode="layer"
     inkscape:label="Image"
     id="g1">
    <path
       style="fill:#ffffff"
       d="m 58.384157,138.74625 c -13.626672,-0.43107 -31.153385,-1.64314 -36.003335,-2.48983 l -4.990366,-0.8712 -2.849024,-1.37919 -2.849023,-1.37919 -2.8490185,-3.16879 -2.8490174,-3.1688 -1.060552,-3.19302 c -0.5833036,-1.75616 -1.4560057,-5.41959 -1.939338,-8.14096 L 2.1156971,110.00735 1.3306953,95.926694 0.5456935,81.846045 1.2915914,68.406694 l 0.7458979,-13.43935 1.033215,-6.08 c 0.5682683,-3.344 1.5566047,-7.282593 2.1963032,-8.752429 l 1.1630881,-2.672429 2.6864659,-2.914471 2.6864665,-2.914472 3.290565,-1.574382 3.290563,-1.574382 4.8,-0.672458 c 8.556635,-1.198746 23.110346,-1.946806 45.867666,-2.357597 l 22.292335,-0.402398 18.689983,0.721388 c 38.1251,1.471534 43.32222,3.025133 48.61271,14.532008 l 1.4981,3.258379 0.94427,6.290335 c 0.51936,3.459684 1.26396,11.929413 1.65469,18.821621 l 0.7104,12.531286 -0.40204,8.96 c -0.5483,12.219677 -1.54657,22.805017 -2.64939,28.093267 l -0.92035,4.41327 -1.71488,3.1508 -1.71488,3.1508 -2.2451,1.97122 c -1.23481,1.08417 -3.69824,2.62632 -5.47431,3.427 l -3.2292,1.45577 -4.8,0.68711 c -11.49617,1.64563 -59.274555,2.94604 -81.920003,2.22967 z m 32.50928,-46.978907 c 8.86168,-5.104 16.115133,-9.424 16.118803,-9.6 C 107.01824,81.88913 68.064616,59.160237 66.611599,58.59401 L 66.064156,58.380677 V 82.162886 105.9451 l 4.358572,-2.44888 c 2.397214,-1.34688 11.609033,-6.624877 20.470709,-11.728877 z"
       id="path1"
       sodipodi:nodetypes="sscccccsscccccsscccccsscsscsscsscccsscssscscccss" />
  </g>
</svg>
