<?xml version="1.0" encoding="UTF-8" standalone="no"?>
<!-- Created with Inkscape (http://www.inkscape.org/) -->

<svg
   width="42.5mm"
   height="10.5mm"
   viewBox="0 0 42.5 10.5"
   version="1.1"
   id="svg306"
   inkscape:version="1.2.2 (1:1.2.2+202212051552+b0a8486541)"
   sodipodi:docname="logo_23_wide.svg"
   xmlns:inkscape="http://www.inkscape.org/namespaces/inkscape"
   xmlns:sodipodi="http://sodipodi.sourceforge.net/DTD/sodipodi-0.dtd"
   xmlns="http://www.w3.org/2000/svg"
   xmlns:svg="http://www.w3.org/2000/svg">
  <sodipodi:namedview
     id="namedview308"
     pagecolor="#ffffff"
     bordercolor="#ffffff"
     borderopacity="1"
     inkscape:showpageshadow="2"
     inkscape:pageopacity="0.0"
     inkscape:pagecheckerboard="true"
     inkscape:deskcolor="#ffffff"
     inkscape:document-units="mm"
     showgrid="false"
     inkscape:zoom="11.736899"
     inkscape:cx="56.019907"
     inkscape:cy="26.412428"
     inkscape:window-width="1920"
     inkscape:window-height="1012"
     inkscape:window-x="0"
     inkscape:window-y="0"
     inkscape:window-maximized="1"
     inkscape:current-layer="layer1" />
  <defs
     id="defs303" />
  <g
     inkscape:label="Layer 1"
     inkscape:groupmode="layer"
     id="layer1">
    <g
       id="g6842"
       transform="translate(0.08675433,0.07663747)">
      <path
         style="fill:#4c00ff;fill-opacity:1;stroke:none;stroke-width:0.264583px;stroke-linecap:butt;stroke-linejoin:miter;stroke-opacity:1"
         d="M 5.898324,3.1458285 7.4965684,0.66789275 7.6132349,2.8211988 Z"
         id="path6472" />
      <path
         style="fill:#6d77ce;fill-opacity:1;stroke:none;stroke-width:0.264583px;stroke-linecap:butt;stroke-linejoin:miter;stroke-opacity:1"
         d="M 4.8508856,2.9450785 7.4965682,0.66789285 6.1910961,2.6919119 Z"
         id="path6474" />
      <path
         style="fill:#4c00ff;fill-opacity:1;stroke:none;stroke-width:0.264583px;stroke-linecap:butt;stroke-linejoin:miter;stroke-opacity:1"
         d="M 6.7050575,3.8434025 9.3281456,2.4965693 8.3525288,4.4197203 Z"
         id="path6613" />
      <path
         style="fill:#6d77ce;fill-opacity:1;stroke:none;stroke-width:0.264583px;stroke-linecap:butt;stroke-linejoin:miter;stroke-opacity:1"
         d="M 5.8983242,3.1458286 9.3281454,2.4965693 7.1855639,3.5966852 Z"
         id="path6615" />
      <path
         style="fill:#4c00ff;fill-opacity:1;stroke:none;stroke-width:0.264583px;stroke-linecap:butt;stroke-linejoin:miter;stroke-opacity:1"
         d="M 7.0549222,4.850886 9.9999997,4.9960383 8.1935153,6.1737275 Z"
         id="path6619" />
      <path
         style="fill:#6d77ce;fill-opacity:1;stroke:none;stroke-width:0.264583px;stroke-linecap:butt;stroke-linejoin:miter;stroke-opacity:1"
         d="M 6.7050576,3.8434027 9.9999996,4.9960382 7.5944116,4.8774758 Z"
         id="path6621" />
      <path
         style="fill:#4c00ff;fill-opacity:1;stroke:none;stroke-width:0.264583px;stroke-linecap:butt;stroke-linejoin:miter;stroke-opacity:1"
         d="M 6.8541722,5.8983247 9.3321079,7.4965691 7.1788019,7.6132356 Z"
         id="path6625" />
      <path
         style="fill:#6d77ce;fill-opacity:1;stroke:none;stroke-width:0.264583px;stroke-linecap:butt;stroke-linejoin:miter;stroke-opacity:1"
         d="M 7.0549222,4.8508863 9.3321078,7.4965689 7.3080888,6.1910968 Z"
         id="path6627" />
      <path
         style="fill:#4c00ff;fill-opacity:1;stroke:none;stroke-width:0.264583px;stroke-linecap:butt;stroke-linejoin:miter;stroke-opacity:1"
         d="M 6.1565982,6.7050582 7.5034314,9.3281463 5.5802804,8.3525295 Z"
         id="path6631" />
      <path
         style="fill:#6d77ce;fill-opacity:1;stroke:none;stroke-width:0.264583px;stroke-linecap:butt;stroke-linejoin:miter;stroke-opacity:1"
         d="M 6.8541721,5.8983249 7.5034314,9.3281461 6.4033155,7.1855646 Z"
         id="path6633" />
      <path
         style="fill:#4c00ff;fill-opacity:1;stroke:none;stroke-width:0.264583px;stroke-linecap:butt;stroke-linejoin:miter;stroke-opacity:1"
         d="M 5.1456431,7.0551719 4.9955159,10 3.82088,8.1915287 Z"
         id="path6637" />
      <path
         style="fill:#6d77ce;fill-opacity:1;stroke:none;stroke-width:0.264583px;stroke-linecap:butt;stroke-linejoin:miter;stroke-opacity:1"
         d="M 6.153716,6.7070097 4.995516,9.9999998 5.118142,7.5946156 Z"
         id="path6639" />
      <path
         style="fill:#4c00ff;fill-opacity:1;stroke:none;stroke-width:0.264583px;stroke-linecap:butt;stroke-linejoin:miter;stroke-opacity:1"
         d="M 4.101676,6.8541729 2.5034317,9.3321087 2.3867651,7.1788027 Z"
         id="path6643" />
      <path
         style="fill:#6d77ce;fill-opacity:1;stroke:none;stroke-width:0.264583px;stroke-linecap:butt;stroke-linejoin:miter;stroke-opacity:1"
         d="M 5.1491145,7.0549229 2.5034318,9.3321086 3.8089039,7.3080895 Z"
         id="path6645" />
      <path
         style="fill:#4c00ff;fill-opacity:1;stroke:none;stroke-width:0.264583px;stroke-linecap:butt;stroke-linejoin:miter;stroke-opacity:1"
         d="M 3.2949425,6.1565989 0.6718544,7.5034321 1.6474712,5.5802811 Z"
         id="path6649" />
      <path
         style="fill:#6d77ce;fill-opacity:1;stroke:none;stroke-width:0.264583px;stroke-linecap:butt;stroke-linejoin:miter;stroke-opacity:1"
         d="M 4.1016758,6.8541728 0.6718546,7.5034321 2.8144361,6.4033162 Z"
         id="path6651" />
      <path
         style="fill:#4c00ff;fill-opacity:1;stroke:none;stroke-width:0.264583px;stroke-linecap:butt;stroke-linejoin:miter;stroke-opacity:1"
         d="M 2.944854,5.1459985 0,4.9963796 1.8082685,3.8214316 Z"
         id="path6655" />
      <path
         style="fill:#6d77ce;fill-opacity:1;stroke:none;stroke-width:0.264583px;stroke-linecap:butt;stroke-linejoin:miter;stroke-opacity:1"
         d="M 3.2931901,6.1540114 1.733359e-7,4.9963797 2.4054055,5.1185906 Z"
         id="path6657" />
      <path
         style="fill:#4c00ff;fill-opacity:1;stroke:none;stroke-width:0.264583px;stroke-linecap:butt;stroke-linejoin:miter;stroke-opacity:1"
         d="M 3.145828,4.1016764 0.66789245,2.5034316 2.8211985,2.3867654 Z"
         id="path6661" />
      <path
         style="fill:#6d77ce;fill-opacity:1;stroke:none;stroke-width:0.264583px;stroke-linecap:butt;stroke-linejoin:miter;stroke-opacity:1"
         d="M 2.9450777,5.1491148 0.66789255,2.5034318 2.6919114,3.8089042 Z"
         id="path6663" />
      <path
         style="fill:#4c00ff;fill-opacity:1;stroke:none;stroke-width:0.264583px;stroke-linecap:butt;stroke-linejoin:miter;stroke-opacity:1"
         d="M 3.848246,3.2916673 2.5088634,0.66476695 4.4292375,1.6458384 Z"
         id="path6667" />
      <path
         style="fill:#6d77ce;fill-opacity:1;stroke:none;stroke-width:0.264583px;stroke-linecap:butt;stroke-linejoin:miter;stroke-opacity:1"
         d="M 3.1483851,4.0964174 2.5088634,0.66476715 3.6028935,2.8104625 Z"
         id="path6669" />
      <path
         style="fill:#4c00ff;fill-opacity:1;stroke:none;stroke-width:0.264583px;stroke-linecap:butt;stroke-linejoin:miter;stroke-opacity:1"
         d="M 4.8508851,2.9450785 4.996037,9.5960629e-7 6.1737264,1.8064852 Z"
         id="path6673" />
      <path
         style="fill:#6d77ce;fill-opacity:1;stroke:none;stroke-width:0.264583px;stroke-linecap:butt;stroke-linejoin:miter;stroke-opacity:1"
         d="M 3.8434018,3.2949432 4.9960369,1.1328114e-6 4.8774748,2.4055891 Z"
         id="path6675" />
    </g>
    <text
       xml:space="preserve"
       style="font-size:9.87778px;line-height:1.25;font-family:'Anonymice Nerd Font Mono';-inkscape-font-specification:'Anonymice Nerd Font Mono';stroke-width:0.264583"
       x="12.938567"
       y="7.6226745"
       id="text2663"><tspan
         sodipodi:role="line"
         id="tspan2661"
         style="font-style:normal;font-variant:normal;font-weight:normal;font-stretch:normal;font-size:9.87778px;font-family:'EB Garamond';-inkscape-font-specification:'EB Garamond';stroke-width:0.264583"
         x="12.938567"
         y="7.6226745">yostlabs</tspan></text>
    <g
       id="g5208"
       transform="matrix(-0.84500508,-0.49054537,0.49054537,-0.84500508,6.8590529,11.75439)"
       style="stroke-width:1.02347">
      <path
         sodipodi:type="star"
         style="fill:none;fill-opacity:0.998925;stroke:#000000;stroke-width:0.0362362;stroke-linecap:round;stroke-linejoin:round;stroke-dasharray:none;stroke-opacity:1;paint-order:markers stroke fill"
         id="path5131"
         inkscape:flatsided="false"
         sodipodi:sides="12"
         sodipodi:cx="4.0125089"
         sodipodi:cy="3.5055034"
         sodipodi:r1="3.6236196"
         sodipodi:r2="1.4931667"
         sodipodi:arg1="1.0440284"
         sodipodi:arg2="0.9723833"
         inkscape:rounded="0"
         inkscape:randomized="0"
         d="M 5.8342548,6.6378924 4.8536574,4.7392035 4.0239926,7.1291048 4.1241148,4.9944933 2.2106534,6.6493761 3.3646675,4.8508095 0.88011993,5.3272493 2.7788088,4.346652 0.38890751,3.5169872 2.523519,3.6171094 0.86863615,1.703648 2.6672028,2.8576621 2.1907629,0.37311448 3.1713603,2.2718033 4.0010251,-0.11809794 3.9009029,2.0165135 5.8143643,0.3616307 4.6603502,2.1601974 7.1448978,1.6837575 5.2462089,2.6643549 7.6361102,3.4940196 5.5014987,3.3938974 7.1563816,5.3073589 5.3578149,4.1533448 Z"
         transform="matrix(1.4122165,0,0,1.4122165,-0.66653123,0.04947026)" />
      <path
         sodipodi:type="star"
         style="fill:none;fill-opacity:0.998925;stroke:#000000;stroke-width:0.0362362;stroke-linecap:round;stroke-linejoin:round;stroke-dasharray:none;stroke-opacity:1;paint-order:markers stroke fill"
         id="path5193"
         inkscape:flatsided="false"
         sodipodi:sides="12"
         sodipodi:cx="4.0125089"
         sodipodi:cy="3.5055034"
         sodipodi:r1="3.6236196"
         sodipodi:r2="2.4657838"
         sodipodi:arg1="1.0440284"
         sodipodi:arg2="1.3970304"
         inkscape:rounded="0"
         inkscape:randomized="0"
         d="M 5.8342548,6.6378924 4.4388251,5.9341542 4.0239926,7.1291048 3.1673842,5.8219348 2.2106534,6.6493761 2.1223937,5.0890295 0.88011993,5.3272493 1.5838581,3.9318196 0.38890751,3.5169872 1.6960775,2.6603787 0.86863615,1.703648 2.4289828,1.6153883 2.1907629,0.37311448 3.5861926,1.0768527 4.0010251,-0.11809794 4.8576336,1.1890721 5.8143643,0.3616307 5.902624,1.9219774 7.1448978,1.6837575 6.4411596,3.0791872 l 1.1949506,0.4148324 -1.30717,0.8566085 0.8274414,0.9567308 -1.5603467,0.08826 z"
         transform="matrix(1.4122165,0,0,1.4122165,-0.66653123,0.04947026)" />
      <path
         sodipodi:type="star"
         style="fill:none;fill-opacity:0.998925;stroke:#000000;stroke-width:0.0362362;stroke-linecap:round;stroke-linejoin:round;stroke-dasharray:none;stroke-opacity:1;paint-order:markers stroke fill"
         id="path5195"
         inkscape:flatsided="false"
         sodipodi:sides="12"
         sodipodi:cx="4.0125089"
         sodipodi:cy="3.5055034"
         sodipodi:r1="1.4931667"
         sodipodi:r2="1.8823272"
         sodipodi:arg1="0.9723833"
         sodipodi:arg2="1.5212282"
         inkscape:rounded="0"
         inkscape:randomized="0"
         d="M 4.8536574,4.7392035 4.1057741,5.3855187 4.1241148,4.9944933 3.1532713,5.180277 3.3646675,4.8508095 2.4310005,4.5262811 2.7788088,4.346652 2.1324936,3.5987686 2.523519,3.6171094 2.3377353,2.6462659 2.6672028,2.8576621 2.9917312,1.9239951 3.1713603,2.2718033 3.9192436,1.6254882 3.9009029,2.0165135 4.8717464,1.8307298 4.6603502,2.1601974 5.5940172,2.4847257 5.2462089,2.6643549 5.8925241,3.4122382 5.5014987,3.3938974 5.6872824,4.364741 5.3578149,4.1533448 5.0332865,5.0870118 Z"
         transform="matrix(1.4122165,0,0,1.4122165,-0.66653123,0.04947026)" />
    </g>
  </g>
</svg>
