<?xml version="1.0" encoding="UTF-8" standalone="no"?>
<!-- Created with Inkscape (http://www.inkscape.org/) -->

<svg
   width="42.5mm"
   height="10.5mm"
   viewBox="0 0 42.5 10.5"
   version="1.1"
   id="svg306"
   inkscape:version="1.3.2 (1:1.3.2+202311252150+091e20ef0f)"
   sodipodi:docname="logo_23_wide.svg"
   xmlns:inkscape="http://www.inkscape.org/namespaces/inkscape"
   xmlns:sodipodi="http://sodipodi.sourceforge.net/DTD/sodipodi-0.dtd"
   xmlns="http://www.w3.org/2000/svg"
   xmlns:svg="http://www.w3.org/2000/svg">
  <sodipodi:namedview
     id="namedview308"
     pagecolor="#ffffff"
     bordercolor="#ffffff"
     borderopacity="1"
     inkscape:showpageshadow="2"
     inkscape:pageopacity="0.0"
     inkscape:pagecheckerboard="true"
     inkscape:deskcolor="#ffffff"
     inkscape:document-units="mm"
     showgrid="false"
     inkscape:zoom="2.9342248"
     inkscape:cx="56.062508"
     inkscape:cy="26.412428"
     inkscape:window-width="1920"
     inkscape:window-height="1012"
     inkscape:window-x="2128"
     inkscape:window-y="0"
     inkscape:window-maximized="1"
     inkscape:current-layer="layer1" />
  <defs
     id="defs303" />
  <g
     inkscape:label="Layer 1"
     inkscape:groupmode="layer"
     id="layer1">
    <g
       id="g6842"
       transform="translate(0.08675433,0.07663747)">
      <path
         style="fill:#4c00ff;fill-opacity:1;stroke:none;stroke-width:0.264583px;stroke-linecap:butt;stroke-linejoin:miter;stroke-opacity:1"
         d="M 5.898324,3.1458285 7.4965684,0.66789275 7.6132349,2.8211988 Z"
         id="path6472" />
      <path
         style="fill:#6d77ce;fill-opacity:1;stroke:none;stroke-width:0.264583px;stroke-linecap:butt;stroke-linejoin:miter;stroke-opacity:1"
         d="M 4.8508856,2.9450785 7.4965682,0.66789285 6.1910961,2.6919119 Z"
         id="path6474" />
      <path
         style="fill:#4c00ff;fill-opacity:1;stroke:none;stroke-width:0.264583px;stroke-linecap:butt;stroke-linejoin:miter;stroke-opacity:1"
         d="M 6.7050575,3.8434025 9.3281456,2.4965693 8.3525288,4.4197203 Z"
         id="path6613" />
      <path
         style="fill:#6d77ce;fill-opacity:1;stroke:none;stroke-width:0.264583px;stroke-linecap:butt;stroke-linejoin:miter;stroke-opacity:1"
         d="M 5.8983242,3.1458286 9.3281454,2.4965693 7.1855639,3.5966852 Z"
         id="path6615" />
      <path
         style="fill:#4c00ff;fill-opacity:1;stroke:none;stroke-width:0.264583px;stroke-linecap:butt;stroke-linejoin:miter;stroke-opacity:1"
         d="M 7.0549222,4.850886 9.9999997,4.9960383 8.1935153,6.1737275 Z"
         id="path6619" />
      <path
         style="fill:#6d77ce;fill-opacity:1;stroke:none;stroke-width:0.264583px;stroke-linecap:butt;stroke-linejoin:miter;stroke-opacity:1"
         d="M 6.7050576,3.8434027 9.9999996,4.9960382 7.5944116,4.8774758 Z"
         id="path6621" />
      <path
         style="fill:#4c00ff;fill-opacity:1;stroke:none;stroke-width:0.264583px;stroke-linecap:butt;stroke-linejoin:miter;stroke-opacity:1"
         d="M 6.8541722,5.8983247 9.3321079,7.4965691 7.1788019,7.6132356 Z"
         id="path6625" />
      <path
         style="fill:#6d77ce;fill-opacity:1;stroke:none;stroke-width:0.264583px;stroke-linecap:butt;stroke-linejoin:miter;stroke-opacity:1"
         d="M 7.0549222,4.8508863 9.3321078,7.4965689 7.3080888,6.1910968 Z"
         id="path6627" />
      <path
         style="fill:#4c00ff;fill-opacity:1;stroke:none;stroke-width:0.264583px;stroke-linecap:butt;stroke-linejoin:miter;stroke-opacity:1"
         d="M 6.1565982,6.7050582 7.5034314,9.3281463 5.5802804,8.3525295 Z"
         id="path6631" />
      <path
         style="fill:#6d77ce;fill-opacity:1;stroke:none;stroke-width:0.264583px;stroke-linecap:butt;stroke-linejoin:miter;stroke-opacity:1"
         d="M 6.8541721,5.8983249 7.5034314,9.3281461 6.4033155,7.1855646 Z"
         id="path6633" />
      <path
         style="fill:#4c00ff;fill-opacity:1;stroke:none;stroke-width:0.264583px;stroke-linecap:butt;stroke-linejoin:miter;stroke-opacity:1"
         d="M 5.1456431,7.0551719 4.9955159,10 3.82088,8.1915287 Z"
         id="path6637" />
      <path
         style="fill:#6d77ce;fill-opacity:1;stroke:none;stroke-width:0.264583px;stroke-linecap:butt;stroke-linejoin:miter;stroke-opacity:1"
         d="M 6.153716,6.7070097 4.995516,9.9999998 5.118142,7.5946156 Z"
         id="path6639" />
      <path
         style="fill:#4c00ff;fill-opacity:1;stroke:none;stroke-width:0.264583px;stroke-linecap:butt;stroke-linejoin:miter;stroke-opacity:1"
         d="M 4.101676,6.8541729 2.5034317,9.3321087 2.3867651,7.1788027 Z"
         id="path6643" />
      <path
         style="fill:#6d77ce;fill-opacity:1;stroke:none;stroke-width:0.264583px;stroke-linecap:butt;stroke-linejoin:miter;stroke-opacity:1"
         d="M 5.1491145,7.0549229 2.5034318,9.3321086 3.8089039,7.3080895 Z"
         id="path6645" />
      <path
         style="fill:#4c00ff;fill-opacity:1;stroke:none;stroke-width:0.264583px;stroke-linecap:butt;stroke-linejoin:miter;stroke-opacity:1"
         d="M 3.2949425,6.1565989 0.6718544,7.5034321 1.6474712,5.5802811 Z"
         id="path6649" />
      <path
         style="fill:#6d77ce;fill-opacity:1;stroke:none;stroke-width:0.264583px;stroke-linecap:butt;stroke-linejoin:miter;stroke-opacity:1"
         d="M 4.1016758,6.8541728 0.6718546,7.5034321 2.8144361,6.4033162 Z"
         id="path6651" />
      <path
         style="fill:#4c00ff;fill-opacity:1;stroke:none;stroke-width:0.264583px;stroke-linecap:butt;stroke-linejoin:miter;stroke-opacity:1"
         d="M 2.944854,5.1459985 0,4.9963796 1.8082685,3.8214316 Z"
         id="path6655" />
      <path
         style="fill:#6d77ce;fill-opacity:1;stroke:none;stroke-width:0.264583px;stroke-linecap:butt;stroke-linejoin:miter;stroke-opacity:1"
         d="M 3.2931901,6.1540114 1.733359e-7,4.9963797 2.4054055,5.1185906 Z"
         id="path6657" />
      <path
         style="fill:#4c00ff;fill-opacity:1;stroke:none;stroke-width:0.264583px;stroke-linecap:butt;stroke-linejoin:miter;stroke-opacity:1"
         d="M 3.145828,4.1016764 0.66789245,2.5034316 2.8211985,2.3867654 Z"
         id="path6661" />
      <path
         style="fill:#6d77ce;fill-opacity:1;stroke:none;stroke-width:0.264583px;stroke-linecap:butt;stroke-linejoin:miter;stroke-opacity:1"
         d="M 2.9450777,5.1491148 0.66789255,2.5034318 2.6919114,3.8089042 Z"
         id="path6663" />
      <path
         style="fill:#4c00ff;fill-opacity:1;stroke:none;stroke-width:0.264583px;stroke-linecap:butt;stroke-linejoin:miter;stroke-opacity:1"
         d="M 3.848246,3.2916673 2.5088634,0.66476695 4.4292375,1.6458384 Z"
         id="path6667" />
      <path
         style="fill:#6d77ce;fill-opacity:1;stroke:none;stroke-width:0.264583px;stroke-linecap:butt;stroke-linejoin:miter;stroke-opacity:1"
         d="M 3.1483851,4.0964174 2.5088634,0.66476715 3.6028935,2.8104625 Z"
         id="path6669" />
      <path
         style="fill:#4c00ff;fill-opacity:1;stroke:none;stroke-width:0.264583px;stroke-linecap:butt;stroke-linejoin:miter;stroke-opacity:1"
         d="M 4.8508851,2.9450785 4.996037,9.5960629e-7 6.1737264,1.8064852 Z"
         id="path6673" />
      <path
         style="fill:#6d77ce;fill-opacity:1;stroke:none;stroke-width:0.264583px;stroke-linecap:butt;stroke-linejoin:miter;stroke-opacity:1"
         d="M 3.8434018,3.2949432 4.9960369,1.1328114e-6 4.8774748,2.4055891 Z"
         id="path6675" />
    </g>
    <path
       style="font-size:9.87778px;line-height:1.25;font-family:'EB Garamond';-inkscape-font-specification:'EB Garamond';stroke-width:0.264583;fill:#ffffff;fill-opacity:1"
       d="m 13.570745,10.437842 q -0.187678,0 -0.345722,-0.09878 -0.158045,-0.0889 -0.158045,-0.306211 0,-0.1778003 0.07902,-0.3160892 0.0889,-0.1284111 0.246944,-0.1284111 0.108656,0 0.207433,0.029633 0.108656,0.029633 0.187678,0.029633 0.05927,0 0.09878,-0.029633 0.04939,-0.019756 0.0889,-0.079022 0.108656,-0.1778001 0.246945,-0.4445001 0.148166,-0.2667001 0.296333,-0.6025446 0.158044,-0.3358445 0.296333,-0.7112002 0.02963,-0.0889 0.02963,-0.2271889 0,-0.079022 -0.0099,-0.1481667 -0.0099,-0.079022 -0.02963,-0.1382889 L 13.659645,4.3728849 Q 13.590501,4.1950848 13.471967,4.0666737 13.363312,3.9283848 13.215145,3.8888736 q -0.07902,-0.029633 -0.158044,-0.069144 -0.06914,-0.039511 -0.06914,-0.1086556 0,-0.059267 0.06914,-0.069145 0.07902,-0.019756 0.128411,-0.019756 0.197555,0 0.286455,0.00988 0.09878,0.00988 0.1778,0.029633 0.0889,0.00988 0.256823,0.00988 0.1778,0 0.2667,-0.00988 0.0889,-0.019756 0.187677,-0.029633 0.09878,-0.00988 0.296334,-0.00988 0.05927,0 0.128411,0.029633 0.06914,0.019756 0.06914,0.079022 0,0.069144 -0.108655,0.1382889 -0.09878,0.059267 -0.1778,0.079022 -0.09878,0.029633 -0.148167,0.1086556 -0.04939,0.069145 -0.04939,0.2074334 0,0.059267 0.02963,0.1481667 0.02963,0.079022 0.04939,0.1284111 l 0.800101,1.975556 q 0.01975,0.059267 0.05927,0.059267 0.02963,0 0.04939,-0.059267 L 16.04019,4.7087294 q 0.02963,-0.069145 0.04939,-0.1778001 0.02963,-0.1185333 0.02963,-0.1876778 0,-0.1876778 -0.05927,-0.2568223 -0.04939,-0.079022 -0.138289,-0.1185333 -0.07902,-0.039511 -0.187678,-0.098778 -0.09878,-0.069145 -0.09878,-0.1382889 0,-0.059267 0.06914,-0.079022 0.07902,-0.029633 0.128411,-0.029633 0.138289,0 0.276578,0.029633 0.148166,0.019756 0.424744,0.019756 0.187678,0 0.2667,-0.00988 0.0889,-0.019756 0.148167,-0.029633 0.05927,-0.00988 0.167922,-0.00988 0.04939,0 0.118533,0.019756 0.07902,0.00988 0.07902,0.069145 0,0.069144 -0.07902,0.1086556 -0.06914,0.039511 -0.148166,0.069144 -0.148167,0.039511 -0.316089,0.2370668 -0.167922,0.1876778 -0.2667,0.4247445 l -1.343378,3.2004007 q -0.0099,0.029633 -0.108656,0.2568223 -0.0889,0.2271889 -0.227189,0.5630334 -0.138289,0.3358446 -0.306211,0.721078 -0.158045,0.3852334 -0.306211,0.7408337 -0.0889,0.197555 -0.256823,0.296333 -0.167922,0.108656 -0.385233,0.108656 z m 5.758728,-2.6768786 q -0.553156,0 -0.997656,-0.2568223 -0.4445,-0.2568223 -0.7112,-0.7013224 -0.256822,-0.4543778 -0.256822,-1.0272891 0,-0.4148667 0.158044,-0.8099779 0.167923,-0.3951112 0.464256,-0.721078 0.296333,-0.3259667 0.691445,-0.5136445 0.395111,-0.1975556 0.849489,-0.1975556 0.572911,0 1.027289,0.2765778 0.464255,0.2765778 0.730956,0.7309557 0.276577,0.4445001 0.276577,0.9779002 0,0.5729113 -0.256822,1.0865558 -0.246944,0.5136446 -0.740833,0.8396113 -0.493889,0.316089 -1.234723,0.316089 z M 19.536906,7.46463 q 0.335845,0 0.602545,-0.1284112 0.2667,-0.1284111 0.414867,-0.4148667 0.118533,-0.227189 0.158044,-0.5531557 0.03951,-0.3259667 0.03951,-0.6124223 0,-0.4741335 -0.1778,-0.9087558 -0.167922,-0.4445001 -0.484011,-0.7210779 -0.306211,-0.2864557 -0.730956,-0.2864557 -0.2667,0 -0.484011,0.0889 -0.207433,0.079022 -0.385233,0.3062111 -0.197556,0.2469445 -0.256822,0.6025446 -0.05927,0.3556001 -0.05927,0.7112002 0,0.4840112 0.1778,0.9285113 0.1778,0.4346223 0.484011,0.7112001 0.306211,0.2765779 0.701322,0.2765779 z m 3.793058,0.2963334 q -0.306212,0 -0.572912,-0.098778 -0.2667,-0.0889 -0.454378,-0.2568223 -0.04939,-0.1086556 -0.07902,-0.3654779 -0.01975,-0.2568222 -0.02963,-0.4247445 0,-0.0889 0.128411,-0.0889 0.03951,0 0.06914,0.019755 0.03951,0.00988 0.04939,0.049389 0.128411,0.4840113 0.404989,0.6914446 0.286456,0.2074334 0.572912,0.2074334 0.286455,0 0.484011,-0.1876778 0.207433,-0.1975556 0.207433,-0.4840112 0,-0.2667001 -0.1778,-0.4543779 -0.1778,-0.1975556 -0.6223,-0.4741334 Q 22.974363,5.6866296 22.76693,5.4989518 22.559497,5.311274 22.460719,5.1137184 q -0.0889,-0.1975556 -0.0889,-0.4445001 0,-0.316089 0.148167,-0.5729113 0.148166,-0.2568223 0.4445,-0.404989 0.296333,-0.1580444 0.740833,-0.1580444 0.296334,0 0.493889,0.059267 0.197556,0.059267 0.296334,0.1284112 0.07902,0.1086556 0.128411,0.3457223 0.05927,0.2271889 0.05927,0.4346223 0,0.069145 -0.09878,0.069145 -0.05927,0 -0.118534,-0.019756 -0.04939,-0.029633 -0.06914,-0.069145 -0.128411,-0.3259667 -0.325967,-0.493889 -0.187678,-0.1778 -0.474133,-0.1778 -0.246945,0 -0.444501,0.1481667 -0.187677,0.1481667 -0.187677,0.4346223 0,0.227189 0.138289,0.404989 0.148166,0.1778 0.543277,0.404989 0.572912,0.3259667 0.84949,0.6124223 0.286455,0.2765779 0.286455,0.7408335 0,0.5334001 -0.404989,0.8692447 -0.404989,0.3358445 -1.047044,0.3358445 z m 3.635022,0 q -0.484011,0 -0.760589,-0.2963334 -0.2667,-0.2963334 -0.2667,-0.8791224 v -2.291645 q 0,-0.079022 -0.05927,-0.1086556 -0.05927,-0.039511 -0.256822,-0.039511 h -0.05927 q -0.04939,0 -0.0889,-0.059267 -0.02963,-0.069144 -0.02963,-0.1382889 0,-0.019756 0.02963,-0.059267 0.02963,-0.039511 0.03951,-0.049389 0.197556,-0.1382889 0.3556,-0.2765778 0.167922,-0.1382889 0.296334,-0.2667001 0.138289,-0.1382889 0.227189,-0.2469445 0.04939,-0.049389 0.07902,-0.079022 0.03951,-0.039511 0.0889,-0.039511 0.04939,0 0.0889,0.019756 0.04939,0.019756 0.03951,0.0889 l -0.04939,0.4445001 q -0.0099,0.1086555 0.04939,0.1481667 0.05927,0.039511 0.187678,0.039511 h 1.126067 q 0.03951,0 0.06914,0.069144 0.02963,0.059267 0.02963,0.1481667 0,0.0889 -0.02963,0.1778001 -0.02963,0.079022 -0.06914,0.079022 h -0.977901 q -0.246944,0 -0.325966,0.039511 -0.06914,0.039511 -0.06914,0.2370668 v 1.9459226 q 0,0.3951112 0.167923,0.6223001 0.167922,0.227189 0.484011,0.227189 0.286455,0 0.4445,-0.039511 0.158044,-0.049389 0.286455,-0.138289 0.01976,-0.019756 0.03951,-0.019756 0.03951,0 0.04939,0.049389 0.01975,0.039511 0.01975,0.0889 0,0.049389 -0.167922,0.1975556 -0.158045,0.1481667 -0.424745,0.2765778 -0.256822,0.1284112 -0.563033,0.1284112 z m 1.619948,-0.1086556 q -0.04939,0 -0.128411,-0.019756 -0.06915,-0.00988 -0.06915,-0.069144 0,-0.079022 0.06915,-0.1086556 0.07902,-0.039511 0.158044,-0.069144 0.148167,-0.049389 0.286456,-0.1086555 0.138289,-0.069145 0.138289,-0.2667001 V 2.031851 q 0,-0.2864556 -0.108656,-0.4741334 -0.09878,-0.1975556 -0.345722,-0.2469445 -0.07902,-0.019756 -0.07902,-0.1284112 0,-0.098778 0.06914,-0.1185333 0.256822,-0.059267 0.4445,-0.11853339 0.187678,-0.0691445 0.345722,-0.13828892 0.167923,-0.0691445 0.325967,-0.12841114 0.03951,-0.0197556 0.05927,-0.0197556 0.01975,0 0.02963,0.0296333 0.01976,0.0197556 0.01976,0.0395111 0,0.0889 -0.03951,0.38523345 -0.02963,0.2864556 -0.02963,0.9581446 v 4.93889 q 0,0.1975556 0.138289,0.2667001 0.138289,0.059267 0.286456,0.1086555 0.07902,0.029633 0.148166,0.069144 0.07902,0.029633 0.07902,0.1086556 0,0.059267 -0.07902,0.069144 -0.06914,0.019756 -0.118533,0.019756 -0.187678,0 -0.306211,-0.019756 -0.108656,-0.00988 -0.217311,-0.019756 -0.09878,-0.00988 -0.276578,-0.00988 -0.167922,0 -0.276578,0.00988 -0.108655,0.00988 -0.217311,0.019756 -0.108656,0.019756 -0.306211,0.019756 z m 3.141131,0.1086556 q -0.1778,0 -0.365478,-0.1382889 -0.1778,-0.138289 -0.306211,-0.3358446 -0.118533,-0.1975556 -0.118533,-0.3753556 0,-0.316089 0.167922,-0.493889 0.167922,-0.1778 0.5334,-0.3259667 l 1.007534,-0.4148668 q 0.197555,-0.079022 0.227189,-0.1382889 0.03951,-0.059267 0.04939,-0.2568223 l 0.01975,-0.6321779 q 0.0099,-0.2568223 -0.148167,-0.4445001 -0.148166,-0.1876778 -0.434622,-0.1876778 -0.148167,0 -0.296333,0.049389 -0.148167,0.049389 -0.246945,0.1284111 -0.05927,0.039511 -0.07902,0.1185334 -0.01976,0.079022 -0.01976,0.1679222 0,0.039511 0,0.0889 0.0099,0.049389 0.0099,0.0889 0,0.049389 -0.128411,0.1382889 -0.118533,0.079022 -0.276578,0.1481667 -0.148166,0.059267 -0.246944,0.059267 -0.04939,0 -0.07902,-0.019756 -0.02963,-0.029633 -0.02963,-0.069144 0,-0.1580445 0.09878,-0.3358446 0.108656,-0.1876778 0.296333,-0.3457223 0.227189,-0.2074333 0.493889,-0.3654778 0.2667,-0.1580445 0.523523,-0.2469445 0.256822,-0.0889 0.454378,-0.0889 0.3556,0 0.582789,0.2568222 0.237066,0.2469445 0.227189,0.6223002 l -0.04939,2.3706672 q -0.0099,0.2074333 0.0889,0.3358445 0.108655,0.1284111 0.2667,0.1284111 0.246944,0 0.365478,-0.1086556 0.04939,-0.049389 0.07902,-0.049389 0.04939,0 0.07902,0.029633 0.02963,0.029633 0.02963,0.079022 0,0.1086556 -0.108655,0.2173112 -0.158045,0.1580445 -0.345723,0.2469445 -0.1778,0.098778 -0.335844,0.098778 -0.454378,0 -0.721078,-0.5136446 h -0.02963 q -0.325967,0.2667001 -0.6223,0.3852334 -0.296334,0.1284112 -0.612423,0.1284112 z m 0.464256,-0.4741335 q 0.197555,0 0.335844,-0.059267 0.138289,-0.069145 0.246945,-0.1778001 0.04939,-0.049389 0.07902,-0.1284111 0.03951,-0.0889 0.04939,-0.2765779 l 0.01976,-0.4840112 q 0.0099,-0.1086555 -0.0099,-0.1580444 -0.01976,-0.049389 -0.07902,-0.049389 -0.01976,0 -0.06914,0.00988 -0.04939,0.00988 -0.128411,0.039511 -0.523522,0.1876778 -0.730956,0.3951112 -0.197555,0.1975555 -0.197555,0.3654778 0,0.2568223 0.148166,0.3951112 0.158045,0.1284111 0.335845,0.1284111 z m 4.879606,0.4741335 q -0.217311,0 -0.434622,-0.039511 -0.217311,-0.039511 -0.414867,-0.0889 -0.217311,-0.059267 -0.385233,-0.1086555 -0.158045,-0.049389 -0.207433,-0.049389 -0.05927,0 -0.118534,0.039511 -0.04939,0.039511 -0.09878,0.0889 -0.04939,0.049389 -0.0889,0.049389 -0.03951,0 -0.0889,-0.029633 -0.04939,-0.039511 -0.04939,-0.0889 0,-0.0889 0.02963,-0.3062111 0.03951,-0.2173112 0.03951,-0.404989 V 2.031851 q 0,-0.2568223 -0.128411,-0.4445001 -0.128411,-0.1876778 -0.325967,-0.2765778 -0.03951,-0.019756 -0.0889,-0.049389 -0.03951,-0.039511 -0.03951,-0.098778 0,-0.049389 0.03951,-0.069144 0.03951,-0.019756 0.07902,-0.029633 0.128411,-0.029633 0.345723,-0.10865561 0.227188,-0.0790222 0.424744,-0.15804448 0.197556,-0.0790222 0.2667,-0.10865558 0.05927,-0.0296333 0.0889,-0.0296333 0.01976,0 0.03951,0.0197556 0.01976,0.0197556 0.01976,0.0493889 0,0.0395111 -0.01976,0.33584455 -0.0099,0.2864556 -0.0099,0.7013223 v 2.0249449 q 0,0.1876779 0.01976,0.2568223 0.01976,0.059267 0.06914,0.069145 0.306212,-0.2568223 0.711201,-0.4148668 0.404989,-0.1679222 0.730955,-0.1679222 0.503767,0 0.898878,0.2568222 0.404989,0.2568223 0.642056,0.7013224 0.237067,0.4346223 0.237067,0.987778 0,0.6716891 -0.276578,1.1952114 -0.276578,0.5136445 -0.770467,0.8001002 -0.484011,0.2864556 -1.135945,0.2864556 z m 0.227189,-0.3062112 q 0.375356,0 0.642056,-0.2271889 0.276578,-0.2370668 0.424745,-0.632178 0.148166,-0.4049889 0.148166,-0.8988779 0,-0.3852334 -0.148166,-0.7902224 Q 38.225628,4.501296 37.919416,4.2247182 37.623083,3.9481403 37.14895,3.9481403 q -0.395112,0 -0.691445,0.1284112 -0.296333,0.1284111 -0.513645,0.3259667 v 1.9162893 q 0,0.3457223 0.187678,0.6025446 0.197556,0.2568223 0.503767,0.3951112 0.316089,0.1382889 0.661811,0.1382889 z m 3.723916,0.3062112 q -0.306211,0 -0.572911,-0.098778 -0.2667,-0.0889 -0.454378,-0.2568223 -0.04939,-0.1086556 -0.07902,-0.3654779 -0.01976,-0.2568222 -0.02963,-0.4247445 0,-0.0889 0.128412,-0.0889 0.03951,0 0.06914,0.019755 0.03951,0.00988 0.04939,0.049389 0.128411,0.4840113 0.404989,0.6914446 0.286456,0.2074334 0.572911,0.2074334 0.286456,0 0.484011,-0.1876778 0.207434,-0.1975556 0.207434,-0.4840112 0,-0.2667001 -0.1778,-0.4543779 -0.1778,-0.1975556 -0.6223,-0.4741334 Q 40.665432,5.6866296 40.457999,5.4989518 40.250565,5.311274 40.151788,5.1137184 q -0.0889,-0.1975556 -0.0889,-0.4445001 0,-0.316089 0.148166,-0.5729113 0.148167,-0.2568223 0.4445,-0.404989 0.296334,-0.1580444 0.740834,-0.1580444 0.296333,0 0.493889,0.059267 0.197555,0.059267 0.296333,0.1284112 0.07902,0.1086556 0.128411,0.3457223 0.05927,0.2271889 0.05927,0.4346223 0,0.069145 -0.09878,0.069145 -0.05927,0 -0.118533,-0.019756 -0.04939,-0.029633 -0.06914,-0.069145 -0.128411,-0.3259667 -0.325966,-0.493889 -0.187678,-0.1778 -0.474134,-0.1778 -0.246944,0 -0.4445,0.1481667 -0.187678,0.1481667 -0.187678,0.4346223 0,0.227189 0.138289,0.404989 0.148167,0.1778 0.543278,0.404989 0.572911,0.3259667 0.849489,0.6124223 0.286456,0.2765779 0.286456,0.7408335 0,0.5334001 -0.404989,0.8692447 -0.404989,0.3358445 -1.047045,0.3358445 z"
       id="text2663"
       aria-label="yostlabs" />
    <g
       id="g5208"
       transform="matrix(-0.84500508,-0.49054537,0.49054537,-0.84500508,6.8590529,11.75439)"
       style="stroke-width:1.02347">
      <path
         sodipodi:type="star"
         style="fill:none;fill-opacity:0.998925;stroke:#000000;stroke-width:0.0362362;stroke-linecap:round;stroke-linejoin:round;stroke-dasharray:none;stroke-opacity:1;paint-order:markers stroke fill"
         id="path5131"
         inkscape:flatsided="false"
         sodipodi:sides="12"
         sodipodi:cx="4.0125089"
         sodipodi:cy="3.5055034"
         sodipodi:r1="3.6236196"
         sodipodi:r2="1.4931667"
         sodipodi:arg1="1.0440284"
         sodipodi:arg2="0.9723833"
         inkscape:rounded="0"
         inkscape:randomized="0"
         d="M 5.8342548,6.6378924 4.8536574,4.7392035 4.0239926,7.1291048 4.1241148,4.9944933 2.2106534,6.6493761 3.3646675,4.8508095 0.88011993,5.3272493 2.7788088,4.346652 0.38890751,3.5169872 2.523519,3.6171094 0.86863615,1.703648 2.6672028,2.8576621 2.1907629,0.37311448 3.1713603,2.2718033 4.0010251,-0.11809794 3.9009029,2.0165135 5.8143643,0.3616307 4.6603502,2.1601974 7.1448978,1.6837575 5.2462089,2.6643549 7.6361102,3.4940196 5.5014987,3.3938974 7.1563816,5.3073589 5.3578149,4.1533448 Z"
         transform="matrix(1.4122165,0,0,1.4122165,-0.66653123,0.04947026)" />
      <path
         sodipodi:type="star"
         style="fill:none;fill-opacity:0.998925;stroke:#000000;stroke-width:0.0362362;stroke-linecap:round;stroke-linejoin:round;stroke-dasharray:none;stroke-opacity:1;paint-order:markers stroke fill"
         id="path5193"
         inkscape:flatsided="false"
         sodipodi:sides="12"
         sodipodi:cx="4.0125089"
         sodipodi:cy="3.5055034"
         sodipodi:r1="3.6236196"
         sodipodi:r2="2.4657838"
         sodipodi:arg1="1.0440284"
         sodipodi:arg2="1.3970304"
         inkscape:rounded="0"
         inkscape:randomized="0"
         d="M 5.8342548,6.6378924 4.4388251,5.9341542 4.0239926,7.1291048 3.1673842,5.8219348 2.2106534,6.6493761 2.1223937,5.0890295 0.88011993,5.3272493 1.5838581,3.9318196 0.38890751,3.5169872 1.6960775,2.6603787 0.86863615,1.703648 2.4289828,1.6153883 2.1907629,0.37311448 3.5861926,1.0768527 4.0010251,-0.11809794 4.8576336,1.1890721 5.8143643,0.3616307 5.902624,1.9219774 7.1448978,1.6837575 6.4411596,3.0791872 l 1.1949506,0.4148324 -1.30717,0.8566085 0.8274414,0.9567308 -1.5603467,0.08826 z"
         transform="matrix(1.4122165,0,0,1.4122165,-0.66653123,0.04947026)" />
      <path
         sodipodi:type="star"
         style="fill:none;fill-opacity:0.998925;stroke:#000000;stroke-width:0.0362362;stroke-linecap:round;stroke-linejoin:round;stroke-dasharray:none;stroke-opacity:1;paint-order:markers stroke fill"
         id="path5195"
         inkscape:flatsided="false"
         sodipodi:sides="12"
         sodipodi:cx="4.0125089"
         sodipodi:cy="3.5055034"
         sodipodi:r1="1.4931667"
         sodipodi:r2="1.8823272"
         sodipodi:arg1="0.9723833"
         sodipodi:arg2="1.5212282"
         inkscape:rounded="0"
         inkscape:randomized="0"
         d="M 4.8536574,4.7392035 4.1057741,5.3855187 4.1241148,4.9944933 3.1532713,5.180277 3.3646675,4.8508095 2.4310005,4.5262811 2.7788088,4.346652 2.1324936,3.5987686 2.523519,3.6171094 2.3377353,2.6462659 2.6672028,2.8576621 2.9917312,1.9239951 3.1713603,2.2718033 3.9192436,1.6254882 3.9009029,2.0165135 4.8717464,1.8307298 4.6603502,2.1601974 5.5940172,2.4847257 5.2462089,2.6643549 5.8925241,3.4122382 5.5014987,3.3938974 5.6872824,4.364741 5.3578149,4.1533448 5.0332865,5.0870118 Z"
         transform="matrix(1.4122165,0,0,1.4122165,-0.66653123,0.04947026)" />
    </g>
  </g>
</svg>
