<?xml version="1.0" encoding="UTF-8" standalone="no"?>
<!-- Created with Inkscape (http://www.inkscape.org/) -->

<svg
   width="200mm"
   height="200mm"
   viewBox="0 0 200 200"
   version="1.1"
   id="svg1"
   xml:space="preserve"
   inkscape:version="1.3.2 (1:1.3.2+202311252150+091e20ef0f)"
   sodipodi:docname="momul_board.svg"
   xmlns:inkscape="http://www.inkscape.org/namespaces/inkscape"
   xmlns:sodipodi="http://sodipodi.sourceforge.net/DTD/sodipodi-0.dtd"
   xmlns="http://www.w3.org/2000/svg"
   xmlns:svg="http://www.w3.org/2000/svg"><sodipodi:namedview
     id="namedview1"
     pagecolor="#ffffff"
     bordercolor="#666666"
     borderopacity="1.0"
     inkscape:showpageshadow="2"
     inkscape:pageopacity="0.0"
     inkscape:pagecheckerboard="0"
     inkscape:deskcolor="#d1d1d1"
     inkscape:document-units="mm"
     inkscape:zoom="0.72604517"
     inkscape:cx="216.92865"
     inkscape:cy="546.10927"
     inkscape:window-width="1920"
     inkscape:window-height="1012"
     inkscape:window-x="0"
     inkscape:window-y="0"
     inkscape:window-maximized="1"
     inkscape:current-layer="g1" /><defs
     id="defs1" /><g
     inkscape:label="Layer 1"
     inkscape:groupmode="layer"
     id="layer1"><g
       id="g1"
       transform="translate(-5.0259944,8.9065013)"><path
         style="fill:#a0dee1;stroke-width:1"
         d="m 80.165792,181.06211 -3.733251,-2.12404 0.0011,-4.41664 0.0011,-4.41665 3.568895,-2.03655 c 1.962892,-1.12011 3.728285,-2.03657 3.923095,-2.03657 0.194809,0 1.960202,0.91646 3.923095,2.03657 l 3.568894,2.03655 0.0047,4.41665 0.0047,4.41664 -1.689553,0.95047 c -0.929254,0.52275 -2.62327,1.47857 -3.764482,2.12404 l -2.07493,1.17358 z m 7.33393,-0.68117 3.346389,-1.94322 v -3.91629 -3.91628 l -3.346389,-1.94324 c -1.840514,-1.06876 -3.448372,-1.94322 -3.573018,-1.94322 -0.124647,0 -1.732505,0.87446 -3.573019,1.94322 l -3.346388,1.94324 v 3.91496 3.91497 l 3.312482,1.93725 c 1.821864,1.06548 3.429723,1.94052 3.573018,1.94453 0.143295,0.004 1.766411,-0.86714 3.606925,-1.93592 z m -28.239374,-20.22427 -3.733251,-2.12405 0.0011,-4.41664 0.0011,-4.41664 3.568894,-2.03656 c 1.962893,-1.12011 3.728286,-2.03656 3.923095,-2.03656 0.19481,0 1.960203,0.91645 3.923095,2.03656 l 3.568896,2.03656 0.0047,4.41664 0.0047,4.41664 -1.689553,0.95047 c -0.929254,0.52275 -2.623272,1.47857 -3.764483,2.12404 l -2.07493,1.17358 z m 7.333931,-0.68117 3.346389,-1.94323 v -3.91629 -3.91628 l -3.346389,-1.94322 c -1.840514,-1.06878 -3.448372,-1.94323 -3.573019,-1.94323 -0.124646,0 -1.732504,0.87445 -3.573017,1.94323 l -3.346389,1.94322 v 3.91497 3.91498 l 3.312481,1.93723 c 1.821866,1.06548 3.429724,1.94052 3.573019,1.94454 0.143294,0.004 1.766411,-0.86715 3.606925,-1.93592 z m -28.239373,-20.22427 -3.733252,-2.12404 0.0011,-4.41664 0.0011,-4.41665 3.568896,-2.03657 c 1.962891,-1.12011 3.728284,-2.03655 3.923094,-2.03655 0.194811,0 1.960203,0.91644 3.923095,2.03655 l 3.568896,2.03657 0.0047,4.41665 0.0047,4.41664 -1.689553,0.95045 c -0.929254,0.52277 -2.623272,1.47859 -3.764484,2.12405 l -2.07493,1.17358 z m 7.33393,-0.68117 3.346389,-1.94323 v -3.91628 -3.9163 l -3.346389,-1.94322 c -1.840514,-1.06877 -3.448373,-1.94322 -3.573019,-1.94322 -0.124645,0 -1.732504,0.87445 -3.573018,1.94322 l -3.346389,1.94322 v 3.91498 3.91497 l 3.312483,1.93724 c 1.821865,1.06548 3.429723,1.94052 3.573018,1.94454 0.143294,0.004 1.766411,-0.86716 3.606925,-1.93592 z m -28.239373,-20.22428 -3.733252,-2.12404 0.0011,-4.41664 0.0011,-4.41664 3.568896,-2.03656 c 1.962892,-1.12011 3.728284,-2.03657 3.923095,-2.03657 0.194809,0 1.960202,0.91646 3.923095,2.03657 l 3.568894,2.03656 0.0047,4.41664 0.0047,4.41664 -1.689553,0.95047 c -0.929254,0.52275 -2.623271,1.47857 -3.764483,2.12404 l -2.07493,1.17357 z m 7.333929,-0.68117 3.34639,-1.94322 v -3.91629 -3.91629 l -3.34639,-1.94323 c -1.840514,-1.06876 -3.448372,-1.94322 -3.573017,-1.94322 -0.124647,0 -1.732505,0.87446 -3.573019,1.94322 l -3.346389,1.94323 v 3.91498 3.91496 l 3.312483,1.93725 c 1.821864,1.06548 3.429723,1.94052 3.573017,1.94454 0.143296,0.004 1.766411,-0.86715 3.606925,-1.93593 z"
         id="path7" /><path
         style="fill:#dd9fe1;stroke-width:1"
         d="m 186.9357,78.369079 c -3.44873,-0.669439 -6.22929,-3.420095 -6.82886,-6.755424 -0.96118,-5.346936 2.92514,-10.005305 8.34709,-10.005305 9.10875,0 11.80941,12.260423 3.53331,16.040478 -1.76906,0.808005 -3.40086,1.040668 -5.05154,0.720251 z m 4.82908,-1.269324 c 4.93804,-2.55356 5.99713,-8.719981 2.15718,-12.559926 -5.68762,-5.687624 -15.13274,-0.0829 -12.97161,7.697347 0.59878,2.155626 2.64659,4.309943 4.89113,5.145513 1.44311,0.537223 4.63183,0.384909 5.9233,-0.282934 z M 166.03026,57.463636 c -3.44874,-0.669439 -6.2293,-3.420095 -6.82886,-6.755425 -0.96118,-5.346936 2.92513,-10.005304 8.34708,-10.005304 9.10876,0 11.80943,12.260423 3.53331,16.040478 -1.76906,0.808005 -3.40085,1.040668 -5.05153,0.720251 z m 4.82908,-1.269325 c 4.93803,-2.553559 5.99713,-8.71998 2.15718,-12.559925 -5.68763,-5.687624 -15.13275,-0.0829 -12.97161,7.697347 0.59877,2.155625 2.64658,4.309943 4.89112,5.145513 1.44312,0.537223 4.63184,0.384908 5.92331,-0.282935 z M 145.12482,36.558193 c -3.44874,-0.66944 -6.22929,-3.420095 -6.82887,-6.755425 -0.96118,-5.346936 2.92514,-10.005304 8.34708,-10.005304 9.10877,0 11.80943,12.260422 3.53332,16.040478 -1.76905,0.808006 -3.40085,1.040668 -5.05153,0.720251 z m 4.82908,-1.269325 c 4.93803,-2.553559 5.99712,-8.719981 2.15718,-12.559925 -5.68762,-5.687625 -15.13275,-0.0829 -12.97162,7.697347 0.59878,2.155625 2.64659,4.309943 4.89114,5.145512 1.4431,0.537223 4.63183,0.384909 5.9233,-0.282934 z m 38.2976,-18.642725 c 0.21254,-0.08505 0.46651,-0.07459 0.56434,0.02325 0.0978,0.09784 -0.076,0.167431 -0.38645,0.154647 -0.34302,-0.01413 -0.41278,-0.0839 -0.17789,-0.177894 z M 124.21937,15.65275 c -3.44873,-0.66944 -6.22929,-3.420096 -6.82886,-6.7554253 -0.96118,-5.3469362 2.92514,-10.0053048 8.34709,-10.0053048 9.10875,0 11.80941,12.2604231 3.53331,16.0404781 -1.76906,0.808006 -3.40086,1.040669 -5.05154,0.720252 z m 4.82908,-1.269326 c 4.93804,-2.553557 5.99713,-8.71998 2.15718,-12.5599248 -5.68762,-5.6876247 -15.13274,-0.082897 -12.97161,7.697347 0.59878,2.1556258 2.64659,4.3099438 4.89113,5.1455128 1.4431,0.537223 4.63183,0.38491 5.9233,-0.282935 z m 52.61477,-0.554181 -0.86481,-0.95694 0.95694,0.864805 c 0.52632,0.475643 0.95694,0.906266 0.95694,0.95694 0,0.227475 -0.24295,0.0272 -1.04907,-0.864805 z m 12.53234,0.864805 c 0,-0.05068 0.43063,-0.481297 0.95694,-0.95694 l 0.95693,-0.864805 -0.8648,0.95694 c -0.80611,0.892001 -1.04907,1.09228 -1.04907,0.864805 z M 178.90778,7.253352 c 0.0141,-0.3430097 0.0839,-0.412779 0.17789,-0.1778921 0.085,0.2125509 0.0746,0.4665077 -0.0233,0.5643488 -0.0978,0.097842 -0.16743,-0.076064 -0.15464,-0.3864567 z m 18.84434,0 c 0.0141,-0.3430097 0.0839,-0.412779 0.17789,-0.1778921 0.085,0.2125509 0.0746,0.4665077 -0.0233,0.5643488 -0.0978,0.097842 -0.16744,-0.076064 -0.15465,-0.3864567 z M 180.94563,1.4441192 c 0,-0.050679 0.43063,-0.48129637 0.95694,-0.95693979 l 0.95694,-0.86480511 -0.8648,0.95693948 c -0.80612,0.89200142 -1.04908,1.09228082 -1.04908,0.86480542 z m 13.96752,-0.86480542 -0.86481,-0.95693948 0.95694,0.86480511 c 0.52632,0.47564342 0.95693,0.90626599 0.95693,0.95693979 0,0.2274754 -0.24294,0.027198 -1.04906,-0.86480542 z M 188.2515,-2.1981996 c 0.21254,-0.085055 0.46651,-0.074595 0.56434,0.023248 0.0978,0.097842 -0.076,0.1674323 -0.38645,0.1546467 -0.34302,-0.014133 -0.41278,-0.083898 -0.17789,-0.177892 z"
         id="path6" /><path
         style="fill:#50cec4;stroke-width:1"
         d="m 77.203591,178.59455 c -0.271638,-0.27163 -0.248426,-7.98112 0.02454,-8.14982 0.121458,-0.0751 0.220832,1.7721 0.220832,4.10482 0,2.33271 -0.01102,4.2413 -0.02454,4.2413 -0.0135,0 -0.11287,-0.0884 -0.220832,-0.1963 z m 13.200855,-4.07312 c 0,-2.31726 0.09938,-4.15177 0.220833,-4.0767 0.121457,0.0751 0.220832,1.90958 0.220832,4.0767 0,2.16713 -0.09938,4.00165 -0.220832,4.07671 -0.121458,0.075 -0.220833,-1.75946 -0.220833,-4.07671 z M 56.298149,157.68911 c -0.271638,-0.27164 -0.248427,-7.98113 0.02454,-8.14983 0.121458,-0.075 0.220833,1.7721 0.220833,4.10482 0,2.33272 -0.01102,4.2413 -0.02454,4.2413 -0.0135,0 -0.112869,-0.0884 -0.220833,-0.19629 z m 13.200855,-4.07313 c 0,-2.31725 0.09938,-4.15176 0.220832,-4.0767 0.121458,0.0751 0.220832,1.90958 0.220832,4.0767 0,2.16713 -0.09938,4.00165 -0.220832,4.07671 -0.121459,0.0751 -0.220832,-1.75946 -0.220832,-4.07671 z M 35.392706,136.78367 c -0.271638,-0.27163 -0.248427,-7.98114 0.02454,-8.14984 0.121457,-0.0751 0.220832,1.77211 0.220832,4.10483 0,2.33272 -0.01102,4.24131 -0.02454,4.24131 -0.0135,0 -0.112869,-0.0884 -0.220831,-0.1963 z m 13.200855,-4.07312 c 0,-2.31726 0.09938,-4.15178 0.220831,-4.07672 0.121458,0.0751 0.220833,1.90959 0.220833,4.07672 0,2.16711 -0.09938,4.00163 -0.220833,4.07669 -0.121457,0.0751 -0.220831,-1.75944 -0.220831,-4.07669 z M 14.487262,115.87823 c -0.271638,-0.27164 -0.248427,-7.98113 0.02454,-8.14984 0.121457,-0.075 0.220831,1.77211 0.220831,4.10483 0,2.33271 -0.01102,4.2413 -0.02454,4.2413 -0.0135,0 -0.11287,-0.0884 -0.220833,-0.19629 z m 13.200855,-4.07313 c 0,-2.31725 0.09938,-4.15177 0.220833,-4.07671 0.121457,0.0751 0.220832,1.90959 0.220832,4.07671 0,2.16713 -0.09938,4.00164 -0.220832,4.07671 -0.121458,0.0751 -0.220833,-1.75946 -0.220833,-4.07671 z"
         id="path5" /><path
         style="fill:#76767e;stroke-width:1"
         d="m 10.906578,184.6061 c -0.0862,-0.36437 -0.121855,-42.73103 -0.07922,-94.148102 l 0.07752,-93.4856094 93.485612,-0.077522 c 51.41708,-0.042633 93.78374,-0.00701 94.14811,0.079224 l 0.66249,0.1567367 V 7.2589608 c 0,7.8146062 -0.0841,10.1673662 -0.36805,10.2998902 -0.29444,0.137407 -0.29444,0.20611 0,0.343516 0.28395,0.132516 0.36805,2.4815 0.36805,10.280963 0,7.799465 -0.0841,10.148449 -0.36805,10.280965 -0.29444,0.137406 -0.29444,0.206109 0,0.343516 0.28395,0.132515 0.36805,2.481499 0.36805,10.280963 0,7.799465 -0.0841,10.148449 -0.36805,10.280964 -0.29444,0.137406 -0.29444,0.20611 0,0.343516 0.53532,0.249818 0.53532,20.312108 0,20.561933 -0.29444,0.137404 -0.29444,0.206101 0,0.343516 0.28395,0.132508 0.36805,2.4815 0.36805,10.280954 0,7.799466 -0.0841,10.148453 -0.36805,10.280963 -0.29444,0.1374 -0.29444,0.20611 0,0.34351 0.53532,0.24983 0.53532,20.31212 0,20.56193 -0.29444,0.13741 -0.29444,0.20612 0,0.34352 0.53532,0.24981 0.53532,20.31211 0,20.56193 -0.29444,0.1374 -0.29444,0.2061 0,0.34352 0.53532,0.24981 0.53532,20.3121 0,20.56192 -0.29444,0.13741 -0.29444,0.20611 0,0.34351 0.57897,0.27019 0.52857,20.02635 -0.0525,20.6075 -0.58115,0.58115 -20.3373,0.63156 -20.60749,0.0525 -0.13741,-0.29444 -0.20611,-0.29444 -0.34352,0 -0.13252,0.28397 -2.4815,0.36806 -10.28096,0.36806 -7.79947,0 -10.14845,-0.0841 -10.28097,-0.36806 -0.1374,-0.29444 -0.20611,-0.29444 -0.34352,0 -0.1325,0.28397 -2.48149,0.36806 -10.28096,0.36806 -7.79946,0 -10.14845,-0.0841 -10.28095,-0.36806 -0.13742,-0.29444 -0.20612,-0.29444 -0.34352,0 -0.13252,0.28397 -2.4815,0.36806 -10.28097,0.36806 -7.79946,0 -10.14844,-0.0841 -10.28096,-0.36806 -0.13741,-0.29444 -0.20611,-0.29444 -0.34352,0 -0.13252,0.28397 -2.4815,0.36806 -10.28096,0.36806 -7.799468,0 -10.148452,-0.0841 -10.280966,-0.36806 -0.137408,-0.29444 -0.206111,-0.29444 -0.343517,0 -0.249819,0.53533 -20.312108,0.53533 -20.561927,0 -0.137406,-0.29444 -0.206109,-0.29444 -0.343517,0 -0.132514,0.28397 -2.481498,0.36806 -10.280963,0.36806 -7.799463,0 -10.148448,-0.0841 -10.280963,-0.36806 -0.137406,-0.29444 -0.20611,-0.29444 -0.343516,0 -0.132515,0.28397 -2.4815,0.36806 -10.280964,0.36806 -7.799464,0 -10.148448,-0.0841 -10.280963,-0.36806 -0.137407,-0.29444 -0.20611,-0.29444 -0.343516,0 -0.132525,0.28399 -2.485285,0.36806 -10.299891,0.36806 H 11.063315 Z M 31.368653,174.52143 V 164.36315 H 21.210375 11.052096 v 10.15828 10.15828 h 10.158279 10.158278 z m -14.348453,6.97863 -3.895732,-2.26754 -1.45e-4,-4.71109 -1.44e-4,-4.71108 4.005241,-2.31098 c 2.978192,-1.71838 4.137247,-2.2469 4.520028,-2.0611 0.283132,0.13743 2.120569,1.17737 4.083193,2.31097 l 3.568407,2.06111 -0.0022,4.71108 -0.0022,4.71109 -3.955185,2.28193 c -2.175351,1.25506 -4.060994,2.27546 -4.190318,2.26754 -0.129325,-0.008 -1.988215,-1.03477 -4.130867,-2.28193 z m 35.253896,-6.97863 V 164.36315 H 42.242007 c -8.301886,0 -10.104633,-0.0725 -10.452721,-0.42063 -0.348088,-0.34809 -0.420633,-2.15084 -0.420633,-10.45273 V 143.45771 H 21.210375 11.052096 v 10.15827 10.15828 h 10.032089 c 8.301886,0 10.104633,0.0726 10.452721,0.42064 0.348088,0.34808 0.420632,2.15083 0.420632,10.45271 v 10.0321 h 10.158279 10.158279 z m 20.905443,0 V 164.36315 H 63.14745 c -8.301886,0 -10.104633,-0.0725 -10.452721,-0.42063 -0.348087,-0.34809 -0.420633,-2.15084 -0.420633,-10.45273 V 143.45771 H 42.242007 c -8.301886,0 -10.104633,-0.0726 -10.452721,-0.42064 -0.348088,-0.34808 -0.420633,-2.15083 -0.420633,-10.45271 v -10.0321 H 21.210375 11.052096 v 10.15829 10.15827 h 10.032089 c 8.301886,0 10.104633,0.0726 10.452721,0.42063 0.348088,0.34809 0.420632,2.15084 0.420632,10.45273 v 10.03208 h 10.03209 c 8.301887,0 10.104634,0.0726 10.452721,0.42064 0.348088,0.34808 0.420633,2.15083 0.420633,10.45271 v 10.0321 H 63.02126 73.179539 Z m 20.905443,0 V 164.36315 H 84.052894 c -8.301887,0 -10.104635,-0.0725 -10.452723,-0.42063 -0.348086,-0.34809 -0.420632,-2.15084 -0.420632,-10.45273 V 143.45771 H 63.14745 c -8.301886,0 -10.104633,-0.0726 -10.452721,-0.42064 -0.348087,-0.34808 -0.420633,-2.15083 -0.420633,-10.45271 v -10.0321 H 42.242007 c -8.301886,0 -10.104633,-0.0726 -10.452721,-0.42062 -0.348088,-0.34809 -0.420633,-2.15084 -0.420633,-10.45273 V 101.64683 H 21.210375 11.052096 v 10.15827 10.15828 h 10.032089 c 8.301886,0 10.104633,0.0726 10.452721,0.42063 0.348088,0.34809 0.420632,2.15084 0.420632,10.45272 v 10.03209 h 10.03209 c 8.301887,0 10.104634,0.0726 10.452721,0.42063 0.348088,0.34809 0.420633,2.15084 0.420633,10.45273 v 10.03208 H 62.89507 c 8.301887,0 10.104635,0.0726 10.452723,0.42064 0.348087,0.34808 0.420632,2.15083 0.420632,10.45271 v 10.0321 h 10.158279 10.158278 z m 20.905458,0 v -10.15828 h -10.0321 c -8.301891,0 -10.104638,-0.0725 -10.452725,-0.42063 -0.348088,-0.34809 -0.420633,-2.15084 -0.420633,-10.45273 V 143.45771 H 84.052894 c -8.301887,0 -10.104635,-0.0726 -10.452723,-0.42064 -0.348086,-0.34808 -0.420632,-2.15083 -0.420632,-10.45271 v -10.0321 H 63.14745 c -8.301886,0 -10.104633,-0.0726 -10.452721,-0.42062 -0.348087,-0.34809 -0.420633,-2.15084 -0.420633,-10.45273 V 101.64683 H 42.242007 c -8.301886,0 -10.104633,-0.0726 -10.452721,-0.42064 -0.348088,-0.34809 -0.420633,-2.150833 -0.420633,-10.452719 V 80.741384 H 21.210375 11.052096 v 10.158273 10.158283 h 10.032089 c 8.301886,0 10.104633,0.0725 10.452721,0.42063 0.348088,0.34808 0.420632,2.15083 0.420632,10.45271 v 10.0321 h 10.03209 c 8.301887,0 10.104634,0.0726 10.452721,0.42063 0.348088,0.34809 0.420633,2.15084 0.420633,10.45272 v 10.03209 H 62.89507 c 8.301887,0 10.104635,0.0726 10.452723,0.42063 0.348087,0.34809 0.420632,2.15084 0.420632,10.45273 v 10.03208 h 10.032089 c 8.301886,0 10.104634,0.0726 10.452721,0.42064 0.348088,0.34808 0.420633,2.15083 0.420633,10.45271 v 10.0321 h 10.158282 10.15829 z m 20.90543,0 v -10.15828 h -10.03209 c -8.30188,0 -10.10463,-0.0725 -10.45272,-0.42063 -0.34809,-0.34809 -0.42062,-2.15084 -0.42062,-10.45273 v -10.03208 h -10.0321 c -8.301891,0 -10.104638,-0.0726 -10.452725,-0.42064 -0.348088,-0.34808 -0.420633,-2.15083 -0.420633,-10.45271 v -10.0321 H 84.052894 c -8.301887,0 -10.104635,-0.0726 -10.452723,-0.42062 -0.348086,-0.34809 -0.420632,-2.15084 -0.420632,-10.45273 V 101.64683 H 63.14745 c -8.301886,0 -10.104633,-0.0726 -10.452721,-0.42064 -0.348087,-0.34809 -0.420633,-2.150833 -0.420633,-10.452719 V 80.741384 H 42.242007 c -8.301886,0 -10.104633,-0.07256 -10.452721,-0.420637 -0.348088,-0.348084 -0.420633,-2.150831 -0.420633,-10.452719 V 59.83594 H 21.210375 11.052096 v 10.158278 10.158277 h 10.032089 c 8.301886,0 10.104633,0.07256 10.452721,0.420637 0.348088,0.348089 0.420632,2.150837 0.420632,10.452723 v 10.032085 h 10.03209 c 8.301887,0 10.104634,0.0725 10.452721,0.42063 0.348088,0.34808 0.420633,2.15083 0.420633,10.45271 v 10.0321 H 62.89507 c 8.301887,0 10.104635,0.0726 10.452723,0.42063 0.348087,0.34809 0.420632,2.15084 0.420632,10.45272 v 10.03209 h 10.032089 c 8.301886,0 10.104634,0.0726 10.452721,0.42063 0.348088,0.34809 0.420633,2.15084 0.420633,10.45273 v 10.03208 h 10.032092 c 8.30189,0 10.10464,0.0726 10.45273,0.42064 0.34808,0.34808 0.42062,2.15083 0.42062,10.45271 v 10.0321 h 10.15829 10.15827 z m 20.90545,0 v -10.15828 h -10.03209 c -8.30188,0 -10.10463,-0.0725 -10.45272,-0.42063 -0.34809,-0.34809 -0.42064,-2.15084 -0.42064,-10.45273 v -10.03208 h -10.03209 c -8.30188,0 -10.10463,-0.0726 -10.45272,-0.42064 -0.34809,-0.34808 -0.42062,-2.15083 -0.42062,-10.45271 v -10.0321 h -10.0321 c -8.301891,0 -10.104638,-0.0726 -10.452725,-0.42062 -0.348088,-0.34809 -0.420633,-2.15084 -0.420633,-10.45273 V 101.64683 H 84.052894 c -8.301887,0 -10.104635,-0.0726 -10.452723,-0.42064 -0.348086,-0.34809 -0.420632,-2.150833 -0.420632,-10.452719 V 80.741384 H 63.14745 c -8.301886,0 -10.104633,-0.07256 -10.452721,-0.420637 -0.348087,-0.348084 -0.420633,-2.150831 -0.420633,-10.452719 V 59.83594 H 42.242007 c -8.301886,0 -10.104633,-0.07255 -10.452721,-0.420633 C 31.441198,59.06722 31.368653,57.264473 31.368653,48.962585 V 38.930496 H 21.210375 11.052096 v 10.158279 10.158279 h 10.032089 c 8.301886,0 10.104633,0.07255 10.452721,0.420633 0.348088,0.348088 0.420632,2.150835 0.420632,10.452721 v 10.032087 h 10.03209 c 8.301887,0 10.104634,0.07256 10.452721,0.420637 0.348088,0.348089 0.420633,2.150837 0.420633,10.452723 V 101.05794 H 62.89507 c 8.301887,0 10.104635,0.0725 10.452723,0.42063 0.348087,0.34808 0.420632,2.15083 0.420632,10.45271 v 10.0321 h 10.032089 c 8.301886,0 10.104634,0.0726 10.452721,0.42063 0.348088,0.34809 0.420633,2.15084 0.420633,10.45272 v 10.03209 h 10.032092 c 8.30189,0 10.10464,0.0726 10.45273,0.42063 0.34808,0.34809 0.42062,2.15084 0.42062,10.45273 v 10.03208 h 10.03209 c 8.30189,0 10.10465,0.0726 10.45272,0.42064 0.34809,0.34808 0.42064,2.15083 0.42064,10.45271 v 10.0321 h 10.15827 10.15829 z m 20.90544,0 v -10.15828 h -10.03209 c -8.30189,0 -10.10464,-0.0725 -10.45272,-0.42063 -0.34808,-0.34809 -0.42063,-2.15084 -0.42063,-10.45273 v -10.03208 h -10.03209 c -8.30188,0 -10.10463,-0.0726 -10.45272,-0.42064 -0.34809,-0.34808 -0.42064,-2.15083 -0.42064,-10.45271 v -10.0321 h -10.03209 c -8.30188,0 -10.10463,-0.0726 -10.45272,-0.42062 -0.34809,-0.34809 -0.42062,-2.15084 -0.42062,-10.45273 v -10.03208 h -10.0321 c -8.301891,0 -10.104638,-0.0726 -10.452725,-0.42064 -0.348088,-0.34809 -0.420633,-2.150833 -0.420633,-10.452719 V 80.741384 H 84.052894 c -8.301887,0 -10.104635,-0.07256 -10.452723,-0.420637 -0.348086,-0.348084 -0.420632,-2.150831 -0.420632,-10.452719 V 59.83594 H 63.14745 c -8.301886,0 -10.104633,-0.07255 -10.452721,-0.420633 C 52.346642,59.06722 52.274096,57.264473 52.274096,48.962585 V 38.930496 H 42.242007 c -8.301886,0 -10.104633,-0.07255 -10.452721,-0.420632 -0.348088,-0.348088 -0.420633,-2.150835 -0.420633,-10.452721 V 18.025053 H 21.210375 11.052096 v 10.158279 10.158279 h 10.032089 c 8.301886,0 10.104633,0.07255 10.452721,0.420633 0.348088,0.348087 0.420632,2.150834 0.420632,10.452721 v 10.032089 h 10.03209 c 8.301887,0 10.104634,0.07255 10.452721,0.420633 0.348088,0.348088 0.420633,2.150835 0.420633,10.452721 V 80.152495 H 62.89507 c 8.301887,0 10.104635,0.07256 10.452723,0.420637 0.348087,0.348089 0.420632,2.150837 0.420632,10.452723 v 10.032085 h 10.032089 c 8.301886,0 10.104634,0.0725 10.452721,0.42063 0.348088,0.34808 0.420633,2.15083 0.420633,10.45271 v 10.0321 h 10.032092 c 8.30189,0 10.10464,0.0726 10.45273,0.42063 0.34808,0.34809 0.42062,2.15084 0.42062,10.45272 v 10.03209 h 10.03209 c 8.30189,0 10.10465,0.0726 10.45272,0.42063 0.34809,0.34809 0.42064,2.15084 0.42064,10.45273 v 10.03208 h 10.03209 c 8.30188,0 10.10463,0.0726 10.45272,0.42064 0.34809,0.34808 0.42064,2.15083 0.42064,10.45271 v 10.0321 h 10.15827 10.15828 z m 20.90544,0 v -10.15828 h -10.03209 c -8.30188,0 -10.10463,-0.0725 -10.45272,-0.42063 -0.34809,-0.34809 -0.42063,-2.15084 -0.42063,-10.45273 v -10.03208 h -10.03209 c -8.30189,0 -10.10464,-0.0726 -10.45272,-0.42064 -0.34808,-0.34808 -0.42063,-2.15083 -0.42063,-10.45271 v -10.0321 h -10.03209 c -8.30188,0 -10.10463,-0.0726 -10.45272,-0.42062 -0.34809,-0.34809 -0.42064,-2.15084 -0.42064,-10.45273 v -10.03208 h -10.03209 c -8.30188,0 -10.10463,-0.0726 -10.45272,-0.42064 -0.34809,-0.34809 -0.42062,-2.150833 -0.42062,-10.452719 V 80.741384 h -10.0321 c -8.301891,0 -10.104638,-0.07256 -10.452725,-0.420637 -0.348088,-0.348084 -0.420633,-2.150831 -0.420633,-10.452719 V 59.83594 H 84.052894 c -8.301887,0 -10.104635,-0.07255 -10.452723,-0.420633 C 73.252085,59.06722 73.179539,57.264473 73.179539,48.962585 V 38.930496 H 63.14745 c -8.301886,0 -10.104633,-0.07255 -10.452721,-0.420632 -0.348087,-0.348088 -0.420633,-2.150835 -0.420633,-10.452721 V 18.025053 H 42.242007 c -8.301886,0 -10.104633,-0.07255 -10.452721,-0.420632 C 31.441198,17.256333 31.368653,15.453586 31.368653,7.1516994 V -2.8803907 H 21.210375 11.052096 v 10.15828 10.1582787 h 10.032089 c 8.301886,0 10.104633,0.07255 10.452721,0.420632 0.348088,0.348088 0.420632,2.150835 0.420632,10.452722 v 10.032089 h 10.03209 c 8.301887,0 10.104634,0.07255 10.452721,0.420633 0.348088,0.348087 0.420633,2.150834 0.420633,10.452721 V 59.247054 H 62.89507 c 8.301887,0 10.104635,0.07255 10.452723,0.420633 0.348087,0.348088 0.420632,2.150835 0.420632,10.452721 v 10.032087 h 10.032089 c 8.301886,0 10.104634,0.07256 10.452721,0.420637 0.348088,0.348089 0.420633,2.150837 0.420633,10.452723 v 10.032085 h 10.032092 c 8.30189,0 10.10464,0.0725 10.45273,0.42063 0.34808,0.34808 0.42062,2.15083 0.42062,10.45271 v 10.0321 h 10.03209 c 8.30189,0 10.10465,0.0726 10.45272,0.42063 0.34809,0.34809 0.42064,2.15084 0.42064,10.45272 v 10.03209 h 10.03209 c 8.30188,0 10.10463,0.0726 10.45272,0.42063 0.34809,0.34809 0.42064,2.15084 0.42064,10.45273 v 10.03208 h 10.03208 c 8.30189,0 10.10464,0.0726 10.45273,0.42064 0.34808,0.34808 0.42062,2.15083 0.42062,10.45271 v 10.0321 h 10.15829 10.15827 z m 0,-20.90545 v -10.15827 h -10.03209 c -8.30188,0 -10.10463,-0.0726 -10.45272,-0.42064 -0.34809,-0.34808 -0.42063,-2.15083 -0.42063,-10.45271 v -10.0321 h -10.03209 c -8.30189,0 -10.10464,-0.0726 -10.45272,-0.42062 -0.34808,-0.34809 -0.42063,-2.15084 -0.42063,-10.45273 v -10.03208 h -10.03209 c -8.30188,0 -10.10463,-0.0726 -10.45272,-0.42064 -0.34809,-0.34809 -0.42064,-2.150833 -0.42064,-10.452719 V 80.741384 h -10.03209 c -8.30188,0 -10.10463,-0.07256 -10.45272,-0.420637 -0.34809,-0.348084 -0.42062,-2.150831 -0.42062,-10.452719 V 59.83594 h -10.0321 c -8.301891,0 -10.104638,-0.07255 -10.452725,-0.420633 C 94.157527,59.06722 94.084982,57.264473 94.084982,48.962585 V 38.930496 H 84.052894 c -8.301887,0 -10.104635,-0.07255 -10.452723,-0.420632 -0.348086,-0.348088 -0.420632,-2.150835 -0.420632,-10.452721 V 18.025053 H 63.14745 c -8.301886,0 -10.104633,-0.07255 -10.452721,-0.420632 C 52.346642,17.256333 52.274096,15.453586 52.274096,7.1516994 V -2.8803907 H 42.115817 31.957538 v 10.15828 10.1582787 h 10.03209 c 8.301887,0 10.104634,0.07255 10.452721,0.420632 0.348088,0.348088 0.420633,2.150835 0.420633,10.452722 V 38.341611 H 62.89507 c 8.301887,0 10.104635,0.07255 10.452723,0.420633 0.348087,0.348087 0.420632,2.150834 0.420632,10.452721 v 10.032089 h 10.032089 c 8.301886,0 10.104634,0.07255 10.452721,0.420633 0.348088,0.348088 0.420633,2.150835 0.420633,10.452721 v 10.032087 h 10.032092 c 8.30189,0 10.10464,0.07256 10.45273,0.420637 0.34808,0.348089 0.42062,2.150837 0.42062,10.452723 v 10.032085 h 10.03209 c 8.30189,0 10.10465,0.0725 10.45272,0.42063 0.34809,0.34808 0.42064,2.15083 0.42064,10.45271 v 10.0321 h 10.03209 c 8.30188,0 10.10463,0.0726 10.45272,0.42063 0.34809,0.34809 0.42064,2.15084 0.42064,10.45272 v 10.03209 h 10.03208 c 8.30189,0 10.10464,0.0726 10.45273,0.42063 0.34808,0.34809 0.42062,2.15084 0.42062,10.45273 v 10.03208 h 10.15829 10.15827 z m 0,-20.90543 v -10.15829 h -10.03209 c -8.30188,0 -10.10463,-0.0726 -10.45272,-0.42062 -0.34809,-0.34809 -0.42063,-2.15084 -0.42063,-10.45273 v -10.03208 h -10.03209 c -8.30189,0 -10.10464,-0.0726 -10.45272,-0.42064 -0.34808,-0.34809 -0.42063,-2.150833 -0.42063,-10.452719 V 80.741384 h -10.03209 c -8.30188,0 -10.10463,-0.07256 -10.45272,-0.420637 -0.34809,-0.348084 -0.42064,-2.150831 -0.42064,-10.452719 V 59.83594 h -10.03209 c -8.30188,0 -10.10463,-0.07255 -10.45272,-0.420633 -0.34809,-0.348087 -0.42062,-2.150834 -0.42062,-10.452722 V 38.930496 h -10.0321 c -8.301891,0 -10.104638,-0.07255 -10.452725,-0.420632 -0.348088,-0.348088 -0.420633,-2.150835 -0.420633,-10.452721 V 18.025053 H 84.052894 c -8.301887,0 -10.104635,-0.07255 -10.452723,-0.420632 C 73.252085,17.256333 73.179539,15.453586 73.179539,7.1516994 V -2.8803907 H 63.02126 52.862982 V 7.2778893 17.436168 H 62.89507 c 8.301887,0 10.104635,0.07255 10.452723,0.420632 0.348087,0.348088 0.420632,2.150835 0.420632,10.452722 v 10.032089 h 10.032089 c 8.301886,0 10.104634,0.07255 10.452721,0.420633 0.348088,0.348087 0.420633,2.150834 0.420633,10.452721 v 10.032089 h 10.032092 c 8.30189,0 10.10464,0.07255 10.45273,0.420633 0.34808,0.348088 0.42062,2.150835 0.42062,10.452721 v 10.032087 h 10.03209 c 8.30189,0 10.10465,0.07256 10.45272,0.420637 0.34809,0.348089 0.42064,2.150837 0.42064,10.452723 v 10.032085 h 10.03209 c 8.30188,0 10.10463,0.0725 10.45272,0.42063 0.34809,0.34808 0.42064,2.15083 0.42064,10.45271 v 10.0321 h 10.03208 c 8.30189,0 10.10464,0.0726 10.45273,0.42063 0.34808,0.34809 0.42062,2.15084 0.42062,10.45272 v 10.03209 h 10.15829 10.15827 z m 0,-20.90545 v -10.15827 h -10.03209 c -8.30188,0 -10.10463,-0.0726 -10.45272,-0.42064 -0.34809,-0.34809 -0.42063,-2.150833 -0.42063,-10.452719 V 80.741384 h -10.03209 c -8.30189,0 -10.10464,-0.07256 -10.45272,-0.420637 -0.34808,-0.348084 -0.42063,-2.150831 -0.42063,-10.452719 V 59.83594 h -10.03209 c -8.30188,0 -10.10463,-0.07255 -10.45272,-0.420633 -0.34809,-0.348087 -0.42064,-2.150834 -0.42064,-10.452722 V 38.930496 h -10.03209 c -8.30188,0 -10.10463,-0.07255 -10.45272,-0.420632 -0.34809,-0.348088 -0.42062,-2.150835 -0.42062,-10.452721 v -10.03209 h -10.0321 c -8.301891,0 -10.104638,-0.07255 -10.452725,-0.420632 C 94.157527,17.256333 94.084982,15.453586 94.084982,7.1516994 V -2.8803907 H 83.926704 73.768425 v 10.15828 10.1582787 h 10.032089 c 8.301886,0 10.104634,0.07255 10.452721,0.420632 0.348088,0.348088 0.420633,2.150835 0.420633,10.452722 v 10.032089 h 10.032092 c 8.30189,0 10.10464,0.07255 10.45273,0.420633 0.34808,0.348087 0.42062,2.150834 0.42062,10.452721 v 10.032089 h 10.03209 c 8.30189,0 10.10465,0.07255 10.45272,0.420633 0.34809,0.348088 0.42064,2.150835 0.42064,10.452721 v 10.032087 h 10.03209 c 8.30188,0 10.10463,0.07256 10.45272,0.420637 0.34809,0.348089 0.42064,2.150837 0.42064,10.452723 v 10.032085 h 10.03208 c 8.30189,0 10.10464,0.0725 10.45273,0.42063 0.34808,0.34808 0.42062,2.15083 0.42062,10.45271 v 10.0321 h 10.15829 10.15827 z m 0,-20.905443 V 80.741384 h -10.03209 c -8.30188,0 -10.10463,-0.07256 -10.45272,-0.420637 -0.34809,-0.348084 -0.42063,-2.150831 -0.42063,-10.452719 V 59.83594 h -10.03209 c -8.30189,0 -10.10464,-0.07255 -10.45272,-0.420633 -0.34808,-0.348087 -0.42063,-2.150834 -0.42063,-10.452722 V 38.930496 h -10.03209 c -8.30188,0 -10.10463,-0.07255 -10.45272,-0.420632 -0.34809,-0.348088 -0.42064,-2.150835 -0.42064,-10.452721 v -10.03209 h -10.03209 c -8.30188,0 -10.10463,-0.07255 -10.45272,-0.420632 -0.34809,-0.348088 -0.42062,-2.150835 -0.42062,-10.4527216 V -2.8803907 H 104.83215 94.673868 v 10.15828 10.1582787 h 10.032092 c 8.30189,0 10.10464,0.07255 10.45273,0.420632 0.34808,0.348088 0.42062,2.150835 0.42062,10.452722 v 10.032089 h 10.03209 c 8.30189,0 10.10465,0.07255 10.45272,0.420633 0.34809,0.348087 0.42064,2.150834 0.42064,10.452721 v 10.032089 h 10.03209 c 8.30188,0 10.10463,0.07255 10.45272,0.420633 0.34809,0.348088 0.42064,2.150835 0.42064,10.452721 v 10.032087 h 10.03208 c 8.30189,0 10.10464,0.07256 10.45273,0.420637 0.34808,0.348089 0.42062,2.150837 0.42062,10.452723 v 10.032085 h 10.15829 10.15827 z m 0,-20.905439 V 59.83594 h -10.03209 c -8.30188,0 -10.10463,-0.07255 -10.45272,-0.420633 -0.34809,-0.348087 -0.42063,-2.150834 -0.42063,-10.452722 V 38.930496 h -10.03209 c -8.30189,0 -10.10464,-0.07255 -10.45272,-0.420632 -0.34808,-0.348088 -0.42063,-2.150835 -0.42063,-10.452721 v -10.03209 h -10.03209 c -8.30188,0 -10.10463,-0.07255 -10.45272,-0.420632 -0.34809,-0.348088 -0.42064,-2.150835 -0.42064,-10.4527216 V -2.8803907 H 125.7376 115.57931 v 10.15828 10.1582787 h 10.03209 c 8.30189,0 10.10465,0.07255 10.45272,0.420632 0.34809,0.348088 0.42064,2.150835 0.42064,10.452722 v 10.032089 h 10.03209 c 8.30188,0 10.10463,0.07255 10.45272,0.420633 0.34809,0.348087 0.42064,2.150834 0.42064,10.452721 v 10.032089 h 10.03208 c 8.30189,0 10.10464,0.07255 10.45273,0.420633 0.34808,0.348088 0.42062,2.150835 0.42062,10.452721 v 10.032087 h 10.15829 10.15827 z m 0,-20.905443 V 38.930496 h -10.03209 c -8.30188,0 -10.10463,-0.07255 -10.45272,-0.420632 -0.34809,-0.348088 -0.42063,-2.150835 -0.42063,-10.452721 v -10.03209 h -10.03209 c -8.30189,0 -10.10464,-0.07255 -10.45272,-0.420632 -0.34808,-0.348088 -0.42063,-2.150835 -0.42063,-10.4527216 V -2.8803907 h -10.15829 -10.15827 v 10.15828 10.1582787 h 10.03209 c 8.30188,0 10.10463,0.07255 10.45272,0.420632 0.34809,0.348088 0.42064,2.150835 0.42064,10.452722 v 10.032089 h 10.03208 c 8.30189,0 10.10464,0.07255 10.45273,0.420633 0.34808,0.348087 0.42062,2.150834 0.42062,10.452721 v 10.032089 h 10.15829 10.15827 z m 0,-20.905443 V 18.025053 h -10.03209 c -8.30188,0 -10.10463,-0.07255 -10.45272,-0.420632 -0.34809,-0.348088 -0.42063,-2.150835 -0.42063,-10.4527216 V -2.8803907 h -10.15828 -10.15827 v 10.15828 10.1582787 h 10.03208 c 8.30189,0 10.10464,0.07255 10.45273,0.420632 0.34808,0.348088 0.42062,2.150835 0.42062,10.452722 v 10.032089 h 10.15829 10.15827 z m 0,-20.9054427 v -10.15828 h -10.15827 -10.15829 v 10.15828 10.1582787 h 10.15829 10.15827 z m -13.54437,8.7619397 c -0.85891,-0.302416 -1.95457,-1.096929 -3.1148,-2.258686 -2.07425,-2.076993 -2.77406,-3.717554 -2.77406,-6.5032537 0,-2.7868045 0.69971,-4.4265384 2.77406,-6.50089132 2.07436,-2.07435148 3.71409,-2.77406018 6.5009,-2.77406018 2.7868,0 4.42653,0.6997087 6.50088,2.77406018 2.07435,2.07435292 2.77406,3.71408682 2.77406,6.50089132 0,2.7868037 -0.69971,4.4265387 -2.77406,6.5008897 -1.25588,1.255876 -2.22268,1.936615 -3.24085,2.281933 -1.8017,0.611047 -4.8788,0.601379 -6.64613,-0.02088 z"
         id="path4" /><path
         style="fill:#be02a8;stroke-width:1"
         d="m 185.84148,77.382689 c -4.35694,-1.621946 -6.44362,-6.671625 -4.4282,-10.716053 2.44417,-4.904787 8.67184,-5.963657 12.50868,-2.126807 3.83995,3.839945 2.78086,10.006366 -2.15718,12.559926 -1.29147,0.667843 -4.48019,0.820157 -5.9233,0.282934 z M 164.93603,56.477246 c -4.35694,-1.621946 -6.44361,-6.671626 -4.42819,-10.716053 2.44416,-4.904788 8.67183,-5.963657 12.50868,-2.126807 3.83995,3.839945 2.78085,10.006366 -2.15718,12.559925 -1.29147,0.667843 -4.48019,0.820158 -5.92331,0.282935 z M 144.0306,35.571802 c -4.35694,-1.621946 -6.44362,-6.671625 -4.4282,-10.716052 2.44415,-4.904788 8.67182,-5.963657 12.50868,-2.126807 3.83994,3.839944 2.78085,10.006366 -2.15718,12.559925 -1.29147,0.667843 -4.4802,0.820157 -5.9233,0.282934 z M 123.12515,14.666359 c -4.35694,-1.621946 -6.44362,-6.6716253 -4.4282,-10.7160527 2.44417,-4.90478813 8.67184,-5.9636573 12.50868,-2.1268071 3.83995,3.8399448 2.78086,10.0063678 -2.15718,12.5599248 -1.29147,0.667845 -4.4802,0.820158 -5.9233,0.282935 z"
         id="path3" /><path
         style="fill:#00bea7;stroke-width:1"
         d="m 80.614221,180.36392 -3.312482,-1.92884 v -3.91218 -3.91219 L 80.467,168.76346 c 1.740894,-1.01599 3.29776,-1.84725 3.459704,-1.84725 0.161943,0 1.71881,0.83126 3.459703,1.84725 l 3.165261,1.84725 v 3.91707 3.91708 l -2.281932,1.31675 c -1.255062,0.7242 -2.745679,1.58996 -3.312482,1.92393 l -1.03055,0.6072 z m -20.905442,-20.90545 -3.312483,-1.92882 v -3.9122 -3.91219 l 3.165261,-1.84725 c 1.740893,-1.01598 3.29776,-1.84725 3.459703,-1.84725 0.161944,0 1.71881,0.83127 3.459704,1.84725 l 3.165261,1.84725 v 3.91709 3.91708 l -2.281933,1.31673 c -1.255062,0.72421 -2.745679,1.58998 -3.312481,1.92394 l -1.030551,0.60719 z M 38.803335,138.55302 35.490853,136.6242 v -3.91219 -3.91219 l 3.165261,-1.84725 c 1.740893,-1.01598 3.29776,-1.84724 3.459703,-1.84724 0.161944,0 1.718811,0.83126 3.459705,1.84724 l 3.165259,1.84725 v 3.91708 3.91708 l -2.281931,1.31674 c -1.255063,0.7242 -2.74568,1.58997 -3.312483,1.92393 l -1.03055,0.60719 z M 17.897892,117.64758 14.58541,115.71875 v -3.91218 -3.91219 l 3.16526,-1.84725 c 1.740894,-1.01599 3.297761,-1.84725 3.459705,-1.84725 0.161942,0 1.71881,0.83126 3.459703,1.84725 l 3.165261,1.84725 v 3.91707 3.91709 l -2.281932,1.31674 c -1.255064,0.7242 -2.74568,1.58997 -3.312483,1.92393 l -1.030549,0.6072 z"
         id="path2" /><path
         style="fill:#3a3a3f;stroke-width:1"
         d="m 31.368653,184.97415 c 0,-0.16194 0.132499,-0.29444 0.294443,-0.29444 0.161944,0 0.294442,0.1325 0.294442,0.29444 0,0.16194 -0.132498,0.29444 -0.294442,0.29444 -0.161944,0 -0.294443,-0.1325 -0.294443,-0.29444 z m 20.905443,0 c 0,-0.16194 0.132499,-0.29444 0.294443,-0.29444 0.161944,0 0.294443,0.1325 0.294443,0.29444 0,0.16194 -0.132499,0.29444 -0.294443,0.29444 -0.161944,0 -0.294443,-0.1325 -0.294443,-0.29444 z m 20.905443,0 c 0,-0.16194 0.1325,-0.29444 0.294444,-0.29444 0.161942,0 0.294442,0.1325 0.294442,0.29444 0,0.16194 -0.1325,0.29444 -0.294442,0.29444 -0.161944,0 -0.294444,-0.1325 -0.294444,-0.29444 z m 20.905443,0 c 0,-0.16194 0.1325,-0.29444 0.294443,-0.29444 0.161944,0 0.294443,0.1325 0.294443,0.29444 0,0.16194 -0.132499,0.29444 -0.294443,0.29444 -0.161943,0 -0.294443,-0.1325 -0.294443,-0.29444 z m 20.905458,0 c 0,-0.16194 0.13249,-0.29444 0.29443,-0.29444 0.16195,0 0.29444,0.1325 0.29444,0.29444 0,0.16194 -0.13249,0.29444 -0.29444,0.29444 -0.16194,0 -0.29443,-0.1325 -0.29443,-0.29444 z m 20.90543,0 c 0,-0.16194 0.13251,-0.29444 0.29445,-0.29444 0.16194,0 0.29444,0.1325 0.29444,0.29444 0,0.16194 -0.1325,0.29444 -0.29444,0.29444 -0.16194,0 -0.29445,-0.1325 -0.29445,-0.29444 z m 20.90545,0 c 0,-0.16194 0.13249,-0.29444 0.29444,-0.29444 0.16194,0 0.29445,0.1325 0.29445,0.29444 0,0.16194 -0.13251,0.29444 -0.29445,0.29444 -0.16195,0 -0.29444,-0.1325 -0.29444,-0.29444 z m 20.90544,0 c 0,-0.16194 0.1325,-0.29444 0.29444,-0.29444 0.16195,0 0.29444,0.1325 0.29444,0.29444 0,0.16194 -0.13249,0.29444 -0.29444,0.29444 -0.16194,0 -0.29444,-0.1325 -0.29444,-0.29444 z m 20.90544,0 c 0,-0.16194 0.13251,-0.29444 0.29445,-0.29444 0.16194,0 0.29444,0.1325 0.29444,0.29444 0,0.16194 -0.1325,0.29444 -0.29444,0.29444 -0.16194,0 -0.29445,-0.1325 -0.29445,-0.29444 z M 31.368653,164.0687 c 0,-0.16194 0.132499,-0.29444 0.294443,-0.29444 0.161944,0 0.294442,0.1325 0.294442,0.29444 0,0.16195 -0.132498,0.29445 -0.294442,0.29445 -0.161944,0 -0.294443,-0.1325 -0.294443,-0.29445 z m 20.905443,0 c 0,-0.16194 0.132499,-0.29444 0.294443,-0.29444 0.161944,0 0.294443,0.1325 0.294443,0.29444 0,0.16195 -0.132499,0.29445 -0.294443,0.29445 -0.161944,0 -0.294443,-0.1325 -0.294443,-0.29445 z m 20.905443,0 c 0,-0.16194 0.1325,-0.29444 0.294444,-0.29444 0.161942,0 0.294442,0.1325 0.294442,0.29444 0,0.16195 -0.1325,0.29445 -0.294442,0.29445 -0.161944,0 -0.294444,-0.1325 -0.294444,-0.29445 z m 20.905443,0 c 0,-0.16194 0.1325,-0.29444 0.294443,-0.29444 0.161944,0 0.294443,0.1325 0.294443,0.29444 0,0.16195 -0.132499,0.29445 -0.294443,0.29445 -0.161943,0 -0.294443,-0.1325 -0.294443,-0.29445 z m 20.905458,0 c 0,-0.16194 0.13249,-0.29444 0.29443,-0.29444 0.16195,0 0.29444,0.1325 0.29444,0.29444 0,0.16195 -0.13249,0.29445 -0.29444,0.29445 -0.16194,0 -0.29443,-0.1325 -0.29443,-0.29445 z m 20.90543,0 c 0,-0.16194 0.13251,-0.29444 0.29445,-0.29444 0.16194,0 0.29444,0.1325 0.29444,0.29444 0,0.16195 -0.1325,0.29445 -0.29444,0.29445 -0.16194,0 -0.29445,-0.1325 -0.29445,-0.29445 z m 20.90545,0 c 0,-0.16194 0.13249,-0.29444 0.29444,-0.29444 0.16194,0 0.29445,0.1325 0.29445,0.29444 0,0.16195 -0.13251,0.29445 -0.29445,0.29445 -0.16195,0 -0.29444,-0.1325 -0.29444,-0.29445 z m 20.90544,0 c 0,-0.16194 0.1325,-0.29444 0.29444,-0.29444 0.16195,0 0.29444,0.1325 0.29444,0.29444 0,0.16195 -0.13249,0.29445 -0.29444,0.29445 -0.16194,0 -0.29444,-0.1325 -0.29444,-0.29445 z m 20.90544,0 c 0,-0.16194 0.13251,-0.29444 0.29445,-0.29444 0.16194,0 0.29444,0.1325 0.29444,0.29444 0,0.16195 -0.1325,0.29445 -0.29444,0.29445 -0.16194,0 -0.29445,-0.1325 -0.29445,-0.29445 z M 31.368653,143.16327 c 0,-0.16194 0.132499,-0.29445 0.294443,-0.29445 0.161944,0 0.294442,0.13251 0.294442,0.29445 0,0.16194 -0.132498,0.29444 -0.294442,0.29444 -0.161944,0 -0.294443,-0.1325 -0.294443,-0.29444 z m 20.905443,0 c 0,-0.16194 0.132499,-0.29445 0.294443,-0.29445 0.161944,0 0.294443,0.13251 0.294443,0.29445 0,0.16194 -0.132499,0.29444 -0.294443,0.29444 -0.161944,0 -0.294443,-0.1325 -0.294443,-0.29444 z m 20.905443,0 c 0,-0.16194 0.1325,-0.29445 0.294444,-0.29445 0.161942,0 0.294442,0.13251 0.294442,0.29445 0,0.16194 -0.1325,0.29444 -0.294442,0.29444 -0.161944,0 -0.294444,-0.1325 -0.294444,-0.29444 z m 20.905443,0 c 0,-0.16194 0.1325,-0.29445 0.294443,-0.29445 0.161944,0 0.294443,0.13251 0.294443,0.29445 0,0.16194 -0.132499,0.29444 -0.294443,0.29444 -0.161943,0 -0.294443,-0.1325 -0.294443,-0.29444 z m 20.905458,0 c 0,-0.16194 0.13249,-0.29445 0.29443,-0.29445 0.16195,0 0.29444,0.13251 0.29444,0.29445 0,0.16194 -0.13249,0.29444 -0.29444,0.29444 -0.16194,0 -0.29443,-0.1325 -0.29443,-0.29444 z m 20.90543,0 c 0,-0.16194 0.13251,-0.29445 0.29445,-0.29445 0.16194,0 0.29444,0.13251 0.29444,0.29445 0,0.16194 -0.1325,0.29444 -0.29444,0.29444 -0.16194,0 -0.29445,-0.1325 -0.29445,-0.29444 z m 20.90545,0 c 0,-0.16194 0.13249,-0.29445 0.29444,-0.29445 0.16194,0 0.29445,0.13251 0.29445,0.29445 0,0.16194 -0.13251,0.29444 -0.29445,0.29444 -0.16195,0 -0.29444,-0.1325 -0.29444,-0.29444 z m 20.90544,0 c 0,-0.16194 0.1325,-0.29445 0.29444,-0.29445 0.16195,0 0.29444,0.13251 0.29444,0.29445 0,0.16194 -0.13249,0.29444 -0.29444,0.29444 -0.16194,0 -0.29444,-0.1325 -0.29444,-0.29444 z m 20.90544,0 c 0,-0.16194 0.13251,-0.29445 0.29445,-0.29445 0.16194,0 0.29444,0.13251 0.29444,0.29445 0,0.16194 -0.1325,0.29444 -0.29444,0.29444 -0.16194,0 -0.29445,-0.1325 -0.29445,-0.29444 z M 31.368653,122.25782 c 0,-0.16194 0.132499,-0.29444 0.294443,-0.29444 0.161944,0 0.294442,0.1325 0.294442,0.29444 0,0.16194 -0.132498,0.29444 -0.294442,0.29444 -0.161944,0 -0.294443,-0.1325 -0.294443,-0.29444 z m 20.905443,0 c 0,-0.16194 0.132499,-0.29444 0.294443,-0.29444 0.161944,0 0.294443,0.1325 0.294443,0.29444 0,0.16194 -0.132499,0.29444 -0.294443,0.29444 -0.161944,0 -0.294443,-0.1325 -0.294443,-0.29444 z m 20.905443,0 c 0,-0.16194 0.1325,-0.29444 0.294444,-0.29444 0.161942,0 0.294442,0.1325 0.294442,0.29444 0,0.16194 -0.1325,0.29444 -0.294442,0.29444 -0.161944,0 -0.294444,-0.1325 -0.294444,-0.29444 z m 20.905443,0 c 0,-0.16194 0.1325,-0.29444 0.294443,-0.29444 0.161944,0 0.294443,0.1325 0.294443,0.29444 0,0.16194 -0.132499,0.29444 -0.294443,0.29444 -0.161943,0 -0.294443,-0.1325 -0.294443,-0.29444 z m 20.905458,0 c 0,-0.16194 0.13249,-0.29444 0.29443,-0.29444 0.16195,0 0.29444,0.1325 0.29444,0.29444 0,0.16194 -0.13249,0.29444 -0.29444,0.29444 -0.16194,0 -0.29443,-0.1325 -0.29443,-0.29444 z m 20.90543,0 c 0,-0.16194 0.13251,-0.29444 0.29445,-0.29444 0.16194,0 0.29444,0.1325 0.29444,0.29444 0,0.16194 -0.1325,0.29444 -0.29444,0.29444 -0.16194,0 -0.29445,-0.1325 -0.29445,-0.29444 z m 20.90545,0 c 0,-0.16194 0.13249,-0.29444 0.29444,-0.29444 0.16194,0 0.29445,0.1325 0.29445,0.29444 0,0.16194 -0.13251,0.29444 -0.29445,0.29444 -0.16195,0 -0.29444,-0.1325 -0.29444,-0.29444 z m 20.90544,0 c 0,-0.16194 0.1325,-0.29444 0.29444,-0.29444 0.16195,0 0.29444,0.1325 0.29444,0.29444 0,0.16194 -0.13249,0.29444 -0.29444,0.29444 -0.16194,0 -0.29444,-0.1325 -0.29444,-0.29444 z m 20.90544,0 c 0,-0.16194 0.13251,-0.29444 0.29445,-0.29444 0.16194,0 0.29444,0.1325 0.29444,0.29444 0,0.16194 -0.1325,0.29444 -0.29444,0.29444 -0.16194,0 -0.29445,-0.1325 -0.29445,-0.29444 z M 31.368653,101.35237 c 0,-0.16194 0.132499,-0.29443 0.294443,-0.29443 0.161944,0 0.294442,0.13249 0.294442,0.29443 0,0.16195 -0.132498,0.29446 -0.294442,0.29446 -0.161944,0 -0.294443,-0.13251 -0.294443,-0.29446 z m 20.905443,0 c 0,-0.16194 0.132499,-0.29443 0.294443,-0.29443 0.161944,0 0.294443,0.13249 0.294443,0.29443 0,0.16195 -0.132499,0.29446 -0.294443,0.29446 -0.161944,0 -0.294443,-0.13251 -0.294443,-0.29446 z m 20.905443,0 c 0,-0.16194 0.1325,-0.29443 0.294444,-0.29443 0.161942,0 0.294442,0.13249 0.294442,0.29443 0,0.16195 -0.1325,0.29446 -0.294442,0.29446 -0.161944,0 -0.294444,-0.13251 -0.294444,-0.29446 z m 20.905443,0 c 0,-0.16194 0.1325,-0.29443 0.294443,-0.29443 0.161944,0 0.294443,0.13249 0.294443,0.29443 0,0.16195 -0.132499,0.29446 -0.294443,0.29446 -0.161943,0 -0.294443,-0.13251 -0.294443,-0.29446 z m 20.905458,0 c 0,-0.16194 0.13249,-0.29443 0.29443,-0.29443 0.16195,0 0.29444,0.13249 0.29444,0.29443 0,0.16195 -0.13249,0.29446 -0.29444,0.29446 -0.16194,0 -0.29443,-0.13251 -0.29443,-0.29446 z m 20.90543,0 c 0,-0.16194 0.13251,-0.29443 0.29445,-0.29443 0.16194,0 0.29444,0.13249 0.29444,0.29443 0,0.16195 -0.1325,0.29446 -0.29444,0.29446 -0.16194,0 -0.29445,-0.13251 -0.29445,-0.29446 z m 20.90545,0 c 0,-0.16194 0.13249,-0.29443 0.29444,-0.29443 0.16194,0 0.29445,0.13249 0.29445,0.29443 0,0.16195 -0.13251,0.29446 -0.29445,0.29446 -0.16195,0 -0.29444,-0.13251 -0.29444,-0.29446 z m 20.90544,0 c 0,-0.16194 0.1325,-0.29443 0.29444,-0.29443 0.16195,0 0.29444,0.13249 0.29444,0.29443 0,0.16195 -0.13249,0.29446 -0.29444,0.29446 -0.16194,0 -0.29444,-0.13251 -0.29444,-0.29446 z m 20.90544,0 c 0,-0.16194 0.13251,-0.29443 0.29445,-0.29443 0.16194,0 0.29444,0.13249 0.29444,0.29443 0,0.16195 -0.1325,0.29446 -0.29444,0.29446 -0.16194,0 -0.29445,-0.13251 -0.29445,-0.29446 z M 31.368653,80.446945 c 0,-0.161954 0.132499,-0.29445 0.294443,-0.29445 0.161944,0 0.294442,0.132496 0.294442,0.29445 0,0.161943 -0.132498,0.294439 -0.294442,0.294439 -0.161944,0 -0.294443,-0.132496 -0.294443,-0.294439 z m 20.905443,0 c 0,-0.161954 0.132499,-0.29445 0.294443,-0.29445 0.161944,0 0.294443,0.132496 0.294443,0.29445 0,0.161943 -0.132499,0.294439 -0.294443,0.294439 -0.161944,0 -0.294443,-0.132496 -0.294443,-0.294439 z m 20.905443,0 c 0,-0.161954 0.1325,-0.29445 0.294444,-0.29445 0.161942,0 0.294442,0.132496 0.294442,0.29445 0,0.161943 -0.1325,0.294439 -0.294442,0.294439 -0.161944,0 -0.294444,-0.132496 -0.294444,-0.294439 z m 20.905443,0 c 0,-0.161954 0.1325,-0.29445 0.294443,-0.29445 0.161944,0 0.294443,0.132496 0.294443,0.29445 0,0.161943 -0.132499,0.294439 -0.294443,0.294439 -0.161943,0 -0.294443,-0.132496 -0.294443,-0.294439 z m 20.905458,0 c 0,-0.161954 0.13249,-0.29445 0.29443,-0.29445 0.16195,0 0.29444,0.132496 0.29444,0.29445 0,0.161943 -0.13249,0.294439 -0.29444,0.294439 -0.16194,0 -0.29443,-0.132496 -0.29443,-0.294439 z m 20.90543,0 c 0,-0.161954 0.13251,-0.29445 0.29445,-0.29445 0.16194,0 0.29444,0.132496 0.29444,0.29445 0,0.161943 -0.1325,0.294439 -0.29444,0.294439 -0.16194,0 -0.29445,-0.132496 -0.29445,-0.294439 z m 20.90545,0 c 0,-0.161954 0.13249,-0.29445 0.29444,-0.29445 0.16194,0 0.29445,0.132496 0.29445,0.29445 0,0.161943 -0.13251,0.294439 -0.29445,0.294439 -0.16195,0 -0.29444,-0.132496 -0.29444,-0.294439 z m 20.90544,0 c 0,-0.161954 0.1325,-0.29445 0.29444,-0.29445 0.16195,0 0.29444,0.132496 0.29444,0.29445 0,0.161943 -0.13249,0.294439 -0.29444,0.294439 -0.16194,0 -0.29444,-0.132496 -0.29444,-0.294439 z m 20.90544,0 c 0,-0.161954 0.13251,-0.29445 0.29445,-0.29445 0.16194,0 0.29444,0.132496 0.29444,0.29445 0,0.161943 -0.1325,0.294439 -0.29444,0.294439 -0.16194,0 -0.29445,-0.132496 -0.29445,-0.294439 z M 31.368653,59.541497 c 0,-0.161944 0.132499,-0.294443 0.294443,-0.294443 0.161944,0 0.294442,0.132499 0.294442,0.294443 0,0.161944 -0.132498,0.294443 -0.294442,0.294443 -0.161944,0 -0.294443,-0.132499 -0.294443,-0.294443 z m 20.905443,0 c 0,-0.161944 0.132499,-0.294443 0.294443,-0.294443 0.161944,0 0.294443,0.132499 0.294443,0.294443 0,0.161944 -0.132499,0.294443 -0.294443,0.294443 -0.161944,0 -0.294443,-0.132499 -0.294443,-0.294443 z m 20.905443,0 c 0,-0.161944 0.1325,-0.294443 0.294444,-0.294443 0.161942,0 0.294442,0.132499 0.294442,0.294443 0,0.161944 -0.1325,0.294443 -0.294442,0.294443 -0.161944,0 -0.294444,-0.132499 -0.294444,-0.294443 z m 20.905443,0 c 0,-0.161944 0.1325,-0.294443 0.294443,-0.294443 0.161944,0 0.294443,0.132499 0.294443,0.294443 0,0.161944 -0.132499,0.294443 -0.294443,0.294443 -0.161943,0 -0.294443,-0.132499 -0.294443,-0.294443 z m 20.905458,0 c 0,-0.161944 0.13249,-0.294443 0.29443,-0.294443 0.16195,0 0.29444,0.132499 0.29444,0.294443 0,0.161944 -0.13249,0.294443 -0.29444,0.294443 -0.16194,0 -0.29443,-0.132499 -0.29443,-0.294443 z m 20.90543,0 c 0,-0.161944 0.13251,-0.294443 0.29445,-0.294443 0.16194,0 0.29444,0.132499 0.29444,0.294443 0,0.161944 -0.1325,0.294443 -0.29444,0.294443 -0.16194,0 -0.29445,-0.132499 -0.29445,-0.294443 z m 20.90545,0 c 0,-0.161944 0.13249,-0.294443 0.29444,-0.294443 0.16194,0 0.29445,0.132499 0.29445,0.294443 0,0.161944 -0.13251,0.294443 -0.29445,0.294443 -0.16195,0 -0.29444,-0.132499 -0.29444,-0.294443 z m 20.90544,0 c 0,-0.161944 0.1325,-0.294443 0.29444,-0.294443 0.16195,0 0.29444,0.132499 0.29444,0.294443 0,0.161944 -0.13249,0.294443 -0.29444,0.294443 -0.16194,0 -0.29444,-0.132499 -0.29444,-0.294443 z m 20.90544,0 c 0,-0.161944 0.13251,-0.294443 0.29445,-0.294443 0.16194,0 0.29444,0.132499 0.29444,0.294443 0,0.161944 -0.1325,0.294443 -0.29444,0.294443 -0.16194,0 -0.29445,-0.132499 -0.29445,-0.294443 z M 31.368653,38.636054 c 0,-0.161944 0.132499,-0.294443 0.294443,-0.294443 0.161944,0 0.294442,0.132499 0.294442,0.294443 0,0.161944 -0.132498,0.294442 -0.294442,0.294442 -0.161944,0 -0.294443,-0.132498 -0.294443,-0.294442 z m 20.905443,0 c 0,-0.161944 0.132499,-0.294443 0.294443,-0.294443 0.161944,0 0.294443,0.132499 0.294443,0.294443 0,0.161944 -0.132499,0.294442 -0.294443,0.294442 -0.161944,0 -0.294443,-0.132498 -0.294443,-0.294442 z m 20.905443,0 c 0,-0.161944 0.1325,-0.294443 0.294444,-0.294443 0.161942,0 0.294442,0.132499 0.294442,0.294443 0,0.161944 -0.1325,0.294442 -0.294442,0.294442 -0.161944,0 -0.294444,-0.132498 -0.294444,-0.294442 z m 20.905443,0 c 0,-0.161944 0.1325,-0.294443 0.294443,-0.294443 0.161944,0 0.294443,0.132499 0.294443,0.294443 0,0.161944 -0.132499,0.294442 -0.294443,0.294442 -0.161943,0 -0.294443,-0.132498 -0.294443,-0.294442 z m 20.905458,0 c 0,-0.161944 0.13249,-0.294443 0.29443,-0.294443 0.16195,0 0.29444,0.132499 0.29444,0.294443 0,0.161944 -0.13249,0.294442 -0.29444,0.294442 -0.16194,0 -0.29443,-0.132498 -0.29443,-0.294442 z m 20.90543,0 c 0,-0.161944 0.13251,-0.294443 0.29445,-0.294443 0.16194,0 0.29444,0.132499 0.29444,0.294443 0,0.161944 -0.1325,0.294442 -0.29444,0.294442 -0.16194,0 -0.29445,-0.132498 -0.29445,-0.294442 z m 20.90545,0 c 0,-0.161944 0.13249,-0.294443 0.29444,-0.294443 0.16194,0 0.29445,0.132499 0.29445,0.294443 0,0.161944 -0.13251,0.294442 -0.29445,0.294442 -0.16195,0 -0.29444,-0.132498 -0.29444,-0.294442 z m 20.90544,0 c 0,-0.161944 0.1325,-0.294443 0.29444,-0.294443 0.16195,0 0.29444,0.132499 0.29444,0.294443 0,0.161944 -0.13249,0.294442 -0.29444,0.294442 -0.16194,0 -0.29444,-0.132498 -0.29444,-0.294442 z m 20.90544,0 c 0,-0.161944 0.13251,-0.294443 0.29445,-0.294443 0.16194,0 0.29444,0.132499 0.29444,0.294443 0,0.161944 -0.1325,0.294442 -0.29444,0.294442 -0.16194,0 -0.29445,-0.132498 -0.29445,-0.294442 z M 31.368653,17.73061 c 0,-0.161943 0.132499,-0.294442 0.294443,-0.294442 0.161944,0 0.294442,0.132499 0.294442,0.294442 0,0.161944 -0.132498,0.294443 -0.294442,0.294443 -0.161944,0 -0.294443,-0.132499 -0.294443,-0.294443 z m 20.905443,0 c 0,-0.161943 0.132499,-0.294442 0.294443,-0.294442 0.161944,0 0.294443,0.132499 0.294443,0.294442 0,0.161944 -0.132499,0.294443 -0.294443,0.294443 -0.161944,0 -0.294443,-0.132499 -0.294443,-0.294443 z m 20.905443,0 c 0,-0.161943 0.1325,-0.294442 0.294444,-0.294442 0.161942,0 0.294442,0.132499 0.294442,0.294442 0,0.161944 -0.1325,0.294443 -0.294442,0.294443 -0.161944,0 -0.294444,-0.132499 -0.294444,-0.294443 z m 20.905443,0 c 0,-0.161943 0.1325,-0.294442 0.294443,-0.294442 0.161944,0 0.294443,0.132499 0.294443,0.294442 0,0.161944 -0.132499,0.294443 -0.294443,0.294443 -0.161943,0 -0.294443,-0.132499 -0.294443,-0.294443 z m 20.905458,0 c 0,-0.161943 0.13249,-0.294442 0.29443,-0.294442 0.16195,0 0.29444,0.132499 0.29444,0.294442 0,0.161944 -0.13249,0.294443 -0.29444,0.294443 -0.16194,0 -0.29443,-0.132499 -0.29443,-0.294443 z m 20.90543,0 c 0,-0.161943 0.13251,-0.294442 0.29445,-0.294442 0.16194,0 0.29444,0.132499 0.29444,0.294442 0,0.161944 -0.1325,0.294443 -0.29444,0.294443 -0.16194,0 -0.29445,-0.132499 -0.29445,-0.294443 z m 20.90545,0 c 0,-0.161943 0.13249,-0.294442 0.29444,-0.294442 0.16194,0 0.29445,0.132499 0.29445,0.294442 0,0.161944 -0.13251,0.294443 -0.29445,0.294443 -0.16195,0 -0.29444,-0.132499 -0.29444,-0.294443 z m 20.90544,0 c 0,-0.161943 0.1325,-0.294442 0.29444,-0.294442 0.16195,0 0.29444,0.132499 0.29444,0.294442 0,0.161944 -0.13249,0.294443 -0.29444,0.294443 -0.16194,0 -0.29444,-0.132499 -0.29444,-0.294443 z m 20.90544,0 c 0,-0.161943 0.13251,-0.294442 0.29445,-0.294442 0.16194,0 0.29444,0.132499 0.29444,0.294442 0,0.161944 -0.1325,0.294443 -0.29444,0.294443 -0.16194,0 -0.29445,-0.132499 -0.29445,-0.294443 z"
         id="path1" /></g></g></svg>
