<?xml version="1.0" encoding="UTF-8" standalone="no"?>
<!-- Created with Inkscape (http://www.inkscape.org/) -->

<svg
   width="200mm"
   height="200mm"
   viewBox="0 0 200 200"
   version="1.1"
   id="svg1"
   xml:space="preserve"
   inkscape:version="1.3.2 (1:1.3.2+202311252150+091e20ef0f)"
   sodipodi:docname="momul_board.svg"
   xmlns:inkscape="http://www.inkscape.org/namespaces/inkscape"
   xmlns:sodipodi="http://sodipodi.sourceforge.net/DTD/sodipodi-0.dtd"
   xmlns="http://www.w3.org/2000/svg"
   xmlns:svg="http://www.w3.org/2000/svg"><sodipodi:namedview
     id="namedview1"
     pagecolor="#ffffff"
     bordercolor="#666666"
     borderopacity="1.0"
     inkscape:showpageshadow="2"
     inkscape:pageopacity="0.0"
     inkscape:pagecheckerboard="0"
     inkscape:deskcolor="#d1d1d1"
     inkscape:document-units="mm"
     inkscape:zoom="2.0535658"
     inkscape:cx="15.095693"
     inkscape:cy="177.00918"
     inkscape:window-width="1920"
     inkscape:window-height="1012"
     inkscape:window-x="0"
     inkscape:window-y="0"
     inkscape:window-maximized="1"
     inkscape:current-layer="g1" /><defs
     id="defs1" /><g
     inkscape:label="Layer 1"
     inkscape:groupmode="layer"
     id="layer1"><g
       id="g1"
       transform="translate(-5.0259944,8.9065013)"><path
         style="fill:#be02a8;stroke-width:1"
         d="m 185.84148,77.382689 c -4.35694,-1.621946 -6.44362,-6.671625 -4.4282,-10.716053 2.44417,-4.904787 8.67184,-5.963657 12.50868,-2.126807 3.83995,3.839945 2.78086,10.006366 -2.15718,12.559926 -1.29147,0.667843 -4.48019,0.820157 -5.9233,0.282934 z M 164.93603,56.477246 c -4.35694,-1.621946 -6.44361,-6.671626 -4.42819,-10.716053 2.44416,-4.904788 8.67183,-5.963657 12.50868,-2.126807 3.83995,3.839945 2.78085,10.006366 -2.15718,12.559925 -1.29147,0.667843 -4.48019,0.820158 -5.92331,0.282935 z M 144.0306,35.571802 c -4.35694,-1.621946 -6.44362,-6.671625 -4.4282,-10.716052 2.44415,-4.904788 8.67182,-5.963657 12.50868,-2.126807 3.83994,3.839944 2.78085,10.006366 -2.15718,12.559925 -1.29147,0.667843 -4.4802,0.820157 -5.9233,0.282934 z M 123.12515,14.666359 c -4.35694,-1.621946 -6.44362,-6.6716253 -4.4282,-10.7160527 2.44417,-4.90478813 8.67184,-5.9636573 12.50868,-2.1268071 3.83995,3.8399448 2.78086,10.0063678 -2.15718,12.5599248 -1.29147,0.667845 -4.4802,0.820158 -5.9233,0.282935 z"
         id="path3" /><path
         style="fill:#00bea7;stroke-width:1"
         d="m 80.614221,180.36392 -3.312482,-1.92884 v -3.91218 -3.91219 L 80.467,168.76346 c 1.740894,-1.01599 3.29776,-1.84725 3.459704,-1.84725 0.161943,0 1.71881,0.83126 3.459703,1.84725 l 3.165261,1.84725 v 3.91707 3.91708 l -2.281932,1.31675 c -1.255062,0.7242 -2.745679,1.58996 -3.312482,1.92393 l -1.03055,0.6072 z m -20.905442,-20.90545 -3.312483,-1.92882 v -3.9122 -3.91219 l 3.165261,-1.84725 c 1.740893,-1.01598 3.29776,-1.84725 3.459703,-1.84725 0.161944,0 1.71881,0.83127 3.459704,1.84725 l 3.165261,1.84725 v 3.91709 3.91708 l -2.281933,1.31673 c -1.255062,0.72421 -2.745679,1.58998 -3.312481,1.92394 l -1.030551,0.60719 z M 38.803335,138.55302 35.490853,136.6242 v -3.91219 -3.91219 l 3.165261,-1.84725 c 1.740893,-1.01598 3.29776,-1.84724 3.459703,-1.84724 0.161944,0 1.718811,0.83126 3.459705,1.84724 l 3.165259,1.84725 v 3.91708 3.91708 l -2.281931,1.31674 c -1.255063,0.7242 -2.74568,1.58997 -3.312483,1.92393 l -1.03055,0.60719 z M 17.897892,117.64758 14.58541,115.71875 v -3.91218 -3.91219 l 3.16526,-1.84725 c 1.740894,-1.01599 3.297761,-1.84725 3.459705,-1.84725 0.161942,0 1.71881,0.83126 3.459703,1.84725 l 3.165261,1.84725 v 3.91707 3.91709 l -2.281932,1.31674 c -1.255064,0.7242 -2.74568,1.58997 -3.312483,1.92393 l -1.030549,0.6072 z"
         id="path2" /><path
         id="path23"
         style="fill:none;stroke:#76767e;stroke-width:0.999998;stroke-linecap:butt;stroke-linejoin:miter;stroke-dasharray:none;stroke-opacity:1"
         d="M 31.685804,-2.7706752 V 185.08953 M 52.515351,-2.7706752 V 185.08953 M 73.344908,-2.7706752 V 185.08953 M 94.174455,-2.7706752 V 185.08953 M 115.004,-2.7706752 V 185.08953 M 135.83356,-2.7706752 V 185.08953 M 156.66311,-2.7706752 V 185.08953 M 177.49265,-2.7706752 V 185.08953 M 10.725011,164.11402 H 198.45345 M 10.725011,143.26986 H 198.45345 M 10.725011,122.42568 H 198.45345 M 10.725011,101.58151 H 198.45345 M 10.725011,80.737341 H 198.45345 M 10.725011,59.893171 H 198.45345 M 10.725011,39.049001 H 198.45345 M 10.725011,18.20483 H 198.45345 M 10.725012,-2.7706752 H 198.45345 V 184.95767 H 10.725012 Z" /><ellipse
         style="fill:#76767e;fill-opacity:1;fill-rule:evenodd;stroke:none;stroke-width:0.999998;stroke-linecap:round;stroke-linejoin:round;stroke-dasharray:none;stroke-opacity:1;paint-order:fill markers stroke"
         id="path24"
         cx="187.99426"
         cy="7.6398087"
         rx="9.3832836"
         ry="9.4105511" /><path
         sodipodi:type="star"
         style="fill:#76767e;fill-opacity:1;fill-rule:evenodd;stroke:none;stroke-width:1.93141;stroke-linecap:round;stroke-linejoin:round;stroke-dasharray:none;stroke-opacity:1;paint-order:fill markers stroke"
         id="path25"
         inkscape:flatsided="true"
         sodipodi:sides="6"
         sodipodi:cx="62.8288"
         sodipodi:cy="658.94086"
         sodipodi:r1="69.356171"
         sodipodi:r2="47.195164"
         sodipodi:arg1="1.5979544"
         sodipodi:arg2="2.1215532"
         inkscape:rounded="0"
         inkscape:randomized="0"
         d="m 60.945452,728.27145 -59.1003826,-36.29632 1.8833485,-69.3306 60.9837311,-33.03427 59.100381,36.29633 -1.88335,69.33059 z"
         transform="matrix(0.14181069,-0.00424297,0.00395587,0.13221501,9.7565534,87.664061)" /></g></g></svg>
