<?xml version="1.0" encoding="UTF-8" standalone="no"?>
<!-- Created with Inkscape (http://www.inkscape.org/) -->

<svg
   width="10mm"
   height="10mm"
   viewBox="0 0 10 10"
   version="1.1"
   id="svg5"
   sodipodi:docname="close.svg"
   inkscape:version="1.2.2 (1:1.2.2+202212051552+b0a8486541)"
   xmlns:inkscape="http://www.inkscape.org/namespaces/inkscape"
   xmlns:sodipodi="http://sodipodi.sourceforge.net/DTD/sodipodi-0.dtd"
   xmlns="http://www.w3.org/2000/svg"
   xmlns:svg="http://www.w3.org/2000/svg">
  <sodipodi:namedview
     id="namedview7"
     pagecolor="#ffffff"
     bordercolor="#666666"
     borderopacity="1.0"
     inkscape:showpageshadow="2"
     inkscape:pageopacity="0.0"
     inkscape:pagecheckerboard="0"
     inkscape:deskcolor="#d1d1d1"
     inkscape:document-units="mm"
     showgrid="false"
     inkscape:zoom="3.3688526"
     inkscape:cx="17.6618"
     inkscape:cy="47.790752"
     inkscape:window-width="1920"
     inkscape:window-height="1012"
     inkscape:window-x="0"
     inkscape:window-y="0"
     inkscape:window-maximized="1"
     inkscape:current-layer="layer1" />
  <defs
     id="defs2" />
  <g
     inkscape:label="Layer 1"
     inkscape:groupmode="layer"
     id="layer1">
    <path
       id="rect233"
       style="stroke-width:9.99997;stroke-linecap:round;stroke-linejoin:round;paint-order:fill markers stroke"
       d="M 8.3049189,-2.5356301e-8 C 8.5094533,0.49458815 8.532474,0.70001944 8.2177812,1.0147124 L 4.9526426,4.279851 4.2801667,4.9523268 1.0143967,8.2174654 C 0.69970383,8.5321581 0.49490389,8.509769 3.1570058e-4,8.3052345 L 0.4637873,8.7680748 1.2316095,9.5365284 1.6950812,10 C 1.4905467,9.5054119 1.4681574,9.2999806 1.7828503,8.9852876 L 5.0479889,5.720149 5.7204647,5.0476732 8.9856033,1.7825346 C 9.3002963,1.4678417 9.505096,1.490231 9.9996843,1.6947653 L 9.5362127,1.2312937 8.7683905,0.46347157 Z" />
    <path
       id="path502"
       style="stroke-width:9.99997;stroke-linecap:round;stroke-linejoin:round;paint-order:fill markers stroke"
       d="M 8.3049189,10 C 8.5094533,9.5054119 8.532474,9.2999806 8.2177812,8.9852876 L 4.9526426,5.720149 4.2801667,5.0476732 1.0143967,1.7825346 C 0.69970383,1.4678419 0.49490389,1.490231 3.1570058e-4,1.6947655 L 0.4637873,1.2319252 1.2316095,0.46347157 1.6950812,-2.5356301e-8 C 1.4905467,0.49458815 1.4681574,0.70001944 1.7828503,1.0147124 L 5.0479889,4.279851 5.7204647,4.9523268 8.9856033,8.2174654 c 0.314693,0.3146929 0.5194927,0.2923036 1.014081,0.087769 L 9.5362127,8.7687059 8.7683905,9.5365281 Z" />
  </g>
</svg>
