<?xml version="1.0" encoding="UTF-8" standalone="no"?>
<!-- Created with Inkscape (http://www.inkscape.org/) -->

<svg
   width="200mm"
   height="200mm"
   viewBox="0 0 200 200"
   version="1.1"
   id="svg5"
   inkscape:version="1.2.2 (1:1.2.2+202212051552+b0a8486541)"
   sodipodi:docname="profile.svg"
   xmlns:inkscape="http://www.inkscape.org/namespaces/inkscape"
   xmlns:sodipodi="http://sodipodi.sourceforge.net/DTD/sodipodi-0.dtd"
   xmlns="http://www.w3.org/2000/svg"
   xmlns:svg="http://www.w3.org/2000/svg">
  <sodipodi:namedview
     id="namedview7"
     pagecolor="#999999"
     bordercolor="#ffffff"
     borderopacity="0"
     inkscape:showpageshadow="0"
     inkscape:pageopacity="0"
     inkscape:pagecheckerboard="1"
     inkscape:deskcolor="#808080"
     inkscape:document-units="mm"
     showgrid="false"
     inkscape:zoom="0.69741924"
     inkscape:cx="323.33493"
     inkscape:cy="421.55419"
     inkscape:window-width="1920"
     inkscape:window-height="1012"
     inkscape:window-x="0"
     inkscape:window-y="0"
     inkscape:window-maximized="1"
     inkscape:current-layer="layer1"
     showguides="false" />
  <defs
     id="defs2" />
  <g
     inkscape:label="Layer 1"
     inkscape:groupmode="layer"
     id="layer1">
    <path
       style="fill:#1f0f80;fill-opacity:1;stroke:#0f006a;stroke-width:5;stroke-linecap:butt;stroke-linejoin:miter;stroke-dasharray:none;stroke-opacity:1"
       d="m 55.88856,177.86637 c -14.319963,2.5247 112.26812,-20.81372 94.63779,0.11676 -92.007096,27.91883 -64.928163,0.77128 -94.63779,-0.11676 z"
       id="path367"
       sodipodi:nodetypes="ccc" />
    <path
       id="path1768"
       style="fill:#ffffff;fill-opacity:1;stroke:#0f006a;stroke-width:3;stroke-linecap:round;stroke-linejoin:round;stroke-dasharray:none;stroke-opacity:1;paint-order:fill markers stroke"
       d="m 104.86972,23.908897 c -20.436836,0.108114 -41.040481,8.073616 -52.262287,28.632579 -2.353204,0.386217 -3.57413,2.353714 -3.869383,3.07184 -1.126509,4.926024 -1.208689,10.039134 -3.039845,13.870037 -1.582726,3.311164 -0.436471,6.050692 3.758779,6.18954 -0.02062,0.104435 -0.212931,1.086674 -0.51256,2.812405 -0.323044,-0.04431 -0.642215,-0.09137 -0.954532,-0.14388 l -0.752206,4.239966 1.025571,0.104313 c -1.008132,6.539674 -2.288702,16.635106 -2.35553,26.275193 -0.0029,0.41368 0.0019,0.82324 0.0036,1.23469 -0.05628,-0.32483 -0.106131,-0.48616 -0.148372,-0.40017 -0.363189,0.73915 0.04843,11.844 -0.08948,16.24719 -0.105998,3.38374 1.059867,7.85705 1.303882,10.23977 0.4063,3.96734 1.668442,7.24452 3.154945,10.36475 2.665017,5.594 1.958149,10.00849 6.107564,13.89343 1.428476,1.33743 6.26428,4.31949 7.946037,6.92197 2.098325,3.2472 6.366935,3.15864 9.373115,5.00118 2.790761,1.71053 6.29326,2.17185 9.537672,2.71933 3.468896,0.58537 6.695912,1.19925 10.136561,1.29583 3.529898,0.0994 4.939922,-1.54141 10.445895,-1.54221 4.2012,-6.1e-4 8.65744,-3.09116 14.55266,-4.51694 4.60372,-1.11341 6.00296,-2.53711 8.66363,-4.36766 1.60962,-1.10743 1.57349,-2.30788 4.33114,-3.94321 4.43219,-2.62838 3.90196,-4.74359 5.70604,-7.56135 2.46288,-3.84667 0.81407,-3.11559 5.06267,-10.49559 0.86121,-1.49597 2.64292,-9.4249 3.05874,-11.21951 3.24886,-14.02185 5.63541,-25.7267 5.68941,-28.86323 -0.0178,0.10729 -0.0596,0.27029 -0.10206,0.43433 0.29183,-2.5226 0.48004,-4.993387 0.55976,-7.411607 l 0.3687,0.0575 c 0,0 0.52673,-0.0774 0.84797,-0.38711 0.35516,-0.34238 0.34486,-0.91905 0.34486,-0.91905 l -0.32102,-3.7121 c -0.41463,0.01838 -0.82752,0.02615 -1.2396,0.02653 -0.0379,-1.120045 -0.0967,-2.230257 -0.19019,-3.324076 2.45323,1.074639 6.76522,0.198752 6.95598,-3.251239 0.19986,-3.615134 -0.74693,-9.452114 -0.11824,-13.868688 0.33047,-2.321411 0.13494,-3.913137 -2.87665,-5.252071 0.0789,-21.140082 -13.82891,-36.884626 -32.99629,-40.762569 -5.54399,-1.121658 -11.31866,-1.720761 -17.10694,-1.690141 z M 47.248029,124.08493 c 0.08208,0.35364 0.159548,0.71359 0.250434,1.05484 0.289303,2.46473 0.664941,4.82964 1.115494,7.10317 -0.225151,-0.82027 -0.423723,-1.6774 -0.61777,-2.58849 -0.256298,-1.20334 -0.508243,-3.25256 -0.748158,-5.56952 z" />
    <path
       id="rect5713"
       style="fill:#ffffff;fill-opacity:1;stroke:#0f006a;stroke-width:5;stroke-linecap:round;stroke-linejoin:round;stroke-dasharray:none;stroke-opacity:1;paint-order:fill markers stroke"
       d="m 78.15007,153.06294 c -0.33869,0 -0.611119,0.18862 -0.611119,0.42323 v 20.86889 c -6.591515,7.58153 24.496549,16.06567 52.389209,-2.21024 l 1e-5,-18.65865 c 6.3e-4,-0.23461 -0.27244,-0.42323 -0.61113,-0.42323 z"
       sodipodi:nodetypes="sscccss" />
    <ellipse
       style="fill:none;fill-opacity:1;stroke:#0f006a;stroke-width:15;stroke-linecap:round;stroke-linejoin:round;stroke-dasharray:none;stroke-opacity:1;paint-order:fill markers stroke"
       id="path879"
       cx="100.00003"
       cy="100.00003"
       rx="89.99894"
       ry="90.001076" />
    <path
       style="fill:#ffffff;fill-opacity:1;stroke:#0f006a;stroke-width:3;stroke-linecap:round;stroke-linejoin:round;stroke-dasharray:none;stroke-opacity:1;paint-order:fill markers stroke"
       d="m 49.472376,75.591912 c 0,0 -3.454104,17.395589 -3.564835,33.368818 -0.04093,5.90412 0.37492,11.61388 1.59082,16.17906 8.206565,69.91624 83.564079,62.37897 96.956589,7.07037 4.87645,-16.02659 7.70291,-30.83442 6.53641,-43.76817 C 147.1645,46.010814 58.126894,56.210978 49.472376,75.591912 Z"
       id="path15911"
       sodipodi:nodetypes="csccsc" />
    <path
       id="path21682"
       style="fill:#1f0f80;fill-opacity:1;stroke:#0f006a;stroke-width:3;stroke-linecap:round;stroke-linejoin:round;stroke-dasharray:none;stroke-opacity:1;paint-order:fill markers stroke"
       d="M 154.63671,71.93743 C 117.25492,70.0187 74.993404,67.9319 52.220344,53.253847 66.46807,26.25817 96.632843,20.471611 121.9768,25.599199 c 20.81764,4.211824 35.4317,22.42097 32.65991,46.338231 z"
       sodipodi:nodetypes="ccsc" />
    <path
       id="path251"
       style="fill:#1f0f80;fill-opacity:1;stroke:#0f006a;stroke-width:3;stroke-linecap:round;stroke-linejoin:round;stroke-dasharray:none;stroke-opacity:1;paint-order:fill markers stroke"
       d="m 45.673413,126.04261 c -0.105999,3.38375 1.059855,7.85693 1.303872,10.23966 0.406297,3.96734 1.668464,7.24448 3.154971,10.36472 2.665018,5.59399 1.958401,10.00845 6.107821,13.89339 1.428477,1.33743 6.26422,4.31961 7.945981,6.9221 2.098325,3.2472 6.366972,3.15889 9.373153,5.00143 2.790763,1.71052 6.29306,2.17148 9.537475,2.71898 3.4689,0.58536 6.695823,1.19944 10.136474,1.29604 3.529901,0.0994 4.940163,-1.54157 10.44614,-1.54239 4.20119,-6.1e-4 8.65746,-3.09099 14.55268,-4.51677 4.60372,-1.11343 6.00293,-2.53705 8.6636,-4.3676 1.60963,-1.10743 1.57338,-2.30812 4.33103,-3.94347 4.43219,-2.62836 3.90177,-4.74344 5.70586,-7.56121 2.46287,-3.84667 0.81441,-3.11565 5.06302,-10.49567 0.86119,-1.49598 2.64255,-9.42472 3.05836,-11.21933 3.24887,-14.02187 5.63576,-25.72672 5.68976,-28.86326 -0.3727,2.25172 -6.47229,17.60443 -7.51502,20.67268 -3.78632,11.14137 -5.18656,8.05076 -8.11485,11.63033 -2.21776,2.71096 -3.11594,6.84014 -5.54147,7.12988 -1.01487,0.12071 -1.87291,1.05679 -2.6865,0.71938 -0.81355,-0.33744 -2.92004,-3.76551 -3.24964,-4.95719 -0.44112,-1.59489 -2.55846,-2.42559 -3.84667,-4.11969 -1.07668,-1.4159 -1.25692,-3.91474 -2.67407,-5.30633 -1.24599,-1.22352 -3.56795,-2.05583 -5.00397,-3.186 -1.19615,-0.94138 -2.61962,-1.62925 -3.94011,-2.44342 -1.36889,-0.84399 -0.39422,-0.72359 -2.41438,-1.00254 -1.65268,-0.22822 -3.47369,-0.89252 -5.23612,-0.89646 -1.843607,-0.005 -6.975336,0.79399 -8.610416,0.88019 -1.627183,0.0857 -3.439459,-0.76605 -4.528635,-0.7624 -3.940404,0.0133 -4.896438,1.7561 -8.242679,2.37243 -1.447624,0.26663 -1.945622,1.40367 -3.1208,2.12067 -1.175186,0.71705 -2.122227,2.09871 -2.924219,2.92202 -1.119888,1.14965 -2.330042,1.99212 -2.934242,3.19417 -0.604216,1.202 -2.093867,3.23031 -2.255632,5.00419 -0.293397,3.21729 -0.668561,4.04071 -1.790313,6.56528 -0.916149,2.06191 -3.34393,0.39497 -4.176698,0.0938 -4.459184,-1.61145 -3.616485,-2.22099 -5.302572,-3.19266 -2.835054,-1.63377 -4.286173,-2.32564 -5.725586,-4.2064 -1.644226,-2.14836 -2.283748,-4.59224 -2.913047,-7.54691 -0.958925,-4.50224 -1.870017,-20.59794 -2.233205,-19.85876 -0.363189,0.73916 0.04856,11.84393 -0.08934,16.24713 z m 58.824027,3.02313 c 2.01466,0.42507 3.91206,2.94973 5.81805,4.62976 1.66219,1.46516 3.35741,1.98505 4.79701,3.81327 1.77043,2.24831 1.24173,3.30149 2.45568,5.16987 1.57465,2.42355 0.90596,5.85457 -0.31217,6.91143 -3.79485,0.49266 -4.81946,3.44368 -6.90607,5.02289 -3.64445,2.75829 -8.28646,0.0603 -12.717489,-0.35281 -3.296627,-0.30739 -16.21587,1.04178 -20.093764,-1.19733 -1.063572,-0.61414 -4.794929,-1.78626 -6.086843,-1.95595 0,0 -1.027345,-2.28684 0.0097,-5.99942 0.478671,-1.71363 0.128215,-3.88434 0.820971,-5.72786 0.353282,-0.94015 2.021243,-2.0013 2.559083,-3.34182 0.655586,-1.63401 2.65314,-2.34456 3.998441,-4.26209 1.51204,-2.15519 6.705356,-2.55073 8.561208,-2.83304 1.74396,-0.2653 4.43073,0.39344 6.206894,0.23955 1.435506,-0.12446 3.996164,-0.26268 5.999893,-0.276 1.629256,-0.0108 2.376766,-0.3706 4.889416,0.15955 z"
       sodipodi:nodetypes="ssssssssssasssscssscssssssscsssssssssascsssscssscssssssssas" />
    <path
       style="fill:#ffffff;fill-opacity:1;stroke:#0f006a;stroke-width:3;stroke-linecap:round;stroke-linejoin:round;stroke-dasharray:none;stroke-opacity:1;paint-order:fill markers stroke"
       d="m 81.742131,141.67265 c 11.762305,5.00504 22.594369,3.0702 27.110619,-0.46018"
       id="path979"
       sodipodi:nodetypes="cc" />
    <ellipse
       style="fill:#ffffff;fill-opacity:1;fill-rule:evenodd;stroke:#0f006a;stroke-width:3.00019;stroke-linecap:round;stroke-linejoin:round;stroke-dasharray:none;stroke-opacity:1;paint-order:fill markers stroke"
       id="path311"
       cx="59.605858"
       cy="102.49669"
       transform="matrix(0.9932426,-0.11605665,0.1313983,0.99132966,0,0)"
       rx="11.74555"
       ry="12.121184" />
    <ellipse
       style="fill:#ffffff;fill-opacity:1;fill-rule:evenodd;stroke:#0f006a;stroke-width:3.00019;stroke-linecap:round;stroke-linejoin:round;stroke-dasharray:none;stroke-opacity:1;paint-order:fill markers stroke"
       id="path313"
       cx="101.90437"
       cy="113.27957"
       transform="matrix(0.99324261,-0.11605654,0.13139835,0.99132965,0,0)"
       rx="12.839374"
       ry="13.249981" />
    <ellipse
       style="fill:#0f006a;fill-opacity:1;fill-rule:evenodd;stroke:#0f006a;stroke-width:3.00024;stroke-linecap:round;stroke-linejoin:round;stroke-dasharray:none;stroke-opacity:1;paint-order:fill markers stroke"
       id="path1129-3"
       cx="97.282669"
       cy="112.83567"
       rx="2.2272751"
       ry="2.1330342"
       transform="matrix(0.99336358,-0.11501648,0.13238,0.99119904,0,0)" />
    <ellipse
       style="fill:#0f006a;fill-opacity:1;fill-rule:evenodd;stroke:#0f006a;stroke-width:3.00024;stroke-linecap:round;stroke-linejoin:round;stroke-dasharray:none;stroke-opacity:1;paint-order:fill markers stroke"
       id="path1129-3-3"
       cx="55.780968"
       cy="102.67439"
       rx="2.2272751"
       ry="2.1330342"
       transform="matrix(0.99336358,-0.11501648,0.13238,0.99119904,0,0)" />
    <path
       style="fill:#ffffff;fill-opacity:1;stroke:#0f006a;stroke-width:3;stroke-linecap:round;stroke-linejoin:round;stroke-dasharray:none;stroke-opacity:1;paint-order:fill markers stroke"
       d="m 95.895238,89.861563 c 0,0 -0.44387,5.25019 -4.153743,11.812897 -2.548841,4.5089 -5.126149,5.29096 -5.404568,9.92755 -0.06268,1.04334 0.610457,2.12219 1.367783,2.8407 2.463673,2.33736 10.117359,0.73481 11.182215,-0.0963"
       id="path3336"
       sodipodi:nodetypes="csssc" />
    <path
       style="fill:#0f006a;fill-opacity:1;stroke:#0f006a;stroke-width:3;stroke-linecap:round;stroke-linejoin:round;stroke-dasharray:none;stroke-opacity:1;paint-order:fill markers stroke"
       d="m 106.71736,82.64868 c 5.977,-3.932986 14.69104,-0.775993 21.48554,1.744182 1.99514,0.740031 4.87585,5.750872 4.87585,5.750872 -8.08433,-2.961941 -12.00314,-5.807896 -18.30406,-5.479138 -3.72734,0.194475 -10.28563,4.342848 -10.28563,4.342848 0,0 0.38706,-5.147206 2.2283,-6.358764 z"
       id="path12127"
       sodipodi:nodetypes="sscacs" />
    <path
       style="fill:#ffffff;fill-opacity:1;stroke:#0f006a;stroke-width:3;stroke-linecap:round;stroke-linejoin:round;stroke-dasharray:none;stroke-opacity:1;paint-order:fill markers stroke"
       d="m 86.522944,80.375277 c 1.498198,1.307452 0.531242,4.315119 0.531242,4.315119 0,0 -9.104334,-3.841262 -14.554934,-4.192164 -4.015411,-0.258493 -11.705757,2.688148 -11.705757,2.688148 0,0 3.182215,-5.031051 7.093556,-5.607722 4.916444,-0.724858 14.79544,-0.554833 18.635847,2.796625 z"
       id="path13581"
       sodipodi:nodetypes="scscss" />
    <path
       id="path15041"
       style="fill:#0f006a;fill-opacity:1;stroke:#0f006a;stroke-width:3;stroke-linecap:round;stroke-linejoin:round;stroke-dasharray:none;stroke-opacity:1;paint-order:fill markers stroke"
       d="m 47.989864,78.341352 -0.752386,4.240046 7.128506,0.725545 c 0,0 -1.067354,12.39287 0.353147,18.367067 1.81068,9.28954 8.201334,13.3632 16.698638,12.65318 11.557784,-0.96572 15.700384,-9.39174 18.437063,-20.37791 1.081686,-3.942631 2.433635,-5.027226 3.895156,-5.337221 1.430648,-0.303449 4.616034,-0.371083 5.497625,0.851458 0.932237,1.292789 0.444108,3.283135 0.303247,6.324926 -0.454143,12.080077 2.62433,21.706777 14.11991,25.122147 10.35362,2.46065 21.17777,-1.10639 24.05519,-11.32813 1.58248,-5.97053 2.63558,-14.277617 2.63558,-14.277617 l 11.2081,1.74464 c 0,0 0.52674,-0.0774 0.84799,-0.38714 0.35515,-0.34238 0.34494,-0.91921 0.34494,-0.91921 l -0.32095,-3.711962 C 137.62144,92.687697 124.62758,81.50529 99.199747,85.230671 98.216872,85.374674 97.246948,85.189681 96.303945,84.817428 76.066818,76.828663 58.793748,80.157842 47.989864,78.341352 Z m 39.739347,9.161364 C 86.919359,99.407393 82.389877,109.72819 72.185204,111.36387 57.874625,113.65765 53.534125,97.853183 58.552155,84.330008 c 3.637213,-2.28509 17.662479,-2.414231 25.101683,0.177137 2.463573,0.85816 4.071648,1.890853 4.075373,2.995571 z m 20.585739,0.928135 c 7.7636,-1.150552 18.40608,-0.749111 27.69386,5.819246 1.54424,17.493303 -5.14829,27.527833 -21.71739,23.535903 -10.7587,-4.01725 -14.807195,-12.25069 -10.61337,-26.902121 0.9263,-1.2521 2.51287,-2.13826 4.6369,-2.453037 z"
       sodipodi:nodetypes="ccccscsscccccsccscccscscscccss" />
    <path
       id="path21282"
       style="fill:#1f0f80;fill-opacity:1;stroke:#0f006a;stroke-width:3;stroke-linecap:round;stroke-linejoin:round;stroke-dasharray:none;stroke-opacity:1;paint-order:fill markers stroke"
       d="m 53.502549,52.470748 c 3.492266,-0.53411 32.713598,-1.686547 52.324371,1.018832 14.79427,2.040926 36.47655,8.244689 48.20747,12.491858 3.91918,1.418929 4.17755,3.087845 3.81533,5.632244 -0.6287,4.41658 0.31785,10.253526 0.11795,13.868664 -0.19989,3.615137 -4.92632,4.40546 -7.29603,3.085052 -13.63339,-7.596519 -34.85055,-11.99129 -52.935088,-14.132416 -15.830221,-1.874226 -38.920626,1.018738 -47.65927,1.242072 -4.702347,0.120174 -6.037334,-2.724134 -4.378934,-6.193611 1.831157,-3.830907 1.913038,-8.944066 3.039549,-13.870096 0.330758,-0.804485 1.819003,-3.183412 4.764625,-3.142601 z"
       sodipodi:nodetypes="cssszsassccc" />
  </g>
</svg>
