<?xml version="1.0" encoding="UTF-8" standalone="no"?>
<!-- Created with Inkscape (http://www.inkscape.org/) -->

<svg
   width="200mm"
   height="200mm"
   viewBox="0 0 200 200"
   version="1.1"
   id="svg1"
   xml:space="preserve"
   sodipodi:docname="profile.svg"
   inkscape:version="1.3.2 (1:1.3.2+202311252150+091e20ef0f)"
   xmlns:inkscape="http://www.inkscape.org/namespaces/inkscape"
   xmlns:sodipodi="http://sodipodi.sourceforge.net/DTD/sodipodi-0.dtd"
   xmlns="http://www.w3.org/2000/svg"
   xmlns:svg="http://www.w3.org/2000/svg"><sodipodi:namedview
     id="namedview1"
     pagecolor="#ffffff"
     bordercolor="#666666"
     borderopacity="1.0"
     inkscape:showpageshadow="2"
     inkscape:pageopacity="0.0"
     inkscape:pagecheckerboard="0"
     inkscape:deskcolor="#d1d1d1"
     inkscape:document-units="mm"
     inkscape:zoom="3.2656734"
     inkscape:cx="372.35811"
     inkscape:cy="55.578123"
     inkscape:window-width="1920"
     inkscape:window-height="1012"
     inkscape:window-x="0"
     inkscape:window-y="0"
     inkscape:window-maximized="1"
     inkscape:current-layer="layer1" /><defs
     id="defs1" /><g
     inkscape:label="Layer 1"
     inkscape:groupmode="layer"
     id="layer1"
     transform="translate(-41.330616,-46.435621)"><path
       style="fill:#00087e;fill-opacity:1;stroke:#00087e;stroke-width:3;stroke-linecap:round;stroke-linejoin:round;stroke-dasharray:none;stroke-opacity:1"
       d="m 82.165045,120.29639 c 0.1097,3.37893 0.207828,5.56446 0.317488,8.94339 3.41285,1.44397 4.90468,-0.39895 5.57125,-3.6539 0.72983,-2.76754 3.94543,-4.08379 2.97883,-7.32989 0.43565,-2.40909 1.46202,-5.29281 3.19579,-7.00202 2.72151,-1.25348 4.53949,-3.20031 4.92781,-6.24426 0.62828,-1.92448 1.256567,-3.84895 1.884857,-5.773418 l -9.318757,-1.583295 -6.93145,9.615133 z"
       id="path24"
       sodipodi:nodetypes="cccccccccc" /><path
       style="fill:#3f47ae;fill-opacity:1;stroke:#00087e;stroke-width:3;stroke-linecap:round;stroke-linejoin:round;stroke-dasharray:none;stroke-opacity:1"
       d="m 82.143123,120.42222 c 0.95344,-7.19441 0.29495,-13.98047 3.19037,-20.754129 1.92591,-5.30371 2.850138,-8.971516 6.6747,-15.465196 -0.828463,4.559396 -2.457472,6.011296 -1.17024,7.510268 2.138118,2.489823 0.43296,3.182389 0.75452,6.134955 0.6573,3.092512 -2.6171,5.415672 -3.71069,8.165562 -3.23183,4.49524 -3.70285,9.34076 -5.73866,14.40854 z"
       id="path16"
       sodipodi:nodetypes="cccsccc" /><path
       style="fill:none;fill-opacity:1;stroke:#00087e;stroke-width:3;stroke-linecap:round;stroke-linejoin:round;stroke-dasharray:none;stroke-opacity:1"
       d="m 101.67377,69.732093 c 8.59646,-8.506005 20.0274,-15.341774 30.8105,-15.579295 8.37755,-1.19299 17.78056,-2.073195 25.25912,2.617938 0.0158,1.261534 -5.02054,1.294898 -6.96106,2.080852 -6.67799,0.864248 -12.06961,5.254749 -18.0693,7.978396 -7.43417,3.893273 -15.0582,7.476775 -21.63674,12.766217 -5.72056,3.885432 -11.319427,7.917436 -16.018867,13.032996 -1.70036,3.511309 -3.763642,0.05669 -3.89009,-3.148143 -0.112798,-4.632019 6.514712,-15.799236 10.506437,-19.748961 z"
       id="path18"
       sodipodi:nodetypes="scccccccs" /><path
       style="fill:none;fill-opacity:1;stroke:#00087e;stroke-width:3;stroke-linecap:round;stroke-linejoin:round;stroke-dasharray:none;stroke-opacity:1"
       d="m 155.48439,56.92131 c -6.10631,-3.222848 -13.54618,-3.561779 -20.20545,-1.940482 -2.2197,0.189986 -6.60315,2.069433 -3.12448,4.139047 2.45391,1.048895 4.38136,2.444763 11.31565,2.116306 l 3.67186,-1.459355 9.66895,-1.988907 z"
       id="path23"
       sodipodi:nodetypes="ccccccc" /><path
       style="fill:none;fill-opacity:1;stroke:#00087e;stroke-width:3;stroke-linecap:round;stroke-linejoin:round;stroke-dasharray:none;stroke-opacity:1"
       d="m 133.74775,59.526289 c 3.81549,-1.278691 6.1023,-3.351881 9.91489,-4.065627 2.52615,1.032256 6.88152,1.827618 9.40768,2.859873"
       id="path21"
       sodipodi:nodetypes="ccc" /><path
       style="fill:#00087e;fill-opacity:1;stroke:#00087e;stroke-width:3;stroke-linecap:round;stroke-linejoin:round;stroke-dasharray:none;stroke-opacity:1"
       d="m 179.29214,86.782975 c 0,0 -14.62143,-5.347491 -22.28697,-5.949414 -13.55162,-1.06412 -27.23236,0.453133 -40.5591,4.239079 l 7.576,-7.381154 8.28814,-5.813524 15.09535,-0.850783 16.74255,3.405173 6.54707,3.535734 7.85203,6.488279 z"
       id="path25"
       sodipodi:nodetypes="cac" /><path
       style="fill:#ffffff;fill-opacity:1;stroke:#00087e;stroke-width:3;stroke-linecap:round;stroke-linejoin:round;stroke-dasharray:none;stroke-opacity:1"
       d="m 190.18899,104.72364 c 0.85329,5.04259 1.70659,10.08518 2.55989,15.12776"
       id="path26" /><path
       style="fill:#00087e;fill-opacity:1;stroke:#00087e;stroke-width:3;stroke-linecap:round;stroke-linejoin:round;stroke-dasharray:none;stroke-opacity:1"
       d="m 106.87858,119.11182 c 6.03831,-1.45711 11.95606,-3.7479 18.26675,-3.32162 4.50536,0.26425 9.4118,-1.47496 13.44133,1.166 2.50518,0.40264 5.57841,3.40981 5.09985,5.03987 -6.75924,-1.33341 -13.49577,-2.88206 -20.43309,-2.5281 -5.45829,-0.11872 -10.91658,-0.23743 -16.37484,-0.35615 z"
       id="path27" /><path
       style="fill:#00087e;fill-opacity:1;stroke:#00087e;stroke-width:3;stroke-linecap:round;stroke-linejoin:round;stroke-dasharray:none;stroke-opacity:1"
       d="m 159.21956,123.71392 c 1.45515,-2.20311 1.66533,-5.89883 3.95507,-7.10136 4.72329,-1.13444 9.39697,-2.82828 14.30843,-1.84067 3.05766,0.13459 6.22061,-0.0402 8.50607,2.36313 4.17246,2.10651 2.62876,2.54825 -1.24992,2.30993 -6.63357,-0.0514 -13.21463,0.43226 -19.70234,1.86719 -2.20391,0.0706 -3.89038,1.50896 -5.81731,2.40178 z"
       id="path28" /><path
       style="fill:none;fill-opacity:1;stroke:#00087e;stroke-width:3;stroke-linecap:round;stroke-linejoin:round;stroke-dasharray:none;stroke-opacity:1"
       d="m 82.439273,129.33587 c -3.39751,-0.70662 -4.2375,2.98849 -3.66646,5.52931 2.55319,5.70886 4.3294,11.72443 7.40185,17.20153 1.40517,-5.76939 -1.29071,-11.55285 0.19622,-17.32816 0.77436,-3.03603 1.1311,-5.53856 -2.86114,-5.18721 -0.35682,-0.0719 -0.71365,-0.14365 -1.07047,-0.21547 z"
       id="path37" /><path
       id="path38"
       style="fill:#3f47ae;fill-opacity:1;stroke:#00087e;stroke-width:3;stroke-linecap:round;stroke-linejoin:round;stroke-dasharray:none;stroke-opacity:1"
       d="m 89.253953,127.592 c -1.04337,0.1677 -2.44514,1.20976 -2.56357,2.78214 -0.21472,1.97059 -0.42943,3.94118 -0.64415,5.91177 -0.59228,9.9968 0.5785,20.04554 1.07415,30.04361 1.65556,9.74606 1.5414,20.04853 5.20691,29.25182 4.29449,10.78254 11.588657,20.12745 18.482117,29.49527 4.54739,6.17961 11.78151,10.2539 18.57151,13.94513 2.98026,1.62014 7.09898,-0.31853 10.60344,-0.36149 8.98215,-0.11017 18.62139,0.70212 26.60489,-3.35226 5.51045,-2.79846 11.08802,-7.79161 15.38647,-12.23319 3.80456,-3.93125 5.34235,-10.4333 7.59723,-15.21451 2.65176,-5.62276 1.3671,-9.88381 3.62231,-14.74069 2.37351,-5.11165 3.36505,-10.5095 4.19217,-16.00786 1.53888,-5.51525 0.65558,-11.13897 0.24293,-16.74169 -1.91555,-13.38641 -3.56163,-26.82205 -5.10266,-40.26409 0.42694,7.36763 0.85381,14.73519 1.28074,22.10282 0.13911,8.44065 1.65575,16.81261 2.09426,25.19836 -0.0262,5.95065 -2.57962,11.31036 -4.53234,16.81056 -2.77199,4.41778 -6.73875,8.14347 -9.96662,12.2972 0,0 0.51392,-8.05654 -0.79599,-10.51088 -1.30991,-2.45434 -0.22255,-13.50858 -1.98188,-16.28828 -1.81226,-1.70338 -5.80887,-2.75712 -9.26904,-2.97603 -3.26278,-0.20642 -6.29856,-1.5078 -9.81833,0.0814 -3.76637,1.70055 -8.01975,1.81774 -12.17064,1.18453 -3.40773,-0.51985 -7.15283,-2.53866 -10.36207,-0.71048 -5.41983,3.15872 -15.16222,3.296 -17.70787,4.91269 -3.65123,3.62418 2.23559,13.45355 -0.69098,17.27355 -3.32461,3.82997 -2.99416,9.03775 -4.03876,13.72716 -4.38756,-3.74067 -8.77526,-7.48142 -13.16281,-11.22209 -2.904397,-1.81588 -4.501517,-4.62174 -5.656987,-7.76222 -3.56048,-6.0485 -3.81604,-13.15434 -5.32249,-19.86001 -0.83893,-8.38817 -0.65264,-16.88979 -2.03996,-25.24392 -0.93506,-3.17021 0.0687,-6.12821 1.28126,-9.06342 1.31509,-1.92574 0.63013,-2.63257 -0.41324,-2.4649 z m 43.517667,47.91338 c 3.33504,-0.35911 6.68407,-0.51194 10.06298,-0.22131 3.35021,0.3829 6.54358,-0.15362 9.57678,-1.62957 5.25928,1.8824 10.74784,-0.44574 16.16899,-0.0661 1.79902,0.3981 5.20782,2.16639 4.912,5.90954 0.19268,5.68257 1.06143,8.45404 -0.63781,13.96726 -1.224,5.17647 -0.0114,11.02927 -2.50747,15.7201 -1.58623,2.98095 -6.133,2.59808 -9.55838,2.13361 -2.57372,0.0213 -5.14752,0.0425 -7.72122,0.0638 -3.22035,0.72474 -6.94614,1.20911 -10.13221,2.54171 -2.99543,1.25286 -5.5655,2.34198 -8.51554,1.35725 -5.79483,-1.93433 -7.21631,-8.94539 -8.25479,-15.14207 -1.74067,-4.85202 -2.66061,-9.85398 -2.7451,-15.00862 0.13978,-9.92762 5.03782,-9.11775 9.35177,-9.62594 z"
       sodipodi:nodetypes="scccssssssssccccccczcssscccccccccsccccccsccsccccc" /><path
       style="fill:none;fill-opacity:1;stroke:#00087e;stroke-width:3;stroke-linecap:round;stroke-linejoin:round;stroke-dasharray:none;stroke-opacity:1"
       d="m 153.61717,127.03414 7.52743,31.54963 -16.4636,1.65061"
       id="path41"
       sodipodi:nodetypes="ccc" /><path
       id="path29"
       style="fill:#3f47ae;fill-opacity:1;stroke:#00087e;stroke-width:3;stroke-linecap:round;stroke-linejoin:round;stroke-dasharray:none;stroke-opacity:1"
       d="m 99.059863,119.30481 c -3.41915,0.34359 -6.18116,2.68024 -9.17632,4.30955 -0.87236,2.37619 -4.5512,4.57982 0.27298,3.39268 2.67338,-0.0273 6.23277,-2.06152 7.34606,1.4454 2.817137,6.96303 1.99738,15.35125 6.571647,21.60828 1.71944,2.45087 4.1897,3.75681 7.03529,4.49013 4.73975,0.80079 9.70241,1.32673 14.53778,0.96716 5.23412,0.14669 10.81039,-1.32232 14.12878,-5.61354 4.56798,-4.86216 7.04664,-11.23916 8.35983,-17.69979 2.37835,-2.28441 5.86373,-3.21788 8.76275,-1.29977 1.15444,3.12912 2.37209,6.23354 3.65293,9.31308 1.48781,4.33534 3.48837,8.38144 6.55775,11.82433 2.78141,2.45407 7.19199,1.75834 10.72074,2.3473 4.31273,0.0496 8.85245,-0.36707 12.92644,-1.85854 3.64283,-0.64382 6.00532,-3.63506 7.09599,-7.00378 3.14891,-5.13802 2.90185,-11.26777 3.95439,-17.01796 2.57328,-0.13388 2.56164,-3.74261 1.80316,-6.15505 -4.11496,-0.0802 -7.92526,-1.46953 -11.71669,-2.93953 -8.20086,0.36863 -16.47118,-0.0433 -24.55885,1.59894 -3.63578,-0.23266 -6.47471,2.65951 -9.91613,2.78672 -4.24157,-0.58595 -9.06211,0.92513 -12.69708,-1.85792 -4.93883,-1.61204 -10.31309,-2.01761 -15.41703,-3.17229 -9.56738,-0.0628 -19.22122,-0.88923 -28.73632,0.51722 -0.51788,-0.0402 -1.019647,-0.0317 -1.508097,0.0175 z m 12.527727,1.9513 c 7.15374,0.12718 14.41344,-1.02969 21.39719,1.04623 3.55197,1.05584 7.14121,1.3437 10.2226,3.93425 2.54588,2.14036 1.44428,5.13187 2.01065,7.77398 -0.9191,3.81062 -2.93288,7.52292 -4.53033,11.15002 -2.21816,2.53706 -3.55948,5.95455 -7.25735,6.78809 -3.39775,0.76586 -6.46243,2.42354 -10.07137,1.8069 -4.19281,-0.7164 -8.92233,0.47788 -12.78022,-1.10627 -3.15137,-1.29403 -5.24837,-3.97449 -6.78105,-7.23641 -1.8877,-5.72735 -1.37172,-12.75847 -1.40269,-18.87449 0.7962,-5.25766 5.61189,-4.96044 9.19257,-5.2823 z m 65.5022,0.32738 c 5.34947,-0.33954 10.85144,-0.52834 16.06174,0.78101 2.92208,0.73431 6.73158,2.00903 6.55517,5.92708 -0.21417,4.75676 -1.46651,9.37999 -2.05308,14.07946 -2.29352,3.84138 -4.74923,8.01716 -9.7353,8.95365 -5.34166,1.00328 -10.77327,2.39083 -15.92137,0.96634 -3.5856,-0.99214 -6.02236,-4.19361 -7.5943,-7.85178 -1.71262,-3.98558 -3.25072,-8.2167 -3.3837,-12.51071 l 0.1768,-4.12301 c 0.14565,-3.39646 4.99585,-4.60639 8.66745,-4.94163 2.43363,-0.22221 4.78512,-1.12544 7.22659,-1.28041 z"
       sodipodi:nodetypes="ccccccccccccccccccccccccccssccssssccasscssscssa" /><path
       style="fill:#3f47ae;fill-opacity:1;stroke:#00087e;stroke-width:3;stroke-linecap:round;stroke-linejoin:round;stroke-dasharray:none;stroke-opacity:1"
       d="m 91.857603,96.159645 c 3.66783,-5.310583 8.849547,-9.393331 13.786207,-13.525286 6.21742,-5.203944 12.77362,-10.090978 19.82543,-14.092135 7.24818,-4.112575 15.2737,-7.381214 22.88624,-10.063035 4.77505,-1.6822 9.89357,-1.843075 15.00614,-1.00075 4.48609,0.739103 9.23105,1.551623 13.11433,3.810776 5.35336,3.114409 10.80818,6.292519 14.55228,11.463451 3.28053,4.530702 6.19049,9.244183 7.85285,14.646566 1.174,3.815254 1.76594,7.578872 0.72634,11.418068 -0.6391,2.33854 -3.4437,5.14273 -6.0525,4.86527 -0.38144,-0.0614 -3.10362,0.0503 -2.87088,3.61622 -2.52588,-7.697963 -7.42489,-13.950818 -11.69962,-20.705184 -3.51236,-3.768639 -7.4742,-7.497654 -12.09344,-9.855159 -6.20895,-3.16884 -13.19205,-4.413846 -20.21818,-5.105801 -5.0669,-0.499009 -13.41688,0.403241 -15.05491,1.181129 -7.07835,3.36147 -8.51943,6.663921 -12.65618,10.130296 -5.77528,4.839396 -10.36106,10.815155 -16.47323,15.389038 -2.857227,2.138131 -6.813097,3.510451 -9.551477,1.460237 -1.01146,-0.757279 -1.79746,-2.594028 -1.0794,-3.633701 z"
       id="path17"
       sodipodi:nodetypes="saasssssccccsssssss" /><path
       style="fill:none;fill-opacity:1;stroke:#00087e;stroke-width:3;stroke-linecap:round;stroke-linejoin:round;stroke-dasharray:none;stroke-opacity:1"
       d="m 129.25519,181.8094 c 0,0 13.77549,0.39139 21.19531,-0.26222 6.16488,-0.54305 17.31444,-2.19218 17.31444,-2.19218 0,0 -0.7,4.33182 -2.55271,6.45379 -3.92276,4.49287 -9.25418,8.66363 -15.15867,9.50681 -6.71326,0.95866 -11.65061,0.60763 -16.44003,-4.19322 -2.0666,-2.07152 -4.35834,-9.31298 -4.35834,-9.31298 z"
       id="path39"
       sodipodi:nodetypes="cscsssc" /><ellipse
       style="fill:#00087e;fill-opacity:1;fill-rule:evenodd;stroke:#00087e;stroke-width:3;stroke-linecap:round;stroke-linejoin:round;stroke-dasharray:none;stroke-opacity:1;paint-order:fill markers stroke"
       id="path40"
       cx="121.9128"
       cy="135.73625"
       rx="5.9792085"
       ry="5.7398262"
       transform="rotate(-1.4865115)" /><ellipse
       style="fill:#00087e;fill-opacity:1;fill-rule:evenodd;stroke:#00087e;stroke-width:3;stroke-linecap:round;stroke-linejoin:round;stroke-dasharray:none;stroke-opacity:1;paint-order:fill markers stroke"
       id="ellipse40"
       cx="172.57959"
       cy="136.33151"
       rx="5.9792085"
       ry="5.7398262"
       transform="rotate(-1.4865115)" /><path
       style="fill:none;stroke:#00087e;stroke-width:3;stroke-linecap:round;stroke-linejoin:round;stroke-dasharray:none;stroke-opacity:1"
       d="m 132.72607,188.30761 31.80794,-1.81728"
       id="path42"
       sodipodi:nodetypes="cc" /></g></svg>
