<?xml version="1.0" encoding="UTF-8" standalone="no"?>
<!-- Created with Inkscape (http://www.inkscape.org/) -->

<svg
   width="200mm"
   height="200mm"
   viewBox="0 0 200 200"
   version="1.1"
   id="svg1"
   xml:space="preserve"
   sodipodi:docname="profile.svg"
   inkscape:version="1.3.2 (1:1.3.2+202311252150+091e20ef0f)"
   xmlns:inkscape="http://www.inkscape.org/namespaces/inkscape"
   xmlns:sodipodi="http://sodipodi.sourceforge.net/DTD/sodipodi-0.dtd"
   xmlns="http://www.w3.org/2000/svg"
   xmlns:svg="http://www.w3.org/2000/svg"><sodipodi:namedview
     id="namedview1"
     pagecolor="#ffffff"
     bordercolor="#666666"
     borderopacity="1.0"
     inkscape:showpageshadow="2"
     inkscape:pageopacity="0.0"
     inkscape:pagecheckerboard="0"
     inkscape:deskcolor="#d1d1d1"
     inkscape:document-units="mm"
     inkscape:zoom="0.40820917"
     inkscape:cx="175.1553"
     inkscape:cy="304.9907"
     inkscape:window-width="1920"
     inkscape:window-height="1012"
     inkscape:window-x="2128"
     inkscape:window-y="0"
     inkscape:window-maximized="1"
     inkscape:current-layer="layer1" /><defs
     id="defs1" /><g
     inkscape:label="Layer 1"
     inkscape:groupmode="layer"
     id="layer1"
     transform="translate(-41.330616,-46.435621)"><path
       id="path24-5"
       style="fill:#ffffff;fill-opacity:1;stroke:none;stroke-width:3;stroke-linecap:round;stroke-linejoin:round;stroke-dasharray:none;stroke-opacity:1"
       d="m 143.93257,49.046311 c -3.98078,-0.03986 -8.01445,0.442826 -11.8432,0.988053 -11.26436,0.248121 -23.20551,7.388827 -32.185634,16.274459 l -10.09711,15.11639 c -3.99526,6.783497 -4.96085,10.615186 -6.9727,16.155603 -3.02465,7.075974 -2.33663,14.164824 -3.33262,21.680334 0.009,-0.0218 0.0166,-0.0433 0.0253,-0.0651 0.11361,3.48733 0.21544,5.77169 0.32918,9.27643 0.21585,0.0913 0.4239,0.16854 0.62529,0.23513 -0.2234,-0.045 -0.44685,-0.0899 -0.67024,-0.13487 -3.54914,-0.73816 -4.42678,3.12217 -3.83026,5.77639 2.66715,5.96364 4.52277,12.24738 7.73234,17.96893 0.0147,-0.0603 0.026,-0.12058 0.0398,-0.18087 0.2919,5.03104 0.69896,10.06172 0.94775,15.08022 1.72945,10.18104 1.61035,20.94326 5.43946,30.5573 4.48616,11.26377 12.105714,21.02617 19.306834,30.81208 4.75034,6.45541 12.30784,10.71162 19.40089,14.56758 3.11327,1.69245 7.41546,-0.33287 11.07632,-0.37775 9.38303,-0.11509 19.45281,0.73322 27.79262,-3.50211 5.75638,-2.92336 11.58264,-8.13926 16.07292,-12.77907 3.97437,-4.1067 5.58095,-10.89901 7.93647,-15.8936 2.7701,-5.87371 1.42788,-10.3249 3.78375,-15.39855 2.47943,-5.33978 3.51554,-10.97874 4.37957,-16.72249 1.60756,-5.76139 0.6848,-11.63608 0.25373,-17.48885 -0.56272,-3.93249 -1.09855,-7.86948 -1.62057,-11.8091 0.80586,-1.10315 1.42372,-2.37124 1.8526,-3.6959 3.28945,-5.36734 3.0315,-11.7709 4.13102,-17.77773 2.68812,-0.13986 2.67593,-3.90947 1.8836,-6.42958 -4.29861,-0.0838 -8.27891,-1.535 -12.23956,-3.07061 l -1.26343,-12.65711 c -0.24313,-3.72512 2.60032,-3.84165 2.99878,-3.77755 2.72524,0.28984 5.655,-2.639469 6.32262,-5.082378 1.08599,-4.010542 0.46777,-7.941907 -0.75861,-11.927438 -1.73656,-5.643494 -4.77618,-10.567448 -8.20312,-15.300358 -3.9112,-5.401713 -9.60989,-8.721573 -15.20217,-11.974979 -4.0566,-2.35998 -9.01312,-3.209063 -13.69943,-3.981153 -1.97974,-0.326173 -3.9603,-0.506159 -5.92315,-0.516764 0.0349,-0.06999 0.0553,-0.143509 0.0543,-0.222209 -4.39444,-2.756531 -9.42515,-3.671521 -14.5433,-3.72277 z m 51.15244,72.162519 c 0.12591,0.0299 0.2537,0.0501 0.3793,0.0817 3.05249,0.76709 7.03193,2.09844 6.84764,6.19135 -0.22371,4.96906 -1.53182,9.79894 -2.14457,14.70815 -0.6709,1.12368 -1.36332,2.26765 -2.11511,3.36414 -1.05112,-8.1064 -2.02902,-16.22414 -2.96726,-24.34529 z"
       sodipodi:nodetypes="ccccccccccccccssscssssccccccccccssssccscccsscccss" /><path
       style="fill:#00087e;fill-opacity:1;stroke:#00087e;stroke-width:3;stroke-linecap:round;stroke-linejoin:round;stroke-dasharray:none;stroke-opacity:1"
       d="m 79.524397,119.12976 c 0.114596,3.52974 0.217104,5.81281 0.331658,9.34255 3.565171,1.50842 5.123584,-0.41676 5.819904,-3.81698 0.762403,-2.89106 4.121521,-4.26606 3.11178,-7.65704 0.455094,-2.51661 1.527272,-5.52903 3.338423,-7.31453 2.842975,-1.30942 4.742095,-3.34314 5.147746,-6.52295 0.656321,-2.01037 1.31265,-4.020733 1.968981,-6.031093 l -9.734668,-1.65396 -7.240811,10.044273 z"
       id="path24"
       sodipodi:nodetypes="cccccccccc" /><path
       style="fill:#3f47ae;fill-opacity:1;stroke:#00087e;stroke-width:3;stroke-linecap:round;stroke-linejoin:round;stroke-dasharray:none;stroke-opacity:1"
       d="m 79.501497,119.26121 c 0.995993,-7.51551 0.308114,-14.60444 3.332761,-21.680422 2.011866,-5.540423 2.977344,-9.371929 6.972603,-16.155433 -0.865439,4.76289 -2.567153,6.27959 -1.22247,7.845464 2.233546,2.600947 0.452284,3.324424 0.788195,6.408768 0.686637,3.230535 -2.733905,5.657383 -3.876304,8.530003 -3.376071,4.69587 -3.868114,9.75765 -5.994785,15.05162 z"
       id="path16"
       sodipodi:nodetypes="cccsccc" /><path
       style="fill:none;fill-opacity:1;stroke:#00087e;stroke-width:3;stroke-linecap:round;stroke-linejoin:round;stroke-dasharray:none;stroke-opacity:1"
       d="m 99.903828,66.308698 c 8.980132,-8.885641 20.921252,-16.026502 32.185622,-16.274623 8.75145,-1.246236 18.57413,-2.165725 26.38647,2.73478 0.0165,1.317839 -5.24461,1.352692 -7.27174,2.173724 -6.97604,0.902821 -12.60829,5.489277 -18.87576,8.334485 -7.76597,4.067036 -15.73027,7.810475 -22.60242,13.335993 -5.97588,4.058845 -11.824634,8.270804 -16.733817,13.61468 -1.77625,3.668024 -3.93162,0.05922 -4.063711,-3.28865 -0.117833,-4.838753 6.805474,-16.504381 10.975356,-20.630389 z"
       id="path18"
       sodipodi:nodetypes="scccccccs" /><path
       style="fill:none;fill-opacity:1;stroke:#00087e;stroke-width:3;stroke-linecap:round;stroke-linejoin:round;stroke-dasharray:none;stroke-opacity:1"
       d="m 156.1161,52.92615 c -6.37884,-3.366689 -14.15077,-3.720747 -21.10725,-2.027089 -2.31877,0.198465 -6.89786,2.161795 -3.26393,4.323779 2.56343,1.095709 4.57691,2.553877 11.82069,2.21076 l 3.83574,-1.524488 10.10049,-2.077675 z"
       id="path23"
       sodipodi:nodetypes="ccccccc" /><path
       style="fill:none;fill-opacity:1;stroke:#00087e;stroke-width:3;stroke-linecap:round;stroke-linejoin:round;stroke-dasharray:none;stroke-opacity:1"
       d="m 133.40932,55.647393 c 3.98578,-1.335761 6.37466,-3.501481 10.35741,-4.247082 2.63889,1.078327 7.18865,1.909187 9.82756,2.987513"
       id="path21"
       sodipodi:nodetypes="ccc" /><path
       style="fill:#00087e;fill-opacity:1;stroke:#00087e;stroke-width:3;stroke-linecap:round;stroke-linejoin:round;stroke-dasharray:none;stroke-opacity:1"
       d="m 180.98643,84.120589 c 0,0 -15.27401,-5.586159 -23.28167,-6.214946 -14.15645,-1.111614 -28.44779,0.473357 -42.36932,4.428276 l 7.91413,-7.710587 8.65805,-6.072991 15.76908,-0.888755 17.4898,3.557151 6.83927,3.69354 8.20248,6.777861 z"
       id="path25"
       sodipodi:nodetypes="cac" /><path
       style="fill:#ffffff;fill-opacity:1;stroke:#00087e;stroke-width:3;stroke-linecap:round;stroke-linejoin:round;stroke-dasharray:none;stroke-opacity:1"
       d="m 192.36962,102.86197 c 0.89138,5.26765 1.78276,10.5353 2.67415,15.80294"
       id="path26" /><path
       style="fill:#00087e;fill-opacity:1;stroke:#00087e;stroke-width:3;stroke-linecap:round;stroke-linejoin:round;stroke-dasharray:none;stroke-opacity:1"
       d="m 105.34094,117.89232 c 6.30781,-1.52214 12.48967,-3.91517 19.08202,-3.46987 4.70644,0.27605 9.83186,-1.54079 14.04124,1.21804 2.61699,0.42061 5.82738,3.562 5.32746,5.26481 -7.06091,-1.39292 -14.0981,-3.01069 -21.34505,-2.64093 -5.7019,-0.12402 -11.4038,-0.24803 -17.10567,-0.37205 z"
       id="path27" /><path
       style="fill:#00087e;fill-opacity:1;stroke:#00087e;stroke-width:3;stroke-linecap:round;stroke-linejoin:round;stroke-dasharray:none;stroke-opacity:1"
       d="m 160.01798,122.69982 c 1.52009,-2.30144 1.73965,-6.1621 4.13159,-7.4183 4.9341,-1.18508 9.81637,-2.95452 14.94704,-1.92283 3.19413,0.1406 6.49824,-0.042 8.88571,2.4686 4.35868,2.20053 2.74608,2.66199 -1.30571,2.41303 -6.92964,-0.0537 -13.80442,0.45155 -20.58169,1.95053 -2.30227,0.0738 -4.06401,1.5763 -6.07694,2.50897 z"
       id="path28" /><path
       style="fill:none;fill-opacity:1;stroke:#00087e;stroke-width:3;stroke-linecap:round;stroke-linejoin:round;stroke-dasharray:none;stroke-opacity:1"
       d="m 79.810864,128.57269 c -3.549146,-0.73816 -4.426626,3.12187 -3.8301,5.77609 2.667143,5.96365 4.522628,12.24771 7.732207,17.96926 1.467885,-6.02689 -1.348317,-12.06847 0.204977,-18.10154 0.808921,-3.17154 1.181583,-5.78576 -2.988837,-5.41873 -0.372745,-0.0751 -0.745501,-0.15006 -1.118247,-0.22508 z"
       id="path37" /><path
       id="path38"
       style="fill:#3f47ae;fill-opacity:1;stroke:#00087e;stroke-width:3;stroke-linecap:round;stroke-linejoin:round;stroke-dasharray:none;stroke-opacity:1"
       d="m 86.929694,126.75099 c -1.089937,0.17518 -2.55427,1.26375 -2.677986,2.90631 -0.224303,2.05854 -0.448596,4.11708 -0.672899,6.17562 -0.618715,10.44297 0.604319,20.9402 1.122091,31.3845 1.72945,10.18105 1.610195,20.94333 5.439303,30.55738 4.486159,11.26378 12.105877,21.02577 19.307007,30.81169 4.75034,6.45542 12.30733,10.71155 19.40038,14.56752 3.11328,1.69245 7.41582,-0.33274 11.07669,-0.37762 9.38304,-0.11509 19.45249,0.73346 27.79231,-3.50188 5.75639,-2.92336 11.5829,-8.13936 16.07319,-12.77917 3.97437,-4.10671 5.58079,-10.89896 7.93631,-15.89356 2.77011,-5.87371 1.42811,-10.32494 3.78398,-15.39859 2.47944,-5.33979 3.51524,-10.97856 4.37927,-16.72232 1.60756,-5.7614 0.68484,-11.63612 0.25377,-17.4889 -2.00104,-13.98386 -3.72059,-28.01916 -5.3304,-42.06114 0.446,7.69646 0.89192,15.39285 1.33791,23.08931 0.14531,8.81737 1.72964,17.56298 2.18773,26.323 -0.0274,6.21624 -2.69476,11.81516 -4.73463,17.56084 -2.89571,4.61495 -7.03951,8.50693 -10.41145,12.84604 0,0 0.53686,-8.41611 -0.83151,-10.97999 -1.36838,-2.56388 -0.23249,-14.11149 -2.07034,-17.01525 -1.89314,-1.77941 -6.06813,-2.88018 -9.68273,-3.10886 -3.4084,-0.21563 -6.57967,-1.57509 -10.25654,0.085 -3.93447,1.77645 -8.37768,1.89887 -12.71383,1.2374 -3.55982,-0.54305 -7.47207,-2.65196 -10.82455,-0.74219 -5.66172,3.2997 -15.83893,3.44311 -18.4982,5.13195 -3.81419,3.78594 2.33537,14.05401 -0.72182,18.0445 -3.47299,4.00091 -3.12779,9.44112 -4.21901,14.33982 -4.58339,-3.90762 -9.16692,-7.81532 -13.750291,-11.72295 -3.034025,-1.89692 -4.702427,-4.82801 -5.909468,-8.10866 -3.71939,-6.31845 -3.986356,-13.74144 -5.560041,-20.74639 -0.876373,-8.76255 -0.681768,-17.64361 -2.131007,-26.3706 -0.976793,-3.3117 0.07177,-6.40172 1.338445,-9.46793 1.373785,-2.01169 0.658254,-2.75007 -0.431684,-2.57491 z m 45.459926,50.05183 c 3.48389,-0.37514 6.9824,-0.53479 10.51211,-0.23119 3.49974,0.39999 6.83563,-0.16048 10.00421,-1.7023 5.49401,1.96641 11.22753,-0.46564 16.89064,-0.0691 1.87931,0.41587 5.44025,2.26308 5.13123,6.17329 0.20128,5.93619 1.1088,8.83136 -0.66628,14.59064 -1.27863,5.40751 -0.0119,11.52153 -2.61938,16.42172 -1.65703,3.11399 -6.40673,2.71403 -9.98499,2.22883 -2.68859,0.0222 -5.37726,0.0444 -8.06583,0.0666 -3.36408,0.75709 -7.25616,1.26307 -10.58443,2.65515 -3.12912,1.30878 -5.81389,2.44651 -8.8956,1.41783 -6.05346,-2.02067 -7.53838,-9.34464 -8.62321,-15.81789 -1.81836,-5.06857 -2.77936,-10.29378 -2.86762,-15.67848 0.14602,-10.3707 5.26267,-9.52469 9.76915,-10.05556 z"
       sodipodi:nodetypes="scccssssssssccccccczcssscccccccccsccccccsccsccccc" /><path
       style="fill:none;fill-opacity:1;stroke:#00087e;stroke-width:3;stroke-linecap:round;stroke-linejoin:round;stroke-dasharray:none;stroke-opacity:1"
       d="m 154.16554,126.16823 7.8634,32.95774 -17.1984,1.72428"
       id="path41"
       sodipodi:nodetypes="ccc" /><path
       id="path29"
       style="fill:#3f47ae;fill-opacity:1;stroke:#00087e;stroke-width:3;stroke-linecap:round;stroke-linejoin:round;stroke-dasharray:none;stroke-opacity:1"
       d="m 97.173258,118.09393 c -3.571752,0.35892 -6.457035,2.79986 -9.585874,4.50189 -0.911295,2.48224 -4.754327,4.78422 0.285164,3.5441 2.792697,-0.0285 6.510948,-2.15353 7.673926,1.50991 2.94287,7.2738 2.086526,16.0364 6.864946,22.57269 1.79619,2.56026 4.3767,3.92448 7.34929,4.69053 4.95129,0.83653 10.13544,1.38595 15.18662,1.01033 5.46773,0.15324 11.29288,-1.38134 14.75937,-5.86408 4.77186,-5.07917 7.36115,-11.74078 8.73295,-18.48976 2.4845,-2.38637 6.12544,-3.3615 9.15384,-1.35778 1.20597,3.26877 2.47796,6.51175 3.81597,9.72873 1.55421,4.52884 3.64406,8.75552 6.85043,12.35207 2.90555,2.5636 7.51298,1.83682 11.19923,2.45207 4.50521,0.0518 9.24754,-0.38346 13.50336,-1.94149 3.80542,-0.67256 6.27335,-3.7973 7.4127,-7.31637 3.28945,-5.36734 3.03136,-11.77067 4.13088,-17.7775 2.68813,-0.13986 2.67597,-3.90965 1.88364,-6.42976 -4.29862,-0.0838 -8.27898,-1.53512 -12.23963,-3.07073 -8.56687,0.38508 -17.20631,-0.0452 -25.65495,1.67031 -3.79805,-0.24305 -6.76368,2.7782 -10.3587,2.91109 -4.43088,-0.6121 -9.46657,0.96642 -13.26377,-1.94084 -5.15926,-1.68399 -10.77338,-2.10766 -16.10512,-3.31387 -9.99439,-0.0656 -20.07909,-0.92892 -30.018866,0.5403 -0.540994,-0.042 -1.065156,-0.0331 -1.575406,0.0183 z m 13.086862,2.03838 c 7.47302,0.13286 15.05673,-1.07564 22.35218,1.09293 3.7105,1.10296 7.45993,1.40367 10.67885,4.10984 2.65951,2.23589 1.50874,5.36092 2.10039,8.12095 -0.96012,3.98069 -3.06378,7.85868 -4.73253,11.64766 -2.31716,2.65029 -3.71834,6.22031 -7.58126,7.09105 -3.54939,0.80004 -6.75085,2.53171 -10.52087,1.88755 -4.37994,-0.74838 -9.32054,0.49921 -13.35062,-1.15565 -3.29202,-1.35178 -5.48261,-4.15187 -7.0837,-7.55938 -1.97195,-5.98297 -1.43294,-13.3279 -1.46529,-19.71689 0.83173,-5.49232 5.86236,-5.18183 9.60285,-5.51806 z m 68.42567,0.342 c 5.58822,-0.3547 11.33575,-0.55192 16.7786,0.81586 3.05249,0.76709 7.03202,2.0987 6.84773,6.19162 -0.22372,4.96906 -1.53196,9.79863 -2.14471,14.70785 -2.39588,4.01282 -4.96119,8.37498 -10.1698,9.35326 -5.58007,1.04806 -11.2541,2.49754 -16.63197,1.00947 -3.74563,-1.03642 -6.29114,-4.38077 -7.93324,-8.20221 -1.78906,-4.16347 -3.39581,-8.58343 -3.53472,-13.06909 l 0.18469,-4.30702 c 0.15215,-3.54805 5.21882,-4.81198 9.05429,-5.16219 2.54225,-0.23212 4.99869,-1.17567 7.54913,-1.33755 z"
       sodipodi:nodetypes="ccccccccccccccccccccccccccssccssssccasscssscssa" /><path
       style="fill:#3f47ae;fill-opacity:1;stroke:#00087e;stroke-width:3;stroke-linecap:round;stroke-linejoin:round;stroke-dasharray:none;stroke-opacity:1"
       d="m 89.649549,93.915754 c 3.831532,-5.547603 9.244517,-9.81257 14.401511,-14.128941 6.49491,-5.436204 13.34372,-10.541354 20.71027,-14.721089 7.57168,-4.296126 15.95539,-7.71065 23.90769,-10.512165 4.98817,-1.757279 10.33513,-1.925334 15.67589,-1.045415 4.68631,0.772091 9.64304,1.620875 13.69964,3.980857 5.59229,3.25341 11.29057,6.573364 15.20177,11.975083 3.42695,4.732915 6.46678,9.656766 8.20334,15.300266 1.22639,3.985535 1.84475,7.917129 0.75875,11.927675 -0.66762,2.442912 -3.59739,5.372255 -6.32263,5.082415 -0.39846,-0.0641 -3.24214,0.0525 -2.99901,3.77762 -2.63862,-8.041538 -7.75628,-14.573468 -12.22179,-21.629292 -3.66913,-3.93684 -7.80779,-7.832287 -12.63319,-10.295011 -6.48607,-3.31027 -13.78084,-4.610843 -21.12055,-5.333681 -5.29305,-0.52128 -14.0157,0.421238 -15.72684,1.233845 -7.39427,3.511498 -8.89966,6.961342 -13.22104,10.582427 -6.03304,5.055386 -10.82349,11.297853 -17.20846,16.075875 -2.98475,2.23356 -7.117177,3.667129 -9.977775,1.52541 -1.056603,-0.791077 -1.877684,-2.709803 -1.127576,-3.795879 z"
       id="path17"
       sodipodi:nodetypes="saasssssccccsssssss" /><path
       style="fill:none;fill-opacity:1;stroke:#00087e;stroke-width:3;stroke-linecap:round;stroke-linejoin:round;stroke-dasharray:none;stroke-opacity:1"
       d="m 128.71625,183.38819 c 0,0 14.39031,0.40886 22.14129,-0.27392 6.44003,-0.56729 18.08721,-2.29002 18.08721,-2.29002 0,0 -0.73124,4.52516 -2.66664,6.74183 -4.09784,4.6934 -9.66721,9.05031 -15.83522,9.93112 -7.01289,1.00144 -12.1706,0.63475 -17.17378,-4.38037 -2.15884,-2.16398 -4.55286,-9.72864 -4.55286,-9.72864 z"
       id="path39"
       sodipodi:nodetypes="cscsssc" /><ellipse
       style="fill:#00087e;fill-opacity:1;fill-rule:evenodd;stroke:#00087e;stroke-width:3;stroke-linecap:round;stroke-linejoin:round;stroke-dasharray:none;stroke-opacity:1;paint-order:fill markers stroke"
       id="path40"
       cx="121.21783"
       cy="135.09729"
       rx="6.2460699"
       ry="5.9960036"
       transform="rotate(-1.4865113)" /><ellipse
       style="fill:#00087e;fill-opacity:1;fill-rule:evenodd;stroke:#00087e;stroke-width:3;stroke-linecap:round;stroke-linejoin:round;stroke-dasharray:none;stroke-opacity:1;paint-order:fill markers stroke"
       id="ellipse40"
       cx="174.14595"
       cy="135.71912"
       rx="6.2460699"
       ry="5.9960036"
       transform="rotate(-1.4865113)" /><path
       style="fill:none;stroke:#00087e;stroke-width:3;stroke-linecap:round;stroke-linejoin:round;stroke-dasharray:none;stroke-opacity:1"
       d="m 132.34204,190.17643 33.22758,-1.89839"
       id="path42"
       sodipodi:nodetypes="cc" /></g></svg>
